<mxfile host="Electron" modified="2024-07-25T05:59:37.810Z" agent="Mozilla/5.0 (X11; Linux x86_64) AppleWebKit/537.36 (KHTML, like Gecko) draw.io/24.5.3 Chrome/124.0.6367.207 Electron/30.0.6 Safari/537.36" etag="kyQsO37kAI3siG4RuxTa" version="24.5.3" type="device">
  <diagram name="Page-1" id="VFTn6SnOKH_uxOO1qCUn">
    <mxGraphModel dx="2498" dy="973" grid="1" gridSize="10" guides="1" tooltips="1" connect="1" arrows="1" fold="1" page="1" pageScale="1" pageWidth="827" pageHeight="1169" math="0" shadow="0">
      <root>
        <mxCell id="0" />
        <mxCell id="1" parent="0" />
        <mxCell id="GSvg4yBgsBsZJvJtah6M-70" value="" style="rounded=0;whiteSpace=wrap;html=1;" vertex="1" parent="1">
          <mxGeometry x="-430" y="160" width="1490" height="610" as="geometry" />
        </mxCell>
        <mxCell id="GSvg4yBgsBsZJvJtah6M-66" value="" style="rounded=0;whiteSpace=wrap;html=1;fillColor=#CCCCCC;strokeColor=#666666;gradientColor=none;" vertex="1" parent="1">
          <mxGeometry x="-420" y="240" width="1320" height="520" as="geometry" />
        </mxCell>
        <mxCell id="GSvg4yBgsBsZJvJtah6M-67" value="" style="group" vertex="1" connectable="0" parent="1">
          <mxGeometry x="-410" y="300" width="1460" height="450" as="geometry" />
        </mxCell>
        <mxCell id="GSvg4yBgsBsZJvJtah6M-44" value="" style="rounded=0;whiteSpace=wrap;html=1;fillColor=#e1d5e7;strokeColor=#9673a6;" vertex="1" parent="GSvg4yBgsBsZJvJtah6M-67">
          <mxGeometry x="540" width="760" height="450" as="geometry" />
        </mxCell>
        <mxCell id="GSvg4yBgsBsZJvJtah6M-28" value="" style="rounded=0;whiteSpace=wrap;html=1;fillColor=#000000;" vertex="1" parent="GSvg4yBgsBsZJvJtah6M-67">
          <mxGeometry x="560" y="300" width="360" height="110" as="geometry" />
        </mxCell>
        <mxCell id="GSvg4yBgsBsZJvJtah6M-29" value="Blackbox Exporter" style="text;html=1;align=center;verticalAlign=middle;whiteSpace=wrap;rounded=0;fontSize=18;fontColor=#FFFFFF;fontStyle=0" vertex="1" parent="GSvg4yBgsBsZJvJtah6M-67">
          <mxGeometry x="756.45" y="340" width="158" height="20" as="geometry" />
        </mxCell>
        <mxCell id="GSvg4yBgsBsZJvJtah6M-30" value="" style="endArrow=classic;html=1;rounded=0;strokeWidth=3;" edge="1" parent="GSvg4yBgsBsZJvJtah6M-67">
          <mxGeometry width="50" height="50" relative="1" as="geometry">
            <mxPoint x="739.6600000000001" y="300" as="sourcePoint" />
            <mxPoint x="739.6600000000001" y="220" as="targetPoint" />
          </mxGeometry>
        </mxCell>
        <mxCell id="GSvg4yBgsBsZJvJtah6M-11" value="" style="endArrow=classic;html=1;rounded=0;strokeWidth=3;" edge="1" parent="GSvg4yBgsBsZJvJtah6M-67" target="GSvg4yBgsBsZJvJtah6M-13">
          <mxGeometry width="50" height="50" relative="1" as="geometry">
            <mxPoint x="920" y="119.70999999999998" as="sourcePoint" />
            <mxPoint x="1050" y="120" as="targetPoint" />
          </mxGeometry>
        </mxCell>
        <mxCell id="GSvg4yBgsBsZJvJtah6M-12" value="Push Alerts" style="text;html=1;align=center;verticalAlign=middle;whiteSpace=wrap;rounded=0;fontSize=15;container=0;" vertex="1" parent="GSvg4yBgsBsZJvJtah6M-67">
          <mxGeometry x="940" y="90" width="80" height="30" as="geometry" />
        </mxCell>
        <mxCell id="GSvg4yBgsBsZJvJtah6M-13" value="" style="rounded=0;whiteSpace=wrap;html=1;fillColor=#FF3333;container=0;" vertex="1" parent="GSvg4yBgsBsZJvJtah6M-67">
          <mxGeometry x="1050" y="20" width="230" height="200" as="geometry" />
        </mxCell>
        <mxCell id="GSvg4yBgsBsZJvJtah6M-14" value="Alert Manager" style="text;html=1;align=center;verticalAlign=middle;whiteSpace=wrap;rounded=0;fontColor=#FFFFFF;fontFamily=Helvetica;fontSize=20;container=0;fontStyle=1" vertex="1" parent="GSvg4yBgsBsZJvJtah6M-67">
          <mxGeometry x="1097.5" y="30" width="142.5" height="30" as="geometry" />
        </mxCell>
        <mxCell id="GSvg4yBgsBsZJvJtah6M-16" value="" style="rounded=1;whiteSpace=wrap;html=1;container=0;" vertex="1" parent="GSvg4yBgsBsZJvJtah6M-67">
          <mxGeometry x="1108.75" y="150" width="112.5" height="40" as="geometry" />
        </mxCell>
        <mxCell id="GSvg4yBgsBsZJvJtah6M-17" value="" style="rounded=1;whiteSpace=wrap;html=1;container=0;" vertex="1" parent="GSvg4yBgsBsZJvJtah6M-67">
          <mxGeometry x="1108.75" y="85" width="112.5" height="40" as="geometry" />
        </mxCell>
        <mxCell id="GSvg4yBgsBsZJvJtah6M-18" value="Routes" style="text;html=1;align=center;verticalAlign=middle;whiteSpace=wrap;rounded=0;fontSize=15;container=0;" vertex="1" parent="GSvg4yBgsBsZJvJtah6M-67">
          <mxGeometry x="1135" y="90" width="60" height="30" as="geometry" />
        </mxCell>
        <mxCell id="GSvg4yBgsBsZJvJtah6M-19" value="Receivers" style="text;html=1;align=center;verticalAlign=middle;whiteSpace=wrap;rounded=0;fontSize=15;container=0;" vertex="1" parent="GSvg4yBgsBsZJvJtah6M-67">
          <mxGeometry x="1135" y="155" width="60" height="30" as="geometry" />
        </mxCell>
        <mxCell id="GSvg4yBgsBsZJvJtah6M-21" value="" style="endArrow=classic;html=1;rounded=0;entryX=-0.038;entryY=0.585;entryDx=0;entryDy=0;entryPerimeter=0;" edge="1" parent="GSvg4yBgsBsZJvJtah6M-67" target="GSvg4yBgsBsZJvJtah6M-23">
          <mxGeometry width="50" height="50" relative="1" as="geometry">
            <mxPoint x="1221.25" y="169.66000000000003" as="sourcePoint" />
            <mxPoint x="1341.25" y="169.66000000000003" as="targetPoint" />
          </mxGeometry>
        </mxCell>
        <mxCell id="GSvg4yBgsBsZJvJtah6M-27" value="Notifs" style="text;html=1;align=center;verticalAlign=middle;whiteSpace=wrap;rounded=0;fontSize=14;container=0;" vertex="1" parent="GSvg4yBgsBsZJvJtah6M-67">
          <mxGeometry x="1310" y="145" width="60" height="30" as="geometry" />
        </mxCell>
        <mxCell id="GSvg4yBgsBsZJvJtah6M-2" value="" style="rounded=0;whiteSpace=wrap;html=1;shadow=0;container=0;" vertex="1" parent="GSvg4yBgsBsZJvJtah6M-67">
          <mxGeometry x="560" y="20" width="180" height="200" as="geometry" />
        </mxCell>
        <mxCell id="GSvg4yBgsBsZJvJtah6M-1" value="" style="shape=image;aspect=fixed;image=data:image/svg+xml,PHN2ZyB4bWxucz0iaHR0cDovL3d3dy53My5vcmcvMjAwMC9zdmciIHZpZXdCb3g9IjAgMCAxMjggMTI4Ij48cGF0aCBkPSJNNjMuNjYgMi40NzdjMzMuNDc3LjAwNyA2MC45NTcgMjcuMjk2IDYwLjkxNCA2MC41LS4wNDMgMzMuNzAzLTI3LjQxIDYwLjYxNy02MS42MTMgNjAuNTkzLTMzLjQ0MS0uMDIzLTYwLjQ3Ny0yNy4zNDMtNjAuNDUzLTYxLjA4NkMyLjUzIDI5LjQ4OCAzMC4wNjYgMi40NyA2My42NiAyLjQ3N3ptLTE4LjUwNCAyMS4yNWMuNzY2IDMuNzc3LjAyNCA3LjMtMS4xMTMgMTAuNzY1LS43ODUgMi4zOTktMS44NzEgNC43MTEtMi41MiA3LjE0NS0xLjA3IDQuMDA4LTIuMjggOC4wMzktMi43MjYgMTIuMTM2LS42NCA1Ljg5NSAxLjY3NiAxMS4wODYgNS42NCAxNi4yNWwtMTguMjIyLTMuODM1Yy4wMzEuNTc0IDAgLjc5Mi4wNjIuOTc2IDEuNzI3IDUuMDc0IDQuNzY2IDkuMzQ4IDguMTcyIDEzLjM3OS4zNi40MjYgMS4xOC42NDQgMS43OS42NDQgMTguMTY3LjAzNiAzNi4zMzUuMDMyIDU0LjUwMy4wMDguNTYzIDAgMS4zMTctLjEwNSAxLjY2LS40NjggMy44OTUtNC4wOTQgNi44NzEtOC43NTggOC43MzUtMTQuNjNsLTE5LjI5IDMuNzc4YzEuMjc0LTIuNDk2IDIuNzIzLTQuNjg4IDMuNTYtNy4wOTggMi44NTUtOC4yNDIgMS42NzEtMTYuMjEtMi40MjctMjMuNzI2LTMuMjg5LTYuMDMxLTYuMzI0LTEyLjAzNS00LjY4My0xOS4zMDUtMy40NzMgMy40MzQtNC44MDkgNy44LTUuNjU2IDEyLjMtLjgzMiA0LjQzNC0xLjMyNSA4LjkzLTEuOTcgMTMuNDMtLjA5My0uMTM2LS4yMS0uMjM4LS4yMy0uMzU1YTEzLjMxNyAxMy4zMTcgMCAwMS0uMTY4LTEuNDIyYy0uMzk0LTcuMzY3LTEuODMyLTE0LjQ2NS00Ljg3LTIxLjI0Ni0xLjc4Ni0zLjk4OC0zLjc1OC04LjA3LTEuOTE1LTEyLjgzMi0xLjI0Ni42Ni0yLjM3NSAxLjMxMy0zLjE4MyAyLjI0Ni0yLjQxIDIuNzg1LTMuNDA3IDYuMTMtMy42NjQgOS43OTMtLjIyIDMuMTMtLjUyIDYuMjc0LTEuMTAyIDkuMzUyLS42MSAzLjIzNC0xLjU3NCA2LjQwMi0zLjc1IDkuMzc1LS44NzUtNi4zNDgtLjk3My0xMi42My02LjYzMy0xNi42NnpNOTIgODYuNzVIMzUuMDE2djkuODk4SDkyem0tNDUuNjg0IDE1LjAxNmMtLjA0NiA4LjI0MiA4LjM0OCAxNC4zODIgMTguNzIzIDEzLjkzNyA4LjYwMi0uMzcxIDE2LjIxMS03LjEzNyAxNS41NTktMTMuOTM3em0wIDAiIGZpbGw9IiNlNzUyMjUiLz48L3N2Zz4K;shadow=0;container=0;" vertex="1" parent="GSvg4yBgsBsZJvJtah6M-67">
          <mxGeometry x="575" y="45" width="150" height="150" as="geometry" />
        </mxCell>
        <mxCell id="GSvg4yBgsBsZJvJtah6M-3" value="" style="rounded=0;whiteSpace=wrap;html=1;fillColor=#ffa55c;shadow=0;container=0;" vertex="1" parent="GSvg4yBgsBsZJvJtah6M-67">
          <mxGeometry x="740" y="20" width="180" height="200" as="geometry" />
        </mxCell>
        <mxCell id="GSvg4yBgsBsZJvJtah6M-4" value="" style="endArrow=none;html=1;rounded=0;shadow=0;" edge="1" parent="GSvg4yBgsBsZJvJtah6M-67">
          <mxGeometry width="50" height="50" relative="1" as="geometry">
            <mxPoint x="740" y="90" as="sourcePoint" />
            <mxPoint x="920" y="90" as="targetPoint" />
          </mxGeometry>
        </mxCell>
        <mxCell id="GSvg4yBgsBsZJvJtah6M-5" value="" style="endArrow=none;html=1;rounded=0;shadow=0;" edge="1" parent="GSvg4yBgsBsZJvJtah6M-67">
          <mxGeometry width="50" height="50" relative="1" as="geometry">
            <mxPoint x="740" y="160" as="sourcePoint" />
            <mxPoint x="920" y="160" as="targetPoint" />
          </mxGeometry>
        </mxCell>
        <mxCell id="GSvg4yBgsBsZJvJtah6M-6" value="Rule 1" style="text;html=1;align=center;verticalAlign=middle;whiteSpace=wrap;rounded=0;fontSize=21;fontColor=#FFFFFF;shadow=0;fontFamily=Courier New;container=0;fontStyle=1" vertex="1" parent="GSvg4yBgsBsZJvJtah6M-67">
          <mxGeometry x="794" y="40" width="86" height="30" as="geometry" />
        </mxCell>
        <mxCell id="GSvg4yBgsBsZJvJtah6M-7" value="Rule 2" style="text;html=1;align=center;verticalAlign=middle;whiteSpace=wrap;rounded=0;fontSize=21;fontColor=#FFFFFF;shadow=0;fontFamily=Courier New;container=0;fontStyle=1" vertex="1" parent="GSvg4yBgsBsZJvJtah6M-67">
          <mxGeometry x="794" y="110" width="86" height="30" as="geometry" />
        </mxCell>
        <mxCell id="GSvg4yBgsBsZJvJtah6M-8" value="Rule 3" style="text;html=1;align=center;verticalAlign=middle;whiteSpace=wrap;rounded=0;fontSize=21;fontColor=#FFFFFF;shadow=0;fontFamily=Courier New;container=0;fontStyle=1" vertex="1" parent="GSvg4yBgsBsZJvJtah6M-67">
          <mxGeometry x="794" y="170" width="86" height="30" as="geometry" />
        </mxCell>
        <mxCell id="GSvg4yBgsBsZJvJtah6M-31" value="" style="group" vertex="1" connectable="0" parent="GSvg4yBgsBsZJvJtah6M-67">
          <mxGeometry x="1390" y="102.5" width="70" height="115" as="geometry" />
        </mxCell>
        <mxCell id="GSvg4yBgsBsZJvJtah6M-23" value="" style="rounded=0;whiteSpace=wrap;html=1;fillStyle=auto;fillColor=#f8cecc;strokeColor=#b85450;container=0;" vertex="1" parent="GSvg4yBgsBsZJvJtah6M-31">
          <mxGeometry width="70" height="115" as="geometry" />
        </mxCell>
        <mxCell id="GSvg4yBgsBsZJvJtah6M-25" value="" style="shape=image;aspect=fixed;image=data:image/svg+xml,PHN2ZyB3aWR0aD0iMTI3IiBoZWlnaHQ9IjEyNyIgeG1sbnM9Imh0dHA6Ly93d3cudzMub3JnLzIwMDAvc3ZnIj4KICA8cGF0aCBkPSJNMjcuMiA4MGMwIDcuMy01LjkgMTMuMi0xMy4yIDEzLjJDNi43IDkzLjIuOCA4Ny4zLjggODBjMC03LjMgNS45LTEzLjIgMTMuMi0xMy4yaDEzLjJWODB6bTYuNiAwYzAtNy4zIDUuOS0xMy4yIDEzLjItMTMuMiA3LjMgMCAxMy4yIDUuOSAxMy4yIDEzLjJ2MzNjMCA3LjMtNS45IDEzLjItMTMuMiAxMy4yLTcuMyAwLTEzLjItNS45LTEzLjItMTMuMlY4MHoiIGZpbGw9IiNFMDFFNUEiLz4KICA8cGF0aCBkPSJNNDcgMjdjLTcuMyAwLTEzLjItNS45LTEzLjItMTMuMkMzMy44IDYuNSAzOS43LjYgNDcgLjZjNy4zIDAgMTMuMiA1LjkgMTMuMiAxMy4yVjI3SDQ3em0wIDYuN2M3LjMgMCAxMy4yIDUuOSAxMy4yIDEzLjIgMCA3LjMtNS45IDEzLjItMTMuMiAxMy4ySDEzLjlDNi42IDYwLjEuNyA1NC4yLjcgNDYuOWMwLTcuMyA1LjktMTMuMiAxMy4yLTEzLjJINDd6IiBmaWxsPSIjMzZDNUYwIi8+CiAgPHBhdGggZD0iTTk5LjkgNDYuOWMwLTcuMyA1LjktMTMuMiAxMy4yLTEzLjIgNy4zIDAgMTMuMiA1LjkgMTMuMiAxMy4yIDAgNy4zLTUuOSAxMy4yLTEzLjIgMTMuMkg5OS45VjQ2Ljl6bS02LjYgMGMwIDcuMy01LjkgMTMuMi0xMy4yIDEzLjItNy4zIDAtMTMuMi01LjktMTMuMi0xMy4yVjEzLjhDNjYuOSA2LjUgNzIuOC42IDgwLjEuNmM3LjMgMCAxMy4yIDUuOSAxMy4yIDEzLjJ2MzMuMXoiIGZpbGw9IiMyRUI2N0QiLz4KICA8cGF0aCBkPSJNODAuMSA5OS44YzcuMyAwIDEzLjIgNS45IDEzLjIgMTMuMiAwIDcuMy01LjkgMTMuMi0xMy4yIDEzLjItNy4zIDAtMTMuMi01LjktMTMuMi0xMy4yVjk5LjhoMTMuMnptMC02LjZjLTcuMyAwLTEzLjItNS45LTEzLjItMTMuMiAwLTcuMyA1LjktMTMuMiAxMy4yLTEzLjJoMzMuMWM3LjMgMCAxMy4yIDUuOSAxMy4yIDEzLjIgMCA3LjMtNS45IDEzLjItMTMuMiAxMy4ySDgwLjF6IiBmaWxsPSIjRUNCMjJFIi8+Cjwvc3ZnPgo=;container=0;" vertex="1" parent="GSvg4yBgsBsZJvJtah6M-31">
          <mxGeometry x="12.5" y="10" width="45" height="45" as="geometry" />
        </mxCell>
        <mxCell id="GSvg4yBgsBsZJvJtah6M-22" value="" style="verticalLabelPosition=bottom;html=1;verticalAlign=top;align=center;strokeColor=none;fillColor=#00BEF2;shape=mxgraph.azure.message;pointerEvents=1;container=0;" vertex="1" parent="GSvg4yBgsBsZJvJtah6M-31">
          <mxGeometry x="10" y="65" width="50" height="37.5" as="geometry" />
        </mxCell>
        <mxCell id="GSvg4yBgsBsZJvJtah6M-42" value="" style="shape=image;aspect=fixed;image=data:image/png,iVBORw0KGgoAAAANSUhEUgAAArIAAAF0CAYAAADfINq0AAAMamlDQ1BJQ0MgUHJvZmlsZQAASImVVwdYU8kWnluSkJDQAhGQEnoTRHqREkKLICBVsBGSQEKJISGI2MuigmsXUazoqoiiawFkURF7WRR7XywoKOtiQVFQ3oQEdN1Xvne+b+7898yZ/5Q7c+8dADR7uBJJNqoFQI44TxobFsQcn5zCJD0HCEABFXgAIpcnk7BiYiIBlMH+7/LhFrSGct1RwfXP8f8qOnyBjAcAMhHiNL6MlwNxIwD4Rp5EmgcAUaG3mJYnUeC5EOtKYYAQr1HgDCXercBpStwwYBMfy4b4KgBqVC5XmgGAxgOoZ+bzMiCPRh/EzmK+SAyA5giI/XlCLh9iRewjcnKmKnAZxLbQXgIxjAd4pX3HmfE3/rQhfi43Ywgr8xoQtWCRTJLNnf5/luZ/S062fNCHNWxUoTQ8VpE/rOGdrKkRCkyFuFOcFhWtqDXEPSK+su4AoBShPDxBaY8a8WRsWD/AgNiZzw2OgNgI4lBxdlSkSp+WLgrlQAxXC1ogyuPEQ6wP8WKBLCROZbNVOjVW5QutSZeyWSr9ea50wK/C1yN5VgJLxf9WKOCo+DGNQmF8EsQUiC3zRYlREGtA7CTLiotQ2YwuFLKjBm2k8lhF/JYQxwrEYUFKfiw/XRoaq7IvzpEN5ottFYo4USp8ME8YH66sD3aaxx2IH+aCXRWIWQmDPALZ+MjBXPiC4BBl7li7QJwQp+LpkeQFxSrn4hRJdozKHjcXZIcp9OYQu8ny41Rz8cQ8uDiV/Hi6JC8mXhknXpjJHROjjAdfASIBGwQDJpDDlgamgkwgau6s7YR3ypFQwAVSkAEEwFGlGZyRNDAihtc4UAj+hEgAZEPzggZGBSAf6r8MaZVXR5A+MJo/MCMLPIc4B0SAbHgvH5glHvKWCJ5Bjegf3rmw8WC82bApxv+9flD7TcOCmkiVRj7okak5aEkMIQYTw4mhRDvcEPfHffFIeA2EzQX3wr0H8/hmT3hOaCE8IdwktBLuThHNl/4Q5VjQCvlDVbVI+74WuDXkdMeDcD/IDplxBm4IHHE36IeFB0DP7lDLVsWtqArzB+6/ZfDd01DZkZ3JKHkYOZBs++NMDXsN9yEWRa2/r48y1rSherOHRn70z/6u+nzYR/xoiS3GDmHnsJPYBawBqwVM7ARWh13Gjinw0Op6NrC6Br3FDsSTBXlE//DHVflUVFLmXOXc4dynHMsTFOQpNh57qmS6VJQhzGOy4NdBwOSIeU4jmC7OLi4AKL41ytfXO8bANwRhXPymWwD3uJ+4v7+/4Zsu4jMAh83g9m/9prO5Bl8T8D19fiVPLs1X6nDFhQDfEppwpxkAE2ABbGE+LvCL5gsCQQgYA6JBPEgGk2GVhXCdS8E0MBPMA0WgBKwAa8EGsAVsB7vBPnAQ1IIGcBKcBZfAVXAT3Ierpw28Al3gA+hFEISE0BA6YoCYIlaIA+KCeCH+SAgSicQiyUgqkoGIETkyE1mAlCCrkA3INqQS+RU5ipxELiAtyF3kMdKBvEU+oxhKRXVRY9QaHYl6oSw0Ao1HJ6EZaC5aiC5El6FlaAW6F61BT6KX0JtoK/oK7cYApo4xMDPMEfPC2Fg0loKlY1JsNlaMlWIVWDVWD5/zdawV68Q+4UScjjNxR7iCw/EEnIfn4rPxpfgGfDdeg5/Gr+OP8S78K4FGMCI4EHwIHMJ4QgZhGqGIUErYSThCOAP3UhvhA5FIZBBtiJ5wLyYTM4kziEuJm4j7iY3EFuJTYjeJRDIgOZD8SNEkLimPVERaT9pLOkG6Rmoj9aipq5mquaiFqqWoidXmq5Wq7VE7rnZN7YVaL1mLbEX2IUeT+eTp5OXkHeR68hVyG7mXok2xofhR4imZlHmUMko15QzlAeWdurq6ubq3+jh1kfpc9TL1A+rn1R+rf6LqUO2pbOpEqpy6jLqL2ki9S31Ho9GsaYG0FFoebRmtknaK9ojWo0HXcNLgaPA15miUa9RoXNN4rUnWtNJkaU7WLNQs1TykeUWzU4usZa3F1uJqzdYq1zqqdVurW5uuPUo7WjtHe6n2Hu0L2u06JB1rnRAdvs5Cne06p3Se0jG6BZ1N59EX0HfQz9DbdIm6Nroc3UzdEt19us26XXo6em56iXoFeuV6x/RaGRjDmsFhZDOWMw4ybjE+DzMexhomGLZkWPWwa8M+6g/XD9QX6Bfr79e/qf/ZgGkQYpBlsNKg1uChIW5obzjOcJrhZsMzhp3DdYf7DucNLx5+cPg9I9TI3ijWaIbRdqPLRt3GJsZhxhLj9canjDtNGCaBJpkma0yOm3SY0k39TUWma0xPmL5k6jFZzGxmGfM0s8vMyCzcTG62zazZrNfcxjzBfL75fvOHFhQLL4t0izUWTRZdlqaWYy1nWlZZ3rMiW3lZCa3WWZ2z+mhtY51kvci61rrdRt+GY1NoU2XzwJZmG2Cba1the8OOaOdll2W3ye6qPWrvbi+0L7e/4oA6eDiIHDY5tIwgjPAeIR5RMeK2I9WR5ZjvWOX42InhFOk036nW6fVIy5EpI1eOPDfyq7O7c7bzDuf7o3RGjRk1f1T9qLcu9i48l3KXG64011DXOa51rm/cHNwEbpvd7rjT3ce6L3Jvcv/i4ekh9aj26PC09Ez13Oh520vXK8Zrqdd5b4J3kPcc7wbvTz4ePnk+B33+8nX0zfLd49s+2ma0YPSO0U/9zP24ftv8Wv2Z/qn+W/1bA8wCuAEVAU8CLQL5gTsDX7DsWJmsvazXQc5B0qAjQR/ZPuxZ7MZgLDgsuDi4OUQnJCFkQ8ijUPPQjNCq0K4w97AZYY3hhPCI8JXhtznGHB6nktM1xnPMrDGnI6gRcREbIp5E2kdKI+vHomPHjF099kGUVZQ4qjYaRHOiV0c/jLGJyY35bRxxXMy48nHPY0fFzow9F0ePmxK3J+5DfFD88vj7CbYJ8oSmRM3EiYmViR+TgpNWJbWOHzl+1vhLyYbJouS6FFJKYsrOlO4JIRPWTmib6D6xaOKtSTaTCiZdmGw4OXvysSmaU7hTDqUSUpNS96T2caO5FdzuNE7axrQuHpu3jveKH8hfw+8Q+AlWCV6k+6WvSm/P8MtYndEhDBCWCjtFbNEG0ZvM8MwtmR+zorN2ZfVnJ2Xvz1HLSc05KtYRZ4lPTzWZWjC1ReIgKZK05vrkrs3tkkZId8oQ2SRZXZ4u/Km/LLeV/yR/nO+fX57fMy1x2qEC7QJxweXp9tOXTH9RGFr4ywx8Bm9G00yzmfNmPp7FmrVtNjI7bXbTHIs5C+e0zQ2bu3seZV7WvN/nO89fNf/9gqQF9QuNF85d+PSnsJ+qijSKpEW3F/ku2rIYXyxa3LzEdcn6JV+L+cUXS5xLSkv6lvKWXvx51M9lP/cvS1/WvNxj+eYVxBXiFbdWBqzcvUp7VeGqp6vHrq5Zw1xTvOb92ilrL5S6lW5ZR1knX9daFllWt95y/Yr1fRuEG26WB5Xv32i0ccnGj5v4m65tDtxcvcV4S8mWz1tFW+9sC9tWU2FdUbqduD1/+/MdiTvO/eL1S+VOw50lO7/sEu9q3R27+3SlZ2XlHqM9y6vQKnlVx96Je6/uC95XV+1YvW0/Y3/JAXBAfuDlr6m/3joYcbDpkNeh6sNWhzceoR8prkFqptd01QprW+uS61qOjjnaVO9bf+Q3p992NZg1lB/TO7b8OOX4wuP9JwpPdDdKGjtPZpx82jSl6f6p8adunB53uvlMxJnzZ0PPnjrHOnfivN/5hgs+F45e9LpYe8njUs1l98tHfnf//UizR3PNFc8rdVe9r9a3jG45fi3g2snrwdfP3uDcuHQz6mbLrYRbd25PvN16h3+n/W723Tf38u/13p/7gPCg+KHWw9JHRo8q/rD7Y3+rR+uxx8GPLz+Je3L/Ke/pq2eyZ31tC5/Tnpe+MH1R2e7S3tAR2nH15YSXba8kr3o7i/7U/nPja9vXh/8K/Oty1/iutjfSN/1vl74zeLfrvdv7pu6Y7kcfcj70fizuMejZ/cnr07nPSZ9f9E7rI/WVfbH7Uv814uuD/pz+fglXyh34FcBgQ9PTAXi7CwBaMgB0eG6jTFCeBQcEUZ5fBxD4T1h5XhwQDwCqYaf4jWc3AnAANuu5kBs2xS98fCBAXV2Hmkpk6a4uSi4qPAkRevr73xkDQKoH4Iu0v793U3//lx0w2LsANOYqz6AKIcIzw9ZgBbq7OqEH/CDK8+l3Of7YA0UEbuDH/l+wepB9q7Rn4AAAADhlWElmTU0AKgAAAAgAAYdpAAQAAAABAAAAGgAAAAAAAqACAAQAAAABAAACsqADAAQAAAABAAABdAAAAAD1tFO2AABAAElEQVR4Aex9B7wkVZX+7fz65ckMzDAzpAEBJYiAgAFQRFlwDWsWMS2CK4uKiCsIimBAWRX1r2JAV1FxTasrqCsYRoIMgkOQMDKEAWaYmZdD5//33erbr7peVVd1eO91OHd+b6rq5vvdqq6vzj33nJCSIAjMMwJ9fX1Lli1bdiGOaxKJxMW33XbbXfPcBWlOEBAEBAFBQBAQBNoAgUgbjEGG0EIIHHzwwe9ctGjRNfF4/ORCobB/OBw+c926df1TU1M3T05OpltoKNJVQUAQEAQEAUFAEFhgBEIL3L403yEIPOc5zzkaRPVTIK7H2occClm3IEjtPyChvXzDhg1X29PlXBAQBAQBQUAQEAQEAS8EhMh6ISPxDUEgmUzuceihh146Njb2FlZoiKup3Hmdy+X+1N3d/QGoG9xs8shREBAEBAFBQBAQBAQBNwSEyLqhInGNQCBy5JFHnpdOp8/PZrODkLhqEuskrl7XILPfSqVSH9m4ceOjjeiM1CEICAKCgCAgCAgC7YeA6Mi235wu+IgOP/zwV3d1dX0NJPUtkLB2kawawmqOppNe15lM5hDkOWPNmjWhrVu3UjpbMGXkKAgIAoKAICAICAKCABEQiazcBw1DAHqw+0GK+sl8Pv9y6MLqenFeVr8XcTWZ7OnmHKSW6gaXQt3gBpNPjoKAICAICAKCgCAgCAiRlXugbgSWLl3a19vbe+7g4OAlkMBWrM+QU5Op0rVJ45GqCSDFP4W5rvNBaB8w5eUoCAgCgoAgIAgIAp2LgKgWdO7cN2TkxxxzzNtBLr8bi8VeQemrIZ9elTvTK1070yDl3R9E+U1QW0hEo9E7xFyXF8oSLwgIAoKAICAIdAYCIpHtjHlu+CiNOS1U7GpOy6tBJzmtdO2Wxjj+YRPZP0CeP4jNYNd5tSXxgoAgIAgIAoKAINDeCAiRbe/5bfjojFcumNU6h5W7kc1Kjfrlt6fbz93aYhwcK9wESfCHxFxXJdQlTRAQBAQBQUAQaE8EhMi257zOxagi8Mr1Nmy8ujASiawyDQQhmyYvj3757en2c7eypl7mg3rDtzZt2vR+2KvdaeLlKAgIAoKAICAICALtjYDoyLb3/DZkdFAjOAmSz2+DwL4Leqr99kqDkk1Txi+/Pd1+zvLOa1Mnj7BVe8jAwMCrli9fPr19+/aN9jQ5FwQEAUFAEBAEBIH2REAksu05rw0ZlTGnBSnsy0kijVMDe+VOcum8tufluTO90nWlNGe9vDYmv6anp8VclxtAEicICAKCgCAgCLQZAkJk22xCGzGctWvXdqGeD0DCeQlIbFmVfuTSmV5WGBfO9ErXldKc9fLa5OeRpJvqBuIdzA0piRMEBAFBQBAQBNoDAVEtaI95bNgo6JUL1gB+AunmK2gT1pBD00C116acOVZT3i+vqdMcnfmxCewQ/GnvYBjT7cPDw1mTV46CgCAgCAgCgoAg0PoICJFt/TlsyAigRvAsEMGrQWD/AwR2kSGF5mgaqfbalDPHasr75TV1mqNbfoynC9LZExcvXvzKZcuWbX/yySfvNfnlKAgIAoKAICAICAKtjYCoFrT2/NXde2NOC04GzuFyvDO4kUN7Hr90e16e++W3p9vP3coGrduMizq0sD9L72AXw1zXXc7yci0ICAKCgCAgCAgCrYWASGRba74a2luY03pnT0/PtbBG8GKSPSdxZGPOuGqvnR2uprxf3qB1sx7zh7Huj/Mz16xZ0z81NXWzeAdzoijXgoAgIAgIAoJA6yAgEtnWmauG9RT6ooetX7/+czBZ5euVy49M+qU7O+2X355uP2c9zut66iZxhxR6K44Xb9iw4WpnXXItCAgCgoAgIAgIAs2PgBDZ5p+jhvUQG7n2HBoaei+IbGCvXE7yWO21s/PVlPfLW0/dpizbgMqBeAczgMhREBAEBAFBQBBoIQSEyLbQZNXaVZrTWrFixb9jo9NZcC272tQThCj65fFLN22Zo19+e7r9nOWd16ZOc3SmV3sdjUbFXJcBU46CgCAgCAgCgkALICA6si0wSfV0kea04CDgK7Cn+hZIYgfs5M5+zjac125xzjx+186+++W3p9vP3fpST91u9dFcF9QN3rZy5Uq1devWm5Fn9u43Z6NyLQgIAoKAICAICAILhoBIZBcM+rltGDvz99t///0/ic1MZV657OTQfs7eOK/d4px5/K6do/TLb0+3n7v1pZ663eoz1g3YLlzy3gcLB+fCusENznbkWhAQBAQBQUAQEASaAwEhss0xDw3rxdKlS/t6e3vPhQrBJdjMVeZWlgTNTg7t5+yA89otzpnH79o5ML/89nT7uVtf6qk7aH2Q0P4c1g3OA6F9wNmeXAsCgoAgIAgIAoLAwiIgqgULi39DW4dpqdevXr36p6j0NCyTa2JqJ4M8d17bO2BPM/HOuGqvTT3mWE15v7ymTnP0y++XbuqxH/ExsB66s/8GXMVclx0YORcEBAFBQBAQBJoAAZHINsEk1NsFeOU6+oknnvgQpIen2OtyI272OPs5yzmv3eKcefyu7f2ptr65rNutL359hY7xVkhnz924ceN1zrxyLQgIAoKAICAICALzj4AQ2fnHvGEtGq9ckMQG9splJ4f2c3bKee0W58zjd+0crF9+e7r93K0v9dRdS322MjTX9e/iHcw5A3ItCAgCgoAgIAjMLwKiWjC/eDeqtQi8cr0DRO971XrlspND+zk75rx2i3Pm8bt2Dtgvvz3dfu7Wl3rqrqU+W5m1sD175p577tk/PDy8EZvCppx9kWtBQBAQBAQBQUAQmHsEhMjOPcYNbQFqBCdhR/23obv5LuhuDpjKnaSP8c44Xtvj7Odu+d3i/Mo401mHPTjTK11XSrPXac798vulm3rM0Zmf8fY4WDk4evfddz9zYGBg1/bt2+9EspjrMuDJURAQBAQBQUAQmAcERLVgHkBuUBPrsOHoYuhpvpn12QmV27VbHMvYy9nP3fK7xfmVcaazDntwple6rpRmr9Oc++X3Szf1mKMzP+Pd4hgPc2e3Q3/2w2Kui2hIEAQEAUFAEBAE5gcBIbLzg3PNrayFVy4U/kAul/sASGyPqchJqJzXzOeM47U9zn7ult8tzq+MM5112IMzvdJ1pTR7nebcL79fuqnHHJ35Ge8WZ7c/C5UD8Q5mAJSjICAICAKCgCAwxwiIasEcA1xP9fTKNTY29h2oELwWJDZuCBPrdBIq57VXHns++7lbfrc4vzLOdNZhD870SteV0ux1mnO//H7pph5zdOZnvFecicccHQLprPYOhjm7HTq0WVOfHAUBQUAQEAQEAUGgsQiIRLaxeDaqtoNXrVp1GQisNqcFKd+seg1xMgnOa8Y743htj7Ofu+V3i/Mr40xnHfbgTK90XSnNXqc598vvl27qMUdnfsa7xZn89iPzYSPefVA3+IiY67IjI+eCgCAgCAgCgkDjEBAi2zgs666JXrn6+/s/BhJ0DlQJSvUJkbWg8CORzvRqr0uAF0+c5RntFucs58yHzXn0DnaRmOtyQ0riBAFBQBAQBASB2hEQ1YLasWtoSZjTeidsk/4Alb7YrkLARtzIkzPOee1Wjnns+eznbvnd4vzKONNZhz040ytdV0qz12nO/fL7pZt6zNGZn/FucSa//WjycS7xUULvYGeKdzA7QnIuCAgCgoAgIAjUj4BIZOvHsN4ajlq3bt2VILFHsSJDgOyVikTWQsMNGztOzvRqr+118dxZ3ivOWc4rH+vDXG4Fub14w4YNV7uVkzhBQBAQBAQBQUAQCI6AENngWDU0ZzKZ3AOqBJeB2GhzWqZyN/IkRNZCxw0bgxuPzvRqr+11udXnFecs55XP3h98uNA72IegbnCzW3mJEwQEAUFAEBAEBAF/BITI+mPU6BzYAxQ5fcmSJZeCzK50Vm4nOyZNiKyFhBs2BiMenenVXtvrcqvPK85Zziufsz/FcmKuyw1AiRMEBAFBQBAQBAIgIEQ2AEiNygI9yRN22223z4bC4WeGsczsFtzIjhBZCyk3bOwYOtOrvbbXxXNnea84ZzmvfF71IX40k8lcfuutt34aZWd2+blVLHGCgCAgCAgCgoAgUELAnU2VkuWkEQjAruh+y5Yt+wwI7CkksHlsAGJwI7NuZEeIrDULbthYKe7pzvx+1/a6eO7M7xXnLOeVz60+U5Zp+LsvnU6fK97BDCpyFAQEAUFAEBAEKiMgRLYyPnWl0pxWb2/vufTKBZZS8splKhUiO5ss2sme/ZyYOa8NjuboTK/22tRjjs7yjHeLM/ntR7d8bnH2MuYcjhRorus8ENoHTJwcBQFBQBAQBAQBQWA2AmJ+azYmDYmBHuwroAf7PyCxp0ESG3er1I3Y1BoXpBzz2PPZz9k/57VbnDOP37Vz3H757en2c7e+1FN3LfUFKWP65Ox7NWWxCYzmuk5fuXKlSqVSd01OTqZNvXIUBAQBQUAQEAQEgRkERCI7g0Wjzg5et27dV6HzqM1psVIQWde6RSI7mzzbCaD9XOPooVdswPXL75du6jFHZ/4gfWhEWXsd6MNWSGfPFe9gBhU5CgKCgCAgCAgCMwgIkZ3Boq6zvr6+JdCDvRA6juc4KxIiO4OIkxxWuq6UNlPjzJlffr/0mZqsM2d+xrrFOct55Qta1tRnzw8J7Y0ktOIdzKAjR0FAEBAEBAFBQClRLWjAXQA1grfCteyPUNWJbtXZCYk93S2+1rgg5ZjHns9+zn45r93inHn8ru3jrba+uazbrS9+fQ1SxtTh7Hs1Zd3qgLrBOnoHW7VqVf/w8PBGfDBNmXxyFAQEAUFAEBAEOhUBkcjWN/PHrVu37lPQYzzKzbKAqVoksgaJ2WTZSfjs1/Zz1uC8nqnVOnOmV3vtVx/TnXU6y5hrt3xucSa/29GZ33Yt3sHcAJM4QUAQEAQEgY5DQIhsDVNuvHJhI1eZVy4vMitEdgZkGxnTkZWuK6XN1Dhz5pffL32mJuvMmZ+xbnHOcl75gpY19TnzO6+xEnA71A3eI97BDGJyFAQEAUFAEOg0BITIVjHja9eu7UL2D9CcFv5mm9Py2NQlRHYGZCcZq3RdKW2mxpkzv/x+6TM1WWfO/Ix1i3OW88oXtKypz5nfeW3yQe1AvIMZMOQoCAgCgoAg0FEIuG+n7ygIAg/2pdls9laoEVziRmID1yIZBYEGI4CVgLdglWDTkUce+UFULXrvDcZXqhMEBAFBQBBoXgREIuszN8YrF8jrKSarl2RMVAv8JZZO7CpdV0ozc2E/+uX3S7fXxXNnfq84ZzmvfG71uZU1cc78zmuTz3EU72AOQORSEBAEBAFBoH0RECLrMbf0ygVLBB+DPdi3QxJbpkbgRSiEyLqTPzvETuwqXVdKs9dpzv3y+6WbeszRmZ/xbnEmv/3ols8tzl7Gee7M77x25rdfQ39WvIPZAZFzQUAQEAQEgbZEQJYhXabVeOWCGsGLoX84yyuXF6FoRLxbHUHiguax57OfEwbntVucM4/ftRNev/z2dPu5W1/qqbuW+oKUMX1y9r2asl51uNVp8jqPhUJhPe5j8Q7mBEauBQFBQBAQBNoKAZHIlk/nwbDTeRmksKd4SVeZ3YtQeJWRzV4zIDuxq3RdKW2mxpkzv/x+6TM1WWfO/Ix1i3OW88oXtKypz5nfeW3yeR2Zn3/4GLsP1g0+It7BvJCSeEFAEBAEBIFWRUCILGbOeOXCy/4cvPT1XHqRUiZ6EQqvMkJkNaT6Pyd2la4rpc3UOHPml98vfaYm68yZn7Fucc5yXvmCljX1OfM7r00+vyPvS0hoFY5UN7hIvIP5ISbpgoAgIAgIAq2CQMerFmD59fXQhf0ppLAn8mVvQiXS4JXWiHi3OoLEBc1jz2c/57id125xzjx+1wZPc/TLb0+3n7v1xdRpjn75/dJNPebozM94tziT3350y+cWZy/jPHfmd1478/tdU90gFouduccee/SD0N48OTmZ9isj6YKAICAICAKCQDMj0MkS2aPWrVt3JV7m2iuXkcSayfKSrjLdi1B4lRGJrEF1NnZOLO3X9vNKuJva/fL7pZt6zNGZP0gfGlHWqw63/pi8lY5u5UBqxTtYJdAkTRAQBAQBQaAlEOg4Iks1gsHBwc/CV/2bSV69yKdXPGfVjRgw3quMEFmiYwUndpWuK6WZ+uxHv/x+6fa6eO7M7xXnLOeVz60+t7ImzpnfeW3y+R29yjEez8FNeA4+JN7B/FCUdEFAEBAEBIFmRKCTVAs41rNAYq+FOa1j+RL3esFzompJ8ypTTbxb3iBxQfPY89nPvcbsl8cvnfXag19+e7r9nHU4r+31uqU78/td+9Xn1oazjLl2tlVNWa863Oo0eSsdK5WLRqNroV7zNmxy7B8eHt4IYjtVqS5JEwQEAUFAEBAEmgmBjpDI4mV9wm677fZZmNN6pgHfS3oaJN2LGHjV2WkSWaNrzGMmEjWQVjwmCrM32Tnx9MLdVOxMr/ba1GOOzvKMd4sz+e1Ht3xucfYyznNnfue1M7/XtV85phNrfOBtHRkZ+eimTZu+jrpyXvVJvCAgCAgCgoAg0CwItDuRXbd69eqLp6en30zA89y5jZc2g5Mk6Ujbf5XSvYiBV5l2IbKZmb1wKlMo4hiZ8XIcyedUKBZTJKXxQk71xmMa0e6QRVINvP2hnBotlC8GTBaseqZVWKXyBZqMUumwOwmOFO/aKOYyomY65ZyXaq9N/8zRWZ7xbnEmv/3ols8tzl7Gee7M77x25ve6DlKOeWz5bsdmsA9D3eAGrzolXhAQBAQBQUAQaAYE2pLIrl27tgvgfmBoaOi98Xh8wA1oL9Jp8lZKt73wTXZ99CrTakQ2q6zbwpDVPAhqOBxR3eGCSoJvLk9EFMnoikhBLU4m1IpoQQ2E82oQ6QPRkIqHQ6oX5JXHCAhSPGSRzShIp/mQIGD8sGBge2kQ4xyu0yCxGVyPQR44Df47AoK7Kx9RI9m82l6IqsczYTUO+jo8ManGQ1E1kZshsiS4JLcM6IadmOk457w5r3Um239u6W5xtiKlU7d8bnGlAi4nzvzOa5cirlFByrnlgYT2W1jFoP3ZR10rlkhBQBAQBAQBQWCBEbDe+gvciUY2T69cMC/0n5Aora5UrxfpNGUqpbu99FnOq0wzE1ku//OPklATesAIu/G3Dz4HSFb3xXGP7jjO82ppLKQWgbR2gaTCOmkZWTSckoQUfFQHsz6NKM9Q5J6gp1YgviHUTRJspK8h1onkvCa9So3nQ+rprFJPp/PqiUJcPZ7KqwdzcbUdcaOpjBrXxFipSDSqoiDiJLbO+fGaR9NRt3S3OJPffnTL5xZnL+M8d+Z3Xjvze10HKeeVB5LxUZimu3zbtm3/uWXLlmmvNiReEBAEBAFBQBBYCATaicgegA0rn4I5rVNIHO2SPzdgnaTGmadSutdL36tMsxFZLtunQhZt7AI17ItHNWndNxFSe0Uyan1/Qu0RD2kpK6WqpLgkp1QtIEElOSUxLZFUJ3i4rufG8uK8rHOG7CoFTq3/SHgZptE5EtynsiH1WCak7s3E1JZcVD04MqWlt9PFMWOYWiXBax51ZfjPLd0tzuS3H93yucXZyzjPnfmd1878XtdBynnlYTz/IJ29DxvBzhV1Ay+UJV4QEAQEAUFgIRCwGMBCtNygNpcuXdq3a9euD8Ks1tmQxmo1AiGyFriGnFDiOlVUU6WEcrdwTq3rjamDohl1+GBC7Q19gWWQvCbAWPUGrSJhzRrSWpyrZrxZDOk1faPk1RBcjp+qCrtyIbUlpdQD6bDamEuqR6Cz8ETGGlQkFFZRkHmWcwaDnz3eLc6ebs7d8rnFmfxuR2d+57VbGbe4IOX88tjS6R3sPBDaB9zakjhBQBAQBAQBQWA+EXB5fc9n8/W1Ra9cS5YsuQLSopUkr4Wie1khspCcUupaVBegmsDaaE4duTipDuuPqgPiOS1x5bI91QEyIHuGtHJGSA5b+cZw9p8S2FhRFYKqCSS2m6cL6s5URN2RjqtH4N9qqCheZl5Dam3krXSjusWVEm0nbvnc4mxFZp068zuvZxXwiAhSLkgeVs98uVxOqxts3rz5izt27BjzaFaiBQFBQBAQBASBOUegJfkK3GweBvL6kUWLFp3qhlCnElmt61q0JtAbi6hD+iLq2J6COqwvqtZDz7UHElcKZqfBXg1xdZI+NzzbIc6Mk6oJ4GLYuAadWWIBvB6HdPa26Zi6BaT275N5NZoPg+DnsbFtRkfXYFAN4TNlzDFoWa/81Zb3qsfE24/V1M28/KO6AaSz3Ax2nb0uORcEBAFBQBAQBOYLgZYisvTKNTExccmixYvPNtJXN6A6iciSvBrJKy0KHD4Y1+T1+YNRtToGKwMwjzWVy2v9VpJXQ+jccOukOIMDiS0lsF0QT1M6/ST0azdOFNQtqbi6YzqiSS1xoeUFSrCDEj63fG5xlTB35ndeVyprTwtSLkgeZ50sQ8k/jjeC0FJ/9i57HjkXBAQBQUAQEATmGoGWIbJQI3gr1AgupRqBHyidQGRJXnMgqBEQ1Wck8up5AxH1kuVJtU/cMntF3VBs6Idpq9ZWE/Cb60alG2JL1QLqClMFYQtUDiipvXEyqu5PWSbCSGijkNT6BTdi6BZXqR5nfud1pbL2tCDlguSx1+k8Z3lYN/gsnClcNjY2ttOZLteCgCAgCAgCgsBcIOD/Rp6LVqur8ziQ2Mt6e3uPDUJQWXWQfF4WBkzXKqV7vfS9yrA/bsHNsoJb3aZeSr+mi44DlmDD1jHLutXLF0fU4d1K9UOsSKsCUxAraqsCxMGtUYkLhAAltXFMGzeOUf3gfhie+s14RG2ApHZbFlYx8AERh3ybJsjcgts8usW5lTVxzvzOa5PP7xikXJA8fu3wPsWH5lasEly8YcOGq/3yS7ogIAgIAoKAIFAvAk3LdZLJ5B4wxv4xqBOcYSeCbuTPCUK7EVmOzxDYg0FaT14UVicv61J7UnyIQKcAojagoWjof0ZKS1KbhF4BVQuehurBbyeiZVJaqiU4Ca0bMXSLq9RhZ37ndaWy9rQg5YLksdfpdU4yq9VdUqmb8OH1Iagb3OyVV+IFAUFAEBAEBIF6EWhGIkvecObAwMDHcSzzyhWEoBKQIPmMlJP53UKldK+XvlcZOxG3t+VGyu115yCBpdms3mhYHbm0W50G6esJvfCeFQurSZBX2k01ZMter5w3HgGDM78dqIs8CSntXZNK/Wwirm5LxTAflh6tUTuwz6PpjVucSXM7OvM7r93KuMUFKRckj1vdzjjWY68LtmfFO5gTJLkWBAQBQUAQaBgCTUVko9HoCVyWpBqB2wiDEFSWC5LPi3Sadiul21/UJj+PXmWqJbJ2AvuC/pB606pedVh3Qbt8NdJXe7tyPr8IkNRG8UcpLQP1Z380HlcbJsJ6cxj1aGNQPXAGr/vGmc9cO/M7r00+v2OQckHy+LXDdLd6YK7LqBt8E1mMH40g1UkeQUAQEAQEAUGgIgJNQWQTicR+2ChCpwZnQB+WdipdOx2EoLJgkHxepNM0XCnd7WXNcl5lghLZfNFxQT88bZ24NKFOXx5Vh0CVgGEcugPuqFjprfK/kWy2Sn/9+mnUDqha8I90SP18IqGuH7MILVUOilxXV+N133i14czvvPYq54wPUi5IHme9btfOeuzX+Ei9HdYNPizewdyQkzhBQBAQBASBWhBYUCJLr1wwqH7usmXLLsESpCag9ZrVIgitRmQNge0B6zlpRXeJwNIcFDdvtYvlAbOBii5lqRZBvd52CIacU+WALn03w4sYCe2vphJaf5mbwkho7aQuyLid+Z3XQepgniDlguQJ0l6QevDRKuoGQcCUPIKAICAICAK+CJBbLEiA5PUVkM5c09/f/9qSBBYSyUqBL8kgL8og+fzqqZTulVZtPEcL+/s6vBT6rxft06fevhzuYrFuPQYCm0IGQ5Iq4dIKab1gcvSudc80pJZjEZWB6bA18fZYZzZfg7QakcJ8LsH8HdudU4fH0yqNuC2ZCGz9YkMY7t/ZCgfes+e8n5zX3iXLU4KUC5KnvFb3K796mI5n/xD8vW3lypUKzk1uHx4e5reaBEFAEBAEBAFBoGoEzDu46oJ1FDgYL7NLQWBPpRoBpZGVpLD2doJIWpk/SD4vNQDTXqV0r5e1Vxk31QJu4mI4FF63zl3TrY7ts6bCmM+yUlv/fzoboKT5TmyMumZ7Vt00HVeLsHntW6szCpoTmqy3/ijdR0AJLc133TUVUt+c6FG3T1k0ll7FggTnfea8DlIH8wQpFyRPkPaC1mPy0TsYVmPoTOGGIPVLHkFAEBAEBAFBwI7AvBHZoleu9+L4IW5minjYVrV3znkehKCyTJB8XqTTtFkp3byETV5z9CpjJ7KU2nFJfa/ehDpzeUidujyhd8FTB7ZdVAgMHtzhTynsd4fC6svbC2qcuhII5y7NqnfsFlO7MkU2bwq02ZGjNZvCcvhgu3Eioq4Z71aPZELaBq2xcOA1bOd95rz2KueMD1IuSB5nvW7X1dZj8kN/9udYoblIvIO5oSpxgoAgIAgIAl4IzItqASSvb4VN2G93d3efVnRpqZdZvTrlFc+XnnnxeeVhfJB8fvVUSvdK84unFJY73d+8IqYu3zupjhmMaV1RqheQ9MzbV0Ul8BqURkksdWGveDKvvrIDnrLw4RIGqV0Sj6j3rigoktx20ZH1gozzyXnVKiI4OaCroF7UnVHhfE49DqcKI3BuUUndwHk/Oa+92nXGBykXJI+zXrfrOupZH4/Hz9x99937QWhvnpychF81CYKAICAICAKCQGUE5prIHoXmvwkCe248kVgMS+m6N3zZudlQrdzVYASVdbB+vxdqPeleZb3is6Co1JV8HmzAfnz9gHrzbnEtqaMeLGWS7URgiT9vKhJ2ktjvDYdVN926Ii6FDV4HxjPqDUthBxfnnRIMoZ3GkLtwcXR3Xh3RlVU7IYL/Rxb6woinCoIzOO8n57Uzv9d1kHJB8njVb4+vpx6WxUfv0YsXL345NoBuf/LJJ++11y3ngoAgIAgIAoKAEwGX16czS/XXRa9cF3T39Jztpv/KpfZOUC2g9JmEbY9kXJ25Z7d6HXZxxYG4WWKvHtnWKDEAcew3tmXVlTuimsQacjMB1n72bhF19tK82gm1gjm5+VoDIq1Owq7a1Q0SkFhHtAzXGoTBzQzJeW3i/Y5BygXJ49cO0xtRj6kD6gY3QjpL/dm7grQteQQBQUAQEAQ6D4G5kMie3dPT89+QrBxnJLBOWPmianeJLC0xTEHSdvxgVF114IB68WBEqxFMUwTbxoEk9vejBfWJbbCsis18lMSaQMnjaxaH1F5xeiVrP0m0GWeQI7HgAsWBUDc4EtLZMeDxcDoMV8Sw7lBk+IbQmfqc1ybe7xikXJA8fu0wvVH1FNtaZ9QNYNlgIzaFTQXpg+QRBAQBQUAQ6BwEGkZk6ZULLzHqwZ4JSWRXJQj5smtnIjuezalF0AW9YJ8BdfFe3QocVo1AIbTNOazWex3Kh9VFTyj1VDakklApsIdoIa9et1hp82JUtehkiSzHTnSobjAYKajje3JqZTir7k1ZurMks05S6Ly2Y1vpPEi5IHkqtWHSGlWPqY9H/LYcvXz58jesXr169LHHHrvDnibngoAgIAgIAp2NQCOI7Drs1v9sV1fXlbF4fE8vKawdZr7s2pHI5sIRNZnNqiMWJdWXIIU9eVFEG8TnJq9OIG39kMZ+cUdE/Q4S2R6HiSksE2vPZ6+ARHYRiBslkp2Aif2+9zrnprcs7hFuBjsO9me3A5yHslH9jEDboBRqJYlBygXJU+pIhZNG1WNvgnXiN6Yfqzynrlmz5vkrVqx4YOvWrY/b88i5ICAICAKCQGciUDORXbt2bReW+/59YGDge3jBcFOXtVYaAEf9YsLLqdrAckFelEHy+dVTKd0tjbqw9OD0njW96hP7dKsVWFM3UtjqR1otMgufnw4P7kuF1CefhOQZOtBRm66n6R1xO21RSC0WImsgKR0pnaV1A0pnXwjpbB+k2ZuycTUNrVmDpdt9V6qgwkmQckHyVGiilNSoekoVOk5Q/zo4UXgbrBushZT2r9gQNuLIIpeCgCAgCAgCHYRArUT2paOjo9dCjeBNfmoEbljyZdcuEllKGqkLyw1dVx04qN64Iq4tFJDYdgKB5fzyJqK92P98IqvuxtK4U6WAeTjnqVBYvQiWG1Zhx1unqxYQE7dASTXDs5N5dVAkpTalo+ppWDdwUzWwcvr/H4RcBsnj39JsdYggZarNw77i45newf4F3sHikM7ejDqKyFVbm+QXBAQBQUAQaGUEqiKyiURiP2xiugqbuS6HOa3d9MuvaFKrGhBYrh2IrCGx3ND1lQP71WG9YW3kn3b/O4XEkj3Qc9cmbMP5wtPWRiUvUkTzW88fCKt9E7LZy+t54X1DXWpuhqML3+OTGbUrF1IP5hKganAkgmen2uA1H/Z6guSx5/c6b1Q9XvXb40Fk+yGdPRHqBi+FusGjILSb7elyLggIAoKAIND+CAQismuhRgAJ7CVwJ3kNdGEP1R6sSGBrILGElC+7VieylLhGQCzevrpHfWK/PrhdDWlVgva/ZcpHSFpFm7GfgzT2nnRExe1KneVZtV7ss7pD6tAkpNgdojfsgKCqS6oadAPP45JZ1aNy6m8ZONCA/Dvm2ETnV2kQchkkj187TG9UPUHaMnnQ5u4gtG+kugEktPeB0O40aXIUBAQBQUAQaG8EfIkspB6vhy7sdZA+ngYoYthBrDft1AMLX3atTGSpSjCIzUwf269fnb06qT1UTYHYdmLoAtF6AnoCn9uG0ePDxstNL7HhsvlilVEnALwUxY4SfBEw3s+oarAaNPZBbALbVYhWRWaDkMsgeXw7iwyNqidIW848+G06BO2fDjKrQGxvx+8WvT5LEAQEAUFAEGhjBDyJLF4Eh0H/9dsgsOdh/DCaZIVOJ7IksWujefXFZy1TL1sSU2NgGoZsGIw65Ujq3g9p7E9HI+o3w3A7GwlXJDIFbAIr4CPmpf2QZkOUK1w22J1CnGhfdn0ypA6Jp9X90yH1VCGGTWBwKgE8/UKj8vi1w/QgbQWpp5Y8bBsfUgmqG/T29r5SvIPVgqKUEQQEAUGgtRCYRWT7+vqWQIXgUujCfgtD2cs5nE4lsvTSRR3PIxZ3q68fPKgOxBL5MBhsZ8phrbuCzg44/queyqknc1zyrkxkqIoxgaXx5/eHYEu2cz8AnM9U0GtKsZcDZKoaPIaLh/MJEDeQN5+7MAi5DJInSD8bVU+QttzymPZBaJdBp//V0J89DPqzVDfgmoEEQUAQEAQEgTZDoIzIQo3grdPT0z+EFPYkr3F2IpEliR2DS9VX7t6jvrC+Ry0FmRjjjq4OD3Sp+ngmpL75NLCAWgFJhCESbtAwje5513WF1WHdMDclIlk3mCrG0doD9WafBxNdE8DyHujN+m0CqzQnprEgeUzeSsdG1VOpjUppzvZxvR4S2jOhP9sPd7c3T05OpiuVlzRBQBAQBASB1kLAENnjQGK/Cynsv6H7/ZWG0GlEVktiYTbqLNiH/djePQqWo9SkEDAtA6Tt2D+OK/WLIaXVCnjfOImE816iekEqk1GnQE+W3wLyOeBEyP+ausagr+q5cJ4Qy6bVnZm4ooq2l0UDvzlhi0Hy+PescfUEacstj9c48Pt29OLFi19eVDe4H2Xl1nMDUOIEAUFAEGgxBPD7HnkFJLDX42/PIH3vJCJLEksJ2PvW9akPrk3qzUoiRbTuEmpmcqPXNduy2IBkqRUwxYtIWKXgbhT8YRdo2Av7CmoxdBNIyvy1PE3p+o/8cmt1BkO8uIuJ43h2d0EtKqTVHdkulaElDRedWb85QTW+88Y8QUKQtoLUU2ueSu0bdQNIZ3vh6vbXtbYh5QQBQUAQEASaB4EwpLCz9GCbp3sL15PpnCV2vXCfPvXePbv0Mm66Qy0TuM0CCSGXtrmLPpLPuWVxjSPRGM3k1IaJsDbVNZ8kNoHG0qDNuXmlzq4w1B2pySyY7ASgP21Qqff2jWmnFFMFh2/gultqvwqgarBP+41KRiQICAKCQGciwLceTNlLsCNAKWwXduBfvn5AnbW6WxO2TrVMYMfFfg6zuWonxILbU8FJrCkfBbY3DWe0jqzRbTFpc3WkGsTWbEj9cCSiLSbMV7tzNR5TL9Efx815cl9efah3GF7V8vA0J2TW4CNHQUAQEAQEgfZGQN54jvkliaUe7Mf37VOvX9mlRrDJS0hsOUhc0qZLWnqcSmHPfCUnCOUlrasErBfcm4qo+6YtZwqsby5DEnc53bxeuKtXdcOZQH+4AKls+wSOZQg36QthDeKS/hF4WsPXqZDZ9plgGYkgIAgIAoKAJwJCZG3QGBJLSawhse1EeGxDrfuUJp8ewf7vFFQwKuklujXE/BPQ3PjNuCUd5TL5XAWqE1AP96IdSfXYdE4dD93cNGyyzjV5nqvxVKp3CDfrUb1KfaR3SMhsJaAkTRAQBAQBQaBtEBAiW5xKktgoJIVCYv3vbUM8R/KwPBCubZGe6gU3jmLjFySlJJtzEdgzSo6/tDOqNo5l1QFdsMMayetNUXPU5FwMI3idMIE2AsnsMX0hTWapZsANYBIEAUFAEBAEBIF2RUCILGbWkNhPHrBIJLFV3OmTkGzmi5viqiims3ZBJkqj/jTf1QX91bmgW71Q5P3FiFI/gecxhsPgFYuWFtpdyr4LZJaSWerMkshn22Bzm55A+U8QEAQEAUFAEHAg0PFEliSW4YJ9RZ3AQiLY/1QPGKuTEVqbvrLaniy9hDUqcEqpF/toqqC+NJLU1UaiUbUykkNbHeCNjZJZzM3xA2FtzYAmz4TMNuruknoEAUFAEBAEmgmBjiay2tlBNq/eu1e/tk7AjV11crNmmts57UsIZKnewE1ft6UT6v5UCBvG6q1tpjxJMe2pfnk4oYbSWUULC12FnFoTn3+7tTO9muczklnczy/pzal3JYd140Jm53kOpDlBQBAQBASBOUeggfRhzvva0AZIYmmD8+37LlXnrO5SoyC07UZia9NeDQZzAUQxCw9d9QRjU/aXo9VbPvBql/Sau/b/MqHU78cspw20OpGMRlQf4jtJZZT3M6Xmpw4U1JsTIyqNDXZwfOIFncQLAoKAICAICAIth0DHElmS2H9Z1asuWh3VOrIkO+0WItCPHIA4knqhzRpo37WRm74ojaVVgm+MJWE2rVCyqEBVg3601WmBZJYuld+wKK/+OTkpZrk67QaQ8QoCgoAg0OYIdCSRJYk9ZkWf+vg+PSoC/cF289hFSWwa9l0/9GhWffbRabUN9qdIaBstoaUUOwzrA/UESmWfhOUCbvpK1FeV7galsTfBa9id49lZBJ5zTWLXaYHmx2i94MzBlDomOgFi23mEvtPmXMYrCAgCgkCnINAA6tBaUJHE7tcdVp/ZrwdLzSEtrWqtEfj3lmRtWdQSMX/u8ZQ6/f6U+hnUJLmLv1FkFt5pGxpuGs4qWKStq3+awEMa+9/jCd03kmQJStssmMZ8kciftySt9g9PC5mVG0MQEAQEAUGgLRDoKCJLEtsXC6vLDlqm9usKqXGwsXakOoZjvmAwqhLxuNoK0wwXbp5UX3l8qqFkdhs8ezUi0BTXral4adOX6X81dbNMEh8mf51U6m5MdFRIbBl8nKkpqBgMgO2fv3hKrQrDRTCk9hIEAUFAEBAEBIFWRqBj3mR56Et2YWGZDg9olmgXdnS3c6C6xEGwPNUTDWtTVBzrZ55S6hvbsprM1jN2S/Kp1GgBnrny9S/WU3I6BSZ6w2RcqwPUQo9NmZ9NxFUKY6elAmfI1SnxddbXitf8eNsbAut/7RnTElqxZNCKsyh9FgQEAUFAEDAIdASRJYmdgl7gO/aacXhgAGjHIzkc9SKXYufTmkhWpcNRFQ6HFW2pfuHJnPo9PGpRZ7bWQGHnOPCcLDT29tkwlFJ0s1pt1yiN5Ya2LXCZe+tYHrq2s8dGaSTMykoAAvT+xY+5t3WP49MOzihEei33hSAgCAgCgkCLItBYJtKkIJDEcnPXeWu7tTpB/TLEJh2orVu0stSL2V3cAzl0FrupELqghTqN5eSLt6TUU7CcVas1A0pkp+DRazydgf3X2aRRN1blf1Qv2JzBJq2JgoIKM66qC7RKsAGbvEYw104izGtKaUcx8Q3qbnWda8Lc3Kj3yr60emFsAnMJs2RN2EfpkiAgCAgCgoAg4IdA2xNZ6sWuiub05q44CE27WSjwmmCSdVqbGgiXU8JkqKB1Zr+5Pa+6azBHxdro9nQX9GMp5WxUMBuzrp9KaJNZ1dBjmtyaQF/+lEroMTv7xLrTIN5Pw5AqHSWUI+LM3RnXNDdHDfF3DVqbv2iyTIIgIAgIAoKAINBqCLQ1kaVKQRJE7uJD9iht7mq1Caq3v9jTNiuQwF63I6s2QvpJO67VBhbh8jTVFwwBrbYOt/z09EXVgMczIZWoolv0Cnb/tFJ/n/Te5EWJ7BOFuCvRdetLJ8RNAxNatzhrYErrUXM+JQgCgoAgIAgIAq2EQFsTWaoUvH3tgHrFopB219lKEzOXfaW+7Hgmp67ZbqkcUFWg2vBItpZSlVthv4aw5P3HSVhbCHhnkntRReKWqQg8tblv8mKr1A9+PGWJkKvgyJU73Aap/CA5NFlQb+oa0/qyDRSytwE6MgRBQBAQBASBZkcgIF1o9mHM7h9VCg7rC6v37pnsGL3Y2Sh4x1Aq+wds+to0ZZmtCiqMMyRw61QWEllz5d1OtSnhcETdNjSlpb1BqLJRK7gj7S9tfTAX7xjVkmpwHwd7pb7sUeFx7RWtmrKSVxAQBAQBQUAQWEgE2o7IhiDVoyR2IBFVnzx4uTY11Sl6sW43Eg3huwVKP+m69AdPZ/Vye1BKSnJJZwjb58h8WaKQU3/JdKmH0mFsJKu86YtDY54nsHHtoYlMRduxUZgJewRWDajbW43aght27RZnVArOXpxRK+ETzly32zhlPIKAICAICALth0DbEdlC3locPW9djzq8ByoF3NXSgcEQTu7i9woJuJfdMBGqSieVlpqoW/lYLqpi2DjW6ECd2wlszPoDLBDE0JZ376005rltOuZqrcDeN1ouIHGHwQa9Wa3xPbe31lrnxJgb91bFCur0XniUQLCeIn0q/wkCgoAgIAgIAk2LQNsR2YlMVpvaesvuSUUTQ50c4NBLOy3wwiAMKSV38m/YOa0tGAQhdyTIT2VDansqp4mmV931xt82ktbL3H7qBSS+f5uuRHetnjAf7cjemYITB2T3L1HvCFqv/Dg++k7qy6vnxSa1Sa7WG4H0WBAQBAQBQaDTEGgrIpvL5dRgd1JdvHePtiXayUuklECOQE9458S06vKQnBqLAzdgcxWxor5ppUCiS9Nbj4MR7gSZNeUrlaklLYm+35+Nq83pUEX1Ao5xF/arPTieDmyNgLq03PPlR5Br6Xerl6HJNqrhvHUgrV3YdvLz0+pzKf0XBAQBQaBTEGgbIktTW1zyfve6fq1SQFecnSp1M4STTg92QcpWiXDSScLdU5ZXLJJUv8Cl/LmwWGBvl/2dxFzePhnydNrAMdJawaPQe6VZrSjK+AXqxj4I1YLHgYuf/q1fXe2aThWD1dG8VjGg16/OXtNo11mWcQkCgoAg0D4ItA2Rncrm1BGLk+pdq7q0lYL2maLaRsLlc25uIjGpRGS56WsMprhuh3tYmrwiQfQKpIokNveNoeI5DrRecNNwRvffS1IcRm//Nh3WXrsiFXtudZZ56DiBOrWy4ct7Ascgmn1hT06sGHhDJCmCgCAgCAgCTYJAWxBZ7fggGlEfOmCZNuxO4/edHIxs8l6ytoDhlmlrsd2UdSvGpXzaan0wa230qkSQ3cpXExfPZ9WWfEJLT90kxRapDqn7Ml4017u1W6BekIW0sfqS3nW2UwqtC9MD2tvh9Ytm2kTFoJ1mV8YiCAgCgkB7IdAWRJbS2JevHlTHD8DQP5fS22uOqh4NKSl1HR/k7qYAgdYL7hzNan1TklWvQLUCs9GLeQpQ55irYJwj3A07t26SYvaTqiTV6Meyr5TE/g0EfwuEylQvkDAbAd4CY/hg2Tuh1GuiQ+IoYTZEEiMICAKCgCDQJAi0/KucG7zWJKPqfJjbmoLZJstXVZOgu0DdIMnbngurh8cznhu97F2j9YJRbH96AG5eqXfqRk8ZF0caiSU3evF8PsIDaXdJMXViNalWwfRjTV+NesFvxiOeYzV5O/nI2Z0GmT1tIK/2VVPiKKGTbwYZuyAgCAgCTYxASxNZs8HrzH0Wq3VddIQgZpVIOLuwHHwPTFJthf0tSjb9grW5Sql7J7ydIxjaWo26gl+7funUk70PFglIqOxWBjSphiUGOk2gqkMQ/Vh7W3SO8Id0Ug1BF5RSZgnuCNCZRn+4oF7Zix1yCMEVVdzrk1hBQBAQBAQBQaDRCPiznEa32MD6zAav16603NA2sOqWroqTegdUBaoND0Ii6xUo5aVziY3YXDUXjhDc2uWGtafyMTUMpw4RhwSYOpwPwzxXLSESiagtE2l1y2RYdQMsEmMJsxEgunT1zI1fz4ymRCo7GyKJEQQEAUFAEFhgBFqWyFIay2Xwt64ZUAMQ13WyG1r7PcQNTNzjdesu6ABUGbiJy5JwlhfUUl5gTeL46HR+3qSYsUIeDh3CimbEKHU1hJMEixuQajUDxrqykPb+73QykP3ccjQ668ps/DqjZ0LFIQUXqWxnzb+MVhAQBASBZkegZYkspbEnrOxXr1qR0Bu8mh3o+eofNzDdD8nqlmxEW3AI2i7tydJb104wF+eGLxJHSkdvmYpoCd1cWiuw95ftpLF1j2bEqALAfjBQzaCWjV66cPE/bvq6Yzyv7oCt2h5UaEiyPY+cW5hPQX3j4KRSx0QnRSorN4UgIAgIAoJAUyHQkhaIjLmtt68d0ASLUiNDcpoK3QXoDDdhURo7BtezfXG7ZmnlzpA0jmIZ+YlMSO0Rtzb6GExZC/WP6TZ2vpHOYDPfk7kIbOGic0W6SaK9Ix9WkwXTw8pjc0ulVDYFSvyzibg6oicNU1wF7M6X4IYAn68cVkBe1Qt1jJEerH6IbrEbTpXiYOHjtUg/oVIeSRMEBAFBQBCoHoGWJLKUxr5sjwF1bF9IzG3Z5twQzt+kkioSqU61gEQ2BasP2yDJpfTVBEoqk4i4PxVSmyYVdEoZY8tgMs7hcXuBt6lFM9k61WV3QLdgDPTT8uhVmzyVS+V/moyov0wodWSP5dJ3fkc2h6A1sGpiwg+ZZ3QV1IsmJ9RPprpVLPg3UgN70tJVkcS+vaVHIJ0XBAQBQaAJEWg51QI3aWwT4jrvXSoRTqgVPDgyFcjsllsnN49aO74MoeOR0so/TEACik1X86VWYPpGywVD4xOQCJoYSxpIdYNJkKtqLRbM1AJCTKks6r12qkd0Ze3AeJxTD/3UnpTqhUhcnCR4gOQdjc9ACYKAICAICAKNRqDliCylscev6BVprONOIOGkJPV3O6YtM2SQsNYSntbSz5mSXMaHKqn67fDCLLxzTI/lolon1ggBabGA6gaNCEmId28bV+rGiYjqQ5U2vtyI6tuqDkpl94lDKhub0OoFbTU4GYwgIAgIAoJASyLQckQ2CVe0dt3YlkR9DjpNwkmLA38YqY9wbsuFtPSTNJGkrgdM8nYsvT80mVPJEJjMAoRJWC4Y09JgS6mBvbDUDervDKWyDNeMd2szX2JX1htTIkUJdhtIZfu8RykpgoAgIAgIAq2EQEsRWZHGut9aJBg0RbZpKqQ2w3Z9F3Q/aw2jhYiWfrK8keleD88BGWysmm+1AvaBJrjGoEBAk2KWPqxlau3xTLhMl5d5aw1dIOgPTeXUz0bCmrjXWk+7l+P9QKnsXpDKHhWBukfpDmn3kcv4BAFBYKERKKSmVfaxzSr31GOlP17nd25b6K5J+wuMQMts9srlYb8UYL1x3WIQmLzsMLfdOCQYlCTeOJJXEJyq3hrFivF8FpYAEvgrqG5gnESd98JD2O+w7B5bIGksh0kp4BjGFYU1BUqKqRu7a5Kb2XhHNCbQHNePJxLq+L5ptQyNTEEflLhKKEeAn0h5IEMLBhuGu7Vd2Zb6Gi4fjlwJAoJAiyCQ2Xy32nnhGSoUnaEt+alJ1fPiV6uBd1/aIqOQbs4FAi3zDsrg5XnI4m71gp682I113AlUK6C71V/vTMNaQe1TGorF1Xg6o6ZgvYDST5ry+tnOnBpNZzVRdjQ7L5dGCkyvYgxaZxeqBrugy2sktI3oCOt9Ao4XrhuLqwQgFBLrjipxoV3Z9YmCOiwEXdk6TKC5tyCxCi6UzR+lUPzT1wKNINDhCOTHhhXJq/krTI6r/Phoh6Miw5/5tGlyLDKQkNGLVzd0NneKtKw0W6R31GO9YSystqbh7UyrFdROwyZBUsZBFNdBKvnAdEH9aqSgEnWQ41JH6zihxQLtphbDggqvtnebDYFtWty2jprLi1Iqez1wPBWmuFZD2EvJb+1IltfdTlegWTqcBvu7fxmzvH3V/vnUTsgEG4teIn0cS6TbHlf5kV0qt+Mpldu+VfElXUin8AfymoGOUAZfVibEYioUS6hw74CK7r5GRVfvo6Jr9lWxvQ9SoUSXySVHQaCtEaCwhX86cEMzPvJK1209chlcJQRagsjSi9M+PTF1/NIuNQ5WI+RiZkoNFtdDGpuDJDUUq51SRKCPSoJoufsNqaufysLTV7hoO3amzYU4G4EDhEIhB7WSkHoaFvmLAtqGdsVItr87llAXLU1p9YKGNtBGlVEq+6zukDpwKq3+lk3UpZfdRrAEGsr0Lb9VQ5edDftvuKdzdDeBDyZ+mDEgTv9ZV+X/Q71K4a+A55Qh1AV7vqv2UolDnquSJ7wCpPbA8vxyJQi0GwL6GcCnNMwyNlqQ0W5QddJ4WoLIUhr7z3suUrtBSrZLDFiW3Z9c/n8c3rjuHM3WpVZgKqVTBGqiboIK6q8hjY3VsXHM1NmI47asRdlpZYDS2Sz0eClBbXRgnTeOh6EDGsLyOXVz5cPJDWPSrx7cG8fDFBeJLO+a2j+h3Fpo37hCBhJXENhw7+Lyj3JKmAKEEO59HaCCkHnkAZV+4G9q/Bf/pbqf/0+q7w3nqMhuqwPUIlkEAUFAEGgPBJr+3cNNXoOJmHrV7nSNWZCPMMd9l8QMbtg5rdUKeF5voBoB9VG/9lRGL63XuG+s3m7MKr8L1hS4yYg6s7QhC345J4FSWVpI+NF4XFtFCEYt5qQrTV0pcUkBp+eC8K9UWA2Yo/loahDq6Rwlr84AcmupFkC9YGpCFSbGZv54rdUOoHJgAqRSoa4eFR5YrGMmfnWtevp9r1TTf77B5JCjICAICAJtj0DTS2Spp/ji5T3aPeY4CJYQi5l7kjv4SSBumOQ0wtVVnYEkkV68rtmRV3+D7dhul3dtnU3UXHwaCv70McZACwZzGSiVvQmWGiiVpQMAmpySMBsBWpNYFi2oIxIZ9fNUHDYkhM3ORml2TCgGnVYukdoDN3ghhPsGVLi7T5PTUHxG95V6s1qfduhpVRgbsUpCN9boB2rdQRDa/PBOtesT71GL3vcZlXz+KVY++V8QEAQEgTZGgMxgSTOPL4al81OWJ3UXuZwpRNaaLVKGOIjm/amQ2jicVo1c3L0DJJY3hrEYYLW4sP+PaHUCy3sZpbNzqSClLSPgC+GXo2F13nISWSFobrNPVPgh9cKulPplyjLFxZmRUD0Chekp1fvPb1V9p5+nC4ewuUvrAZqqQHQL2PyVB5FN33+Xmr7512r6LzeqAnZsh7qxO5E6gwjUmy1MgHXF2gAAQABJREFUT6rhz1+gIst2U/FnPNvUIEdBYMEQKGAjY2rTrSo8uETuyQWbhfZtuIlkbrNB5iavNcmoOmlpXEvFhMTOYEQs6AThjzsm1Xgmj/0hjZtKSmWbKdBNLR01UC+WxGlnPtIwZwhe46RU9rdTca1/TJybCxGvXs9vPO9BbYoLgsMDo2kxxVUH/FpndskKbYFAWyEoEtNSlVQjgASW+q+UtC764OfV0k99X3Ud/SJVmMSXZ1Giy/xUN6AFhJGvfNQy3VWqRE4EgflDgI4Kpn7/CzX8mfer7We/VO04/3UqtfGP89cBaaljEGgc+5kDyMwmryXYiW/tpJ+DRlq0SspfqMv5q6F8QzZ5NTsMdFPLvxzIbHZqfM67aywY/AJSWZo0I2mTMBsBLogTn6Pi9au2zK69w2Ls5rYCDJ1WChZffLXqfeXbIYXF7swSmS1ARWFQpe/7q5r63U8C1CRZBIHGIpC+62a1/ayXqF0ff5eauOEHKgeVl1Aiaa0eNLYpqU0QaN6Nxtzk1RcNQz+2W0is40aldDAJMeX9sJNOl7SWWoEjUxtdGje1oxDH0i0qpbPzESiV/UM6qa0kkNhKmI0A70U6RXhOV0ZxsyE/NCTMLwL977xQJY95iSWZLTWNjZGRqJr8vx/bCG4pUU4EgTlFID8xqnJDO1S4B/re/YtUKA4TMA1cNZzTzkvlLYdA00pk6cnr4MEu2KpUiioGEsoRoNmt3+2Y1i5pm0mXtbyXjbni+IybWvh80JLZRnr18uplGO0+DKcQd07AZS+eFLkLZyNFfs/ncy1slD9LjYt6wWyI5iWm93XvVqHefujRGsk4VhG6kiqz+R6Vefjv89IHaUQQsCOgNyJSRYYft/xzbnC0Z5ZzQaAOBJqXyOLleNLKftULyaOYji2fYZrEGs3m1R9G4CBggb1ulfds7q6oG0uzYJT+jcHO7XwE6uYyXD8FaQKCCGU1DK7/EaujEoZEuWaRyDlEgGoGXYceqz0dYZem1RJIRB4mvDKwMytBEFhYBOTXc2Hxb+/Wm5LIGrUCevIS3djyG5BSQW4+2jQV6gi1AjP6PPT/6AiBkln+zVeIwnrtfemIokMGqhpIcEdgGl8ah/eEtAtpUS9wx2iuY+PPPNLyFOZQ78g+9tBcNy31CwJlCGhVgrKYefzRLmtXLjoBAcswZ5ONlGoFh0CtYD12Q3PZUvjDzAQRC6oV/HnXlFYr6Okg5U06QkgVN7RE5mmhn+bfSGJvxcbwUwdwP2J3k9yPM/ejOePHxUrYlH1mYUzdUuhVSQHJQDNvx+jua0t2ZU2jdH2bN3ZnTWQdR+5Ezz7+D0h6R7U5sPj6Z9XsSayQmla57VtVftd2vRmIHs9oYzfc06vCi5ap6PI9VAib1hYqmLFyo5LpWwTmo6JwCxyGhYlqA01QZfBRQVu/+ckxXTwyuFRFVqxW0dV7V1tdTfkN5rltj2EOx8vGFVmxSkWW714y5VZTA/ZC0NEuC9CRNXaPy+Ln8gLvi+zWLYrjzQ3vUAobKulAhGONrtpbWwKZy+ZN3Zz7LO713LbHrbnnxk6Y2CvN/x5rG4e7abSZj8V54bNvfktocjDc06/nptr70HGnNcfIaa3gmGW9Wq1AXNKWzwkX1cch/ZpRK+iML90wlkm3w2rBWG6OvSGUw126ugtuWE9VeNGWYuTEjgDvQroPpnrBLdhAL2H+EQh19+LlCGVlfuxRN7EY6CXMLZDUjH7tUk2sVBR2axmyGUV9W6oq2EP63tvVxM+/DVugt+j81MVlvQPYaNb3pnPtWSufo2+pO/6opm/5rUrfu1G/3OnBzKk/Sdu4tLwQ2+sZquvIE1Ty2JPrIrXUFR77zpUqVBxnAeOMLN1NDZx1SRlW7Dw9o0397qcqdd/G0ljNoLiBLrx4meo67Hmq5+VnzMLJ5LMfid3kr76vUnf92SLssPNrAj80woOLUc9Bqvuk18yZEwtaEZj64y/Rh5tVDuShMAkSC09yJuhx9Q/qj5LEIceo7hNfFZhcp26/SU3ARbLBlvdSbseTpurSkTaOufkwfe8d+j4rJRRPOCec84F3friuuWZ1/AiZ/M2P1NTNN+DD62Ftb7lQmHFCwr5EQWa7nvti1XPy62v+GHOOwX7N5yu18ff6Xko/cJeee4U4E9gf4h7Chjh+tCWOeEHNfeF4R7/1aZuOPFrhPQ6C3H/6+2fd46YPfsfS3AIvE2inOvnCl9d0r2Yf26wmf/sjlbpzg8o9hY8p2MFW2Zn7UEXxfEHXP7KENrAPV8njXqbiBz/Ht/9NR2SpVsCNNcZaAV+QQh6sW4hY0AnCQ2lsQsqEi9YKOgedxzFm6slaG73mj8BTveCOqbDakQurvlB+XlUbzI9Hsx95F1J/+SD4LunG/ZnFcxwxuprN3vmF6N9c7OCmlIfkJDJDYvXQDEl1GecUHCtkH31IhZJwqoBActqFl4edyJIAjl33/zT5IVnmsjGJQB5zXI2EjTZFx3/8VejsbtIvXG0vly9ybEqzE2/dERBeSkJzN/9GTf3pV2rs2i+onpe+QfW87A01kRw6kiCJ4jhJHkniIkuW65e8kfryJTv69cvhbOI32JuEsWGMZqy6T/wP/aKEm+6AJ3//P6rv1Wd6EnlK4djvcZA8EkeNHebGtGfGmYfXwtTGP6hpEMIumKoafM9lDSNWJLBjP/iSJtEkVsTcGhNMYdk+dvS40I885iZ9z0Y18cvvaqz7XvWv5f0tATFzkn1iSxm2OgWEhPjZA++VzMP3q8zf77JHl861LWVIvPvfcl5d7/yJn39Ljf/oqyr7xCPW/Yl2+WHkHC/7Pfbdz6vJ67+vev/lXTBj985SX+o90ff6D76IzZb3ztxLfC5B0kzQb27cT3Q9nXnkAZWGLjtx7z3tDN0f/XyYzD7HPO6vyd/+t0VkKfnmSgyk/vH9D7WIrE95r2T73Jo8/I2I7r6mKiLLe2/smk/DFNsPtYdC/bvBeaE1C/t9wueL96ENj/iBz1aL3v/Zis9E0xFZqhUcMJBU+3cVoFYgJNbcPDzyxqdawS0jGe0EoZPUCriZaNfklHqiO46tXvNHYok7rRcMQci1GRYMjoAeKPVB9Y8QEyWUEOBKyirsRNwnNK3+VkiIekEJmfk5IfHT0g3bi4GELAIJoleIDCxR+UUj1gsFurUFx3LwyFUfVuM//aYmYWHknbHdEfwJoLRo5MsXQyL4v3iY8JIFcaUUqhT0jnbbSgsJFgku+0LSjPQc67j6MjX1h1+ogXd/rGrvUCSR2gwUseEHFsgD7ZqaQKnpEFz7ZiElosko3bZJNEf2E30jIQoBi0ImpUavuQIv5p3o06Umlz5S2jR0xXshefqzhR0I2qxgq0+PE+R6+rbfqZ0XvkUtvuirgSWis+otRpgPEEoBNZErfqzwY6fAlS1goIPGGmMiqSjiTXJFkkfJ2aL3X1mxL6FYQrtVDsG9clng+BzBtOGIti7RZpirCjUGkqXhKz+gCR1JIFUIShsfTZ2mT5xD3Av6gwzEaeTLl6jslgfU4LmfnP1RZcoGOLIPfGYmf32dda+TQPM+ZrskrbQqwo9NBjvuEEuxL8Sd91T6vjvgZvqKwCosJIZhSNRZnvUyhPkxYfP6pyOr/K80tyTgRcEE5dqhZPB54vO/6/J3zzwL9nkhFsQF92OIRJ/zovsPPHC/kjRzNWXGGov7AJpusxdfhocs7laD0P2E8E2CAwFwKLVxaGZ5wpHctpeUwtIhwpbx4o/vPI6UJJrSxjtTEb18HvwVPo+dbIKm+PNM5wiHR0S3YCGmI/vog9ZycfGFY/rgpc+p3eDSFS5fJuYFDykr9UEZSIRIYsMgKHyhlYV88WVcFjn7gi+hHR98vZq86ecWmSJRwcuK7fEllR8d0tJKXbL4Aqb0Uscj3fSLL3kSE0q4dl70Vu0xanZr3jEl0oqXpqnTLK1TErvr42dBf3ErxrpIV2L6pvVZqSML9Yfylyk+ZkkegA0xGv/vr5YaJ4klGU397RbdZ+abVR+kumX1EX/goscIadQQXvyU6NYUMEZ60yIhYgj1gmCibpIcjStIA3V9Y2v20388L6WRCLEMxwa86VSDfeGYvAIJPaV/GiPixL9iPc4yjC/LZ/JjrrW6Q6r63w4juRz+9LmaxOr7laSQ6i/A2cyhHjvVOngP2IKZR0rZR/GxVGvgfO265B1aWq8/HPixRtx5n3MucU51htg+B+q/SrjrD5qPvqOqe4BkUH+gmGe51oF4lWO9xboLWRDyAIHE3pBY3k/EmqHsfsNzH05a0nuqLXC+eI/o3yWoHXQd/vyKH1Ksz6LuPGuSwM01zxss6ms1SZ+apRuUxj6N98e96ShWD8ny+dcZIQzJ0ng4qjZSTL9A4b58F5QMqG/YObhXC3UWsur94pij+f/eqLarbZefOpj6pW5eZHhh88UR3+dgz7HOEFR+noFc4jljILmjOoHWuyXBpBQP3sNI/rTEBJLVAkhHGRnTJWf+I4nli10TREphikETDLywSKSoo5g4+Ehr4w0JH8hH9vHN0MW9Fbqqv9ZLrlpyVnwBalu5IAZDn3kfxhZD+ZNMtf7HIlG2Z+QGHEqLc08/qfUzC9yEhbGRbMT3fSbIHEgeXtrZRx5Uqbtv08SoTMoFckKMxr53lep6zgn6hUtJLG338sWt8cHLPLrnPnqZNwJdSIbs1oehK3q7xkZxub84PqZpr2xYZiYRdUp6me4Xhq88X5MpEjqSJz2v0EUML12huk95o0qe8Aqtk6ni2E3NkJ7Wm9CmocIxAUkiSYSedySZvgx//kNqyaXfKtbHQjMhPLBUz6Epw5T8yC5LT1a3b+UlFiRyxMUtkBBHFi23JMNuGWbF4XeYEn5Ikce//0X9scQxaxINAkTMqSITWWFhnt/1tGVXGR8K1Mm295c46Y+Sn3xDxdYfWtWyObtlEbZ/0xL10vjwrND8He/z7pe8Rt8fnH/etwWqARVxpz421V6M+gnrYx1U8Rj+3AVq0Ye/zKiWDFQn4KpECROMguOknnn3P79V679HsdmRgfcHN8PxA5C/ZZRK8wMpcdQJOr3Sf01FZKkf24NJfvaihDa7Rbog0i9r+ogFPSfdNl5Q26bSKqH14DoLnQJe0NvUwnzkxCFpfASqBbtyMDGFc1ktmP2zwruRVkb27gqrlWNptT0f06ows3NKTKMR4KYM/vDrpdti5XyhR7C7PrbXAZWbw+8uyU4p4CU7/sMvWy8cSusoGUUe6qp1PfsFmuSRBPCFxB33boHLiVyqJ4kl+TSBEhf2se9N71W92CxVpi9azBTZbbVKoB3qZ4796CtqHOSCLzlD9vQSLNoe/twH1dLV+/hKa1htCKRNL10W2zDnlDpTN5HqBAWQvdjez1B9b/x31XXUibNIm9kwRh1aO5llv/JjQ9jQ9T29FKxf3CRUxRd2/7suVsnj/3nWDnlK8LQ098dfKxuf7i/wJbnpPvl1ZfrKxe57HigZpmRxhsRi6tAO520A/XC1jgAiHX/Gs/UfSe7w5y/Qeqxm3lgXJYTjP/m6qx5p8vmnzCJ+1BEd+tQ5erncdJZzT0LXSF1UqqlM/+UmSJp3aWJamIT+Jghs72vepZJHnjj7/sLHHTcbjn7ns2Vj1H0sku5x6LZy/o2k1/S/0pGEjRiVCBvaYV96sIHPbfNaKIEPDDvux78cahHna4sghmAT90mo0iR+e4LefFep/WZM4/NCnVgzHvaR9wCtfiz64Odd72s++/FnHa31zvmbNnn9D1TioCN9h9dUqgXUj31GXwx6dvhYwW9rZ9G0ynNlsNg4nIKwC1IAx/Jh5dKS2ggEhkBiKRGnQwrba78RVbdNHST4i7FasH8so90Jt83AmnggJESj34BuHwmpXQIGSWDXc46f/TI3Y0FeEjwrWL8wJInceKSluySrkCiFQWYH3/dptfSK61Tva8/WJJPEh2TTlRihQu6gplTSkCG2ocko6l903pX6ReVGYq2+WP8zvf+M89UgCBgDy5vAlyNdoFKaGjjYsCFOJJrTIDUktZScdR39IrX0k9daUl573mIDlO4tvvhq7Ng+Tee3t0siTGnm2LVXaRJJ6TVf2Es/ca0mo26kiOOjxYeBsz9qLaPalrwtcjyipkBmgwZNtL/3BYs4FPtPck4Su/gjX/OcK3v9eowXfFGTQZIOHVAX+z/+46u1NQB7/orn+gPJ5MD9VXZt4us8om+0kKBVFtBfPYef+J4mfq73F/Lzvl166bdV4vDn6Y8Xew94X6Ufultb1bDHVzon4Rr/2besj4diRk1i/+lNeG6u8H7+bJXyeSK5o6SydJ9jBZKrH+M/wEclVRNaLKT4gYF+mw9Qo9Ix8K8XupJY5/A4T5RGk9z6heYiskWzW91QSizXYvEbRvunc4GI+rF3ZxdGItn+CFceodGTfSwT0kS2cu7OTqUZrn1j1hJ1ZyMx96PnC24I+pDUHS2TfID0UTpEiV6lYJfgMh9fOtMwGaR1+rA0Glm2Ui356DerkghpSQp2UGupoGmcJA19GnjXR6pTB0B5jqH/9PdZXstsZI/kkaSb0j+/wHGFsPlF6xCazCRoiCfpiB9wqN5c40p+TP7icRDEk8vFJaLHeNSldfqoggFdRRISEhMvom+vkqauejBG9mMmhDR5pLSRy9ZBwvh1XykjDlr6BekkNw25EWmvOkkc+s/4gJVcxJsfOFS/mLzpZ17FFi4e2OsPERKfC/AhEcDGL+eZuFDtoGweiwKiaZgqCxSAzxjUGvQmSxBPBn480GSUNu0WqBIrEz8i+t8IU3al+YYeNog1LRpM3frbKmpqjqxUEbA2blkfyfzY4HMTP/iohnewqYgs9WPXd+MLC0vIIvEqn2s+X/BIqx4eh224DnFLW45Ac1w9DNNSDNb/zdGnZuoFn1ton6kDIJGlOoZ4+Zq72aGO5Y4Pv1lNwe6pXfLJFilt7IE+JF+OVQeSMgSSXJqCqraO8R9/vSgdntFcI0nrPvGVVRFie7+5HK0laHayx35CR5ImvYy0x15m1rmLGTItJcbO7sH3XB5IcsY6SYJ6IG0rSc5MQ7o/6BOICAlJNbj1Qo2C9mRn6gSJAf5Z6AxmNt9tWvA8UhrL+4DkXgcSUEhA+9CPIMTOWTF1jxPPeq7WizZpJP20GhEIa1NoHo7ELAryzXu1GsJOXHpfBZNbdjum4B4k7bT7SvUYv6DtId9zOwgnzdfh14+4Q3rd/9bzy1ZH/Oox6VRBoXqLnVzTlNbU75rlAyLYm48fX7mnn9DPpzU2lMP9GIYDkGrmyODid2waIkv92P6uREk/NhhcfsNrj3SSAy5nP4qVte3TGRULuGO4PUbfXKN4JGu95JurV83TGz631JPdIx5SSwpQL5Av0kCTo22b2pbOvQpRAkuJJ/VPd/7Hm7WeHzfk2AM32lClQBtCtye4nGsj9vjtdQZKuLqhL8nlvWoCybWlllB8saMwiQZJGm111hP63niOJgl2IkUdSdqlpd5jpUAS5hZIGJLHvrQq0sl6ksecjI1JS23E06qd9ZGIkJBUE7ReMCVVlMYZtTEQY9bHjWZ+YRJ6sfx4sVRLQpqAxvY7GAblT/Yr6pmePO6lmnyYDCTW2g4sVEaaKgCzntPeEmgJ2tlvziM3wc18QAB+qJrQ3FsW3sD8As1saesXWhoL3PGhlcSzR1WBWgJJXtfRLy7rD4mxdqhQwXJELW3Nbxm8CPDRmR/eEXiFoZr+zXwyV1NqDvJSP3afRFjtjpXzjLz8ZiFMiwWPgMhOwwQVhNYSFgiBnfmIvj85Bfj2luCCgNGTXRNOqyfz7gTCpVhHR1GiM/mb6/SuahJTLk2HolgOBwHLT8EcFXZc65crdvTzSCkSy8xIYinxwC5pmBtKHPJcvWxq15f1BNdFSkmiyD74qSW41cmd75TGUKpVCrjuev4/BVpmL5VxOdF6uQc9R6X++qcZNQqSPSznk8hWS7o5TuJLSXG1gdK8KDaacYOd9qbGCkBASYiIfy1Sp/gzj9Sbe2g31wqc0zxs2z5avHY/6I8bOD6w2uSnJFY0gUnyaFh0oJS4xhAH1lrSSCljUdpMc1bpe/5SNfGvsQu+xfRHEq0xvOA037xuGTiPsTXrtYoKbehq81IcK54vOgOoREhpkiwN72/WvW7mDCYIj3uZW1OB4xLPPKq4JG8V0b8BMFOXvv8ulQygLxq4oTnMSMsM1r0z85GsP4Tg3jrz97/qDV2NbL55iGzRfmwvlBHFLe3sKaaXpM2j1dvYm12TxNSKAD18YZ+2msbXd6SAXV8zv121Vtm25ahTvCaaU7fM7M9p27E2ZGB4eVIvdfrW/7MkPC6Van0zEC++EGa84RSJC+14grxQ19Jtl7RLde5RJGPYqJQ49NjqyQoIj3YAAAkSWB3+8IBoEhTWm3DcG6wutgumeOgBi7WbwBd9CuRKE2jdtkmpfKQua3T3tSoG70e1hOjKNSq96baZokUCSoJbS4jtc5Am1hZmIFMcJKVY+IipFDL/uE+TLn1fFDEnuaLL03oCTUVFlq7U6g2WVyx0CP2hJ7jmCOgPPhxIRGtRnzBjiK3dz7qnSh8QuHPxLOV3VFYtILHMD8NaQtEqhyHViYOOMFXXdIzQRJlxbmD7EKGd6JYJ6DfN19EOMX5RrG5zLNCTHYbDCC+rBbWOr2lUCziAZ/ZaX4/CD8qnk79n1DXcPAnyJGHBEKCHr8lsTk1mYFB8wXrRGg1TpeCAGDYLmR+x1uj2wvYSP/T0eEUPVFoqS8ms+UMc0zRZKW4qIeGh3VMSYG3S5gNXBt4lXWmgfInH9j2oUhbXtOzWLYp2WS3PQtavuNn4FF9/iGuZaiMThx5n6YGSIJuAnd1suzA+YmICHC0SxA1xtUhP2YDeYV60u2sa5McGN8jVEuiMwbgKNuW1q1HMb6WQfmiTtRRdJD2aoNPw/rr9KxXzTSMu2pwU7geLVeN/Yv3EI75l5zNDPd7A2M/Zu+Jxb/ADAishlULm/r+W7C7rfHxu6iTVrCeyfHf8BkBfGh9aViADgJAYtodbKSRhUowfVGVqG7jOQiq786IzFF0JB93I6DfuppHIcqPX/v3QBYFkVkI5AiRNU5DQb8WOeQkLiwDnYQJ/g031CbiwmLi1TvWCVYmQSkxDgoPlUa4oSPBBgMQULy9j49SZW7/YSCqw7EnHBXxJUA+y5yWvg57nyYE3KznrLbvGBzPJU5Dd9mXlcJGDTqE2pg+9VR0455CYUXJZj8TM3s5sKSHJFT6XYOuWOo3xADvWrb4Vu1gyP2ZvJdg5VT8aGShZJnmkeoglAUXtIFTawH+FhuhalXPmDLT7Wm+gvrX9w0QTvAl4JaP6SBXS73r74Vme+t1u6jGeBWYn2K19lKXi3q0UMsQdxN4i+fjBwzl1QOmcwU7eKtXhTNNqBFQlwgeq/XeA7dAzWSsFqmX0vPjVlotrmxMM4s17fPiqC7WdWNoW1rrKQZ9dFxCagshaG7261DqsmKVxP8grr3ym+D4ggRopRIoevXAhYd4R4HL5NFzVjlFlDLrcXImSe9V9GrIAZyncTA/kUmo7nFgQOwkVEACJpfSVIQcXjaVA4oqXGF9qNGcVgacpvRwOc1HxAw5TcS6LFyVxpTL1noA8RbC7uNpA80zaVqitP5Tuksg2KpA8RZbtrqU6SrvNxUPI9kDuc08/1ahmFqQeTWQ1Maqu+eyTj2jCawgV66Ft1dGvfrxcYlhdtZocaz1s1FcW6JWqjUIoZmwpBx8UiXz5rnygD5wy1AH95qfqw53POz8GS88R7nGEAjyBldROgnd1QXP2v+PDWoKvnUXg98uMSd/rxAumxUhox3/0Vb1BtVoHIGZwTUFkudHrkO6wWoat+TmRyJq5KR2jYLI7IeKaSOELMSR2ZEvALMBJFj8u9JJrSRitH5gF6EbTN0mJLDWFZMNXsKmilYCeU09Xfa8/R+WwPM+XFl3AMoQSSagUgMDBMQHdis6HJGzGdW2w/jMXpXdaUmwvAolZmT1Ze1qN53opmZI4W2C72r2sLa4TTkmoLGsFDoksfqdCvQPcf1Z74M+bV3mSqmaQyNY+uvpKmudTf3jMvAdI0LhpzAu2+hptvdL8rVp8wRe0q93Jm36uf7uszXHWWHjOP368j//8Gu1UhFYfel/37qp09JuDyIK8Lk/GtQvWkfLfp9abuTnoMZWl6RqVm4xilNBAYiJhYRDI5/KQjIdVWGwWVJwA/rTTZJxs+KoIk5VItgFipq0U4Ie/lmX9AK3MeRZPnUKnRK/Onszokc4QCFZZyKTqrLk1i+tlbAeh0vrT2LTX6MC2dHt1qGQ0uk8LUZ/2JMZ3sSNobKiS4PjQcmSr7pL6ukb/uySlra6KhcytnU/AQ1cMq0j0DqfdVkO9QJP+YseMhJb3Ld3y0ikLP+y1CcEAY24KIhvPZdS+vXGRcrncbfyppvRvBCKuXEn52yWjRAkCTYYANyiujJgNC03WOelOyyKgyYLuPeVeM2S2Filyy4JQqeNFNZUYHRpgl3gjA1cK4vs9c15WBRrZ7zmpK1uuYsH7MspNdvT65kirt33OI81ytXKgUxOaSRvHJq9JeP6jKhJ1f8vUKEBaqWJFLMe++3mV27pFDcKltd8qVFMQ2QK+2O0evUQsP/t2nQ5hSVtsyM4GZgFipiGVDek1u5mX6AJ0o+mbpIevFfiFsSwXyFPd9BNWZwfDyV7XGrgBrJFBez1yrEpxs1Oou+jVqpGNtUBdWrJF6WBR8k3zaSSxiy++ugV635pd1NZDnJvMaC/5iBeo/nde2FyDwoeN0U1d6I5x02f/Geer3lPfoqY2/Aqe4n5p2WIu2sU2/dQSWujUUh2Bm/lorqtSWPA1am706oLFgjW9CfECVGGmSJ4kCAKtggBpKzduassFcKksrmpbZeZq7yc9JDmD3m1t37zmzFDltd5kQxNfmsgWPyT5oo7S7NVuVdbW+tlpeF7xT4fix6J9Kbr1h9h8I+D9BtWKMD+cHOoFOR+bv/M2GCNjwca8QhNuziOh7QGZXXrFdWrpZf+l7UxrdQ14sisFLZ0Fmf3dTyDB/VEp2u1kwYksOxXBjtxleBa5QUTCbARkx/dsTCSm+RHIQ7WgL1zQlguazFUtRXdiCrjBtxAtHWhzRHzRM9CsBwgmdyaTgDYi5IeettmqtWqkWbIwjNJHV6xuRBOtVQde9pFFy7XVhlLHsVyrNwz62J8t5ZeT6hAA5uWeq4ofELjXs09usSwLVFdj3bm1BBM8qizgPtBqONyY1+hAPeAGhfizjtarB4s+8Dm4sl6i3TKXqsa+IP6mTPz46xV/Q5qCyC7F8uOSSAFEFjYMSyOQE0FAEGhlBMhjuvBAL4tCv1ue7FaeykB9j67a2/JIZNPl5xIsTUFl4Vq3EYHelOgmVS+nmwohFaNR+/Ci6k2GmSpa+Rhds2/R3JMlCaKpNu4C184pWnlgzdx3kNnYntCF1RLZogSOHxBwW5vb/sTC9LxM1cHqU350l6JFlFoD7dnSIsh8hOTzT1GLQWa5mXNGDx6cEKbI+DGc2Xy3ZzcWnMjS9NbyZEzB+pb+gPfsaQcnUJrVheVZCYJAKyFAuRxMyaolodm7e1tpHNLXYAiQTGr3rJTWGLtPeOHzRZr6y03BKvHJNX3zr4sv1hmRB196dIdp9Ot8qmi7ZHpNK5OEA3PqETcK87YDrEEDij/j8LKa+HFFl7Wpu28ti5+PC5pao41pS9XBejb4QZMfH1W5XZVd7Vbqn5ezjUpl6kmjdLbnZW9wSGVxP+MZzz7i7aK3KdgRTW/FoSdbXJCqB4e2LdtVyEG6lYdVj/n5OmpbIBswMPmoCA4i1WL6muJXJnif5yVnmz7HXc9+gSVNoTi+GPiCn4JJnXrVC7KPbVbTt9+k7U6WrBVAjYEkruuoE01zHXckkdXucu2S8AZh3lAwqdfchPqatY4xftBzSjvsrTrwY4cxTl7/g1qrrLkcd/WH6cQEm6ZKi1/8oAEBzDzkLcms1GABqimpu/487/aCuw57XvmKS7GT2sucR4cX/BWTgQ3ZGdNbHr3s4Gh+W3GjzABEW2G9waGDwWiSofOjomB7UTdJt5quG6QyxGm3iHx8Nd3kzFGHuo55iQrDHeXM0iDeqzB4ntl8r5q84ft1tTrxs29qN512tQK9Qx9ueuMHt7ZponqA4cYZvvy1NYdiRQbziV98u56qay4b7oEFC5f3FZe62yXQ3jM/IpTW/+ab2loGT99zu+/mpLnAILYWqg4ONQB+5E3f8n81NTfxy++qLFQl7M9bTRVVWSgEfXdtFcLo2gcov+BEln3sjTZFNwLAtTBZqDncBz3uJAhUBsrPEhYOgXjI+qjIzAicFq4zLdLy4rCstcyaKpeX/Kw8LRjBl3vyuSdZ3qbs/YfEaOwHX1KUqtYSpv98g/b6E+7hPr1iwIuOOoo9L3mdr51JU6Rdj90nvtKSVNtf/sT82qtU+t7b533YIRi8p2tl7VJVt463GK4zWx6Y977MZYM9p7zRqj5fVJ+CFJQEfuzbn635Xq+1v7H1cFfNYBOyUL80dfdtKn3XzVZawP8zm+9R4z+5urj6YStEvo7QaPvEVq3W/wWoQ+j6iaUt8APZKzQFg+zBzmYxz+M1RbTmUFD9WKPtSTh8XnsXkZQ5QEDrKoPI8qOCnpSLz/QctNReVQ5AJUZC5yDQ8/IzZktlqT+4Y5sauuJcld9Znc4eidjwFy+09P9sLzfq3tJIfPdJ/9I54HqMlLqFdO2Zx0Y4EyhJK0xNqKFPvKdqImPqqPVICxKUqtGiRCmgP+kH7pp3gldqfw5OuvDRFj/4OcUNVdYbQbtchbH/XR99J1Yi7pmDVt2rTBx0BCxYLC1bDdF641AvGPnG5YFVe/ixyXsmPzqMjw++7GxzWGy6XjUh9xFYsdO3/rbcCgfa573MTY1eYcGJbAy6sbv1JnX/RMjlPk38wOqlGaNQDt69hBS4ozT3sTQntSQeUYvwbM9+tOe+/VZsgZLrfqjFUJItoTMQiO19oOp7/b9ZS922lyCXDNP3/VXt/Og7Ar/gKYnd9fGzVB72OUkQTOAyerh/kRp418Udu8nLYGGOfae/X0WWLJ+lYpDDh8POj/2rGv/+F2HxYdhkD3xkGc5DNWVpQSK6fI/yzUck1iDa4z/8cuC2WyFj/1vPV1wpsLtIpkQ6+/g/1M4PvVFNwJNVLcSPH3xTvw+uW65VTJ5zQtn8Ez/2JfP3u9TQ5e/2/Yhkezv/402679rjFqToWrpue45Zp111iNduYfJX11Z9z1FyPPHr62x6uSGMBw4+4C0ttvdBbs3ouAVdp6YzBJpyHtQSWZFvec0SSVMvPjnW9SXUpsnGuhz0alPiZyOQVWHVCwrbg7nIyPfEbIAcMXyiKblOgMRGsdyWxfNOd8sS2h8BuqPMPHi3dkUZhoceY1GA7iczD2zSL/jul7xWdZ/4Klg62LscELw003//q5r81fe1MXQm6pdpMZd5iQ6ceRFebgeWl+3gK+I4cNbH1NCnztFEw+g28gOAS7Uj3/iEmvy/H6uu575Y69TG9jpAhaiqYZNyU/pGT2w03ZV5+D4QoDux4edmnP9dLf3Ed1UCm/kCBdSZOOS5Ko2NRvYPkFB3j74nKCnufslrVISSWxDc/MQoyNPDin2adT8EanDhMsWf8Wx4q/qAGvniR7TD5BLuIJD5qUk1fNWFegNY19Ev1isI0VV7WabiDO7EHJvgaCM5t+1xmJq6H+ogd6jUplv0KsayL/1v4Pu8++TXqsnf/0/Z/BMZfkRO3/wb9fQ/7lXdL3q17kcE7nTZ19zwDjyTf1NTf/xflfrrn7RqBJ+3PD5g+t/0XpXd+jAI9f9Y94qB2c8FL8Y0cf21KnXHn8rvuf0PdVUD4kfSxK9/qD9yeG+U7hmobGj1oX96s2s5050FJbLsRAQvuASkshK8EaAsiwRg/2hGwWGbhAVEYFUsr6WLc2BiegFHNbdNy/M9t/g2a+2D535KS4em/vQr7O6eIbP6JYkXPPU3uaEktna9iq5co19UNBeUffRBlYE0i5toSHzsRKswOa5dsQ7864WaBDfr2BeqX7TFmR/ZoUa+fIkmAIYQkLDwL/vEFo37+E++oeeEJpvMRwIlioXJCaVthwJnqm7Q9S+dWjBQmh6YyCJ/17Enq/GffctamjakDUdK+qY2XK+mYEqNjiwYqIJAEjd49sdU72vP1nGt9B+9VOVHhtTYf/1nkcwmOCqNOXGnHVRD6vks0CuYvrc5SJLY8RFIbac08eVqg8YdOs7cvMUPiqAfbCTVvdDbHfvh/1Mhh04pySztC49+57OaKIaTWOGA7Vk+U5x36vZqKSzmiBYCuqCq0veG96jhK8/HHEJyQyICqsa+FXyILD98so8+pCJLd1NZzCufdd5zUZDn6B7rtLUH4sAPrOwTj2g707ltW7Uk1tyzhIaqMuyHn/rQwhNZ6GBw6THn2G3HQUiYQYA6xPv3dym1dXImUs7mHYF9QWQZis/0vLffag1yNSGBH7+BXErtDHH9RUJTIkBZAm/qBgaaBFp0wVUq8rVL1cT/fKck6eHb0BAr2r1M33eHSm+6Tb+0DXHSu5ZJcijBx28fpbB84UZ3X6MGzvwIpIonNbCn7VUVSRXJ6ejXPq5yO7eXf0RAOquJAiRmJAl5N/fBXE7Ge5nSc40/4YFZJ5pi6nvTuYHBIqlKHvcySypvJ1Uks+iflv6CyJDEsr1QwlIxrNgAyFbpw4b37FyEGuslNuGBRWr0ms8A2yGtbmD6Sswr4s6NcQgaBxvuvOdTt/+hqo+2vtPP05vqpm/7XXHuWbf1cJeeO84/PiZLbZpnDc8jSSyl6Yved4XGms8xCbV9Mc1vsxfN7fH+oqcubvJju5xvklqqXFiOJHTzOl3xQ0t/1BTBhySW5eMHHl7qh5Xb/f+mILK92AyCWxn/GvxL6j7mlovl1E5jp9E6fOQtwQ7wYShk4NZquXG0coe50Suq8mpdBF/P/CwV/ANNJ/W7E7BKQpWM7YUYVhYCFWv/TJRw4Ie9GQJfKiH8MZBU2F8y9faPL8GBd1+qzWON/deVWjKlX2yQyumXPF1QJosvcXtjvHGAj+4PJVQgAj0nvw4SonO0Fy971qrOOU5uYEGod5yFLBw/2OaxEdjpPjWgj1TZiGMX++jXL1fTf7nRWmommSKhYCi6/sTTaV07/7fhT8k4+6Uld1gCDpFoBQyDZ39Ue3ZL3flnTV5L7bM8LfDg94D3gwl+5rm0Woktv8bLRzpo6q54xDyybr25iRk5rzUEfkTEDzwCuH9CL9Ozf5rEBsFdv9KL9z0JPvrDYDerFqRLfOYWX/AFNfy5C9TkTT/XKx2aROvCxXdXaf7ZQLHNolSWz9nAOz9cmmetfkI8eF/q7MDKx+0t1VMY8qNDM+PnBwznDpsAXV8Duh+8zyzpMC1xDLzjPxR1f/3CzB3kl3MO0unVa3dsYKIzBAmVEcjiXtsNAq31ibz68xRuKrpMkjCvCCzB07IWv/vTUPwU9INDH2sSwha8x52VU79c8JJh0Pe1jSg0CgkueXcddqyavPGnWmcu8/D9WhdTS2ApZWPgURNDvCgpAUI/IstWYmnx1aobL9egy6tWZeX/G1Jgj9Vt2yOqPA9FreX6ktSNGBZf9lVWVcqu54L4m/kwBKiUI/gJdU0XX3y1tlgwgY03WucSm+Y0uaLKgJZuFrFntTbseUnyE4FELb7fs1TiqBNU16HHlcgN04MEkt4lH/kapJRX6HmntE+PsaiuoOtAu5ooY2ndT9IX7luEfmFlshgKlOTCpWm9geSPqwCGyJYR7ior53265LLvQJJ6E6TRP3bH3V4ncUewpJ5Y3oc6jbW56UDF56YWG8nEfdGHv6zizzxSr4Zwmd88U3reTfuQtOv7ARJyWl/ofcXbZ612cFOlda8UfyMC/D4MnHWJdlLiOX7zzLMfxfnnKTfNJQ5/nqJZs2pWXfi7dRH+LmElQUIXbqJI8Ys2SH63PCEMgrqxJARr8DX+f8fuoTeEkKxJ8EaAThE+++i0+uKT2HDkILIhu9y/WIUzjtf2OPs5iziv3eKcefyui10pHfzy29Pt5259KVVaPPHL75deqb6pfEi9oDujLl2eVuMUz0oIhAB/+iL4UP3gzh71t2xCJW3vzUAVVJnJOcduxeGk4fbf//73tKA/byJRtPk5tPce9ocbGzL/uA+6njZVC+jJcfMF3bzOZ6BveG60cYboqr21JMcZ35BrfNhwMxc9DnFDGHfV5ycss1GhWAJ6dSu1Hl38gEO1wflqJICe/UOb1NuzB+okkhjVurmI88hNUaG4jVhBUlUzduhjdusWexf1OUlVI+4L7oJP33+ndk7BDTy5HU9C6jezeTjcA91NkJbIij1UdLc9tbmj2Op9qiavswZQjKApKrrN5dznhrZbXr7wDLBdqoyQACYOPdZ7rMAnP7TDMpZfrJPEVxPQKqTEzv7RogA3WtnJKz98SKoace/Zcc/hfuH9bpdohuleFrqkvO/DS1eo2DpseGvg88f7dBqbrtLYPJbZgg9IqCvoAOyjy/ZQsX0O0oSXqiBuwdzn9jTe80GfG/v4y+47/ObxN9DMf3TPfbQ0u5YP1qYgsn88dneN0by9Vewz0iLnpE59WJf9C6Tub7t3DB9I+HKzkVf7uRmSM47X9jj7Ocs4r93inHn8rk1f/n973wImWVGeXX2Z7rnufbm4LLsrAYSIIETYCKjIqgkSSTQqotFAEo1i8EGDURBBiSBe1sgP+RN+FLz8XqKSiJdfImoEFBBBcJXV5bK77A7L3mdndmZ6uqe7//c93TVTU1Pn0j3dM316vnpozqmvvvqq6j1n9rznO19V6WOYvllunrv6om3qY5h+WLm2o4+mPonsJUvy6vwFeTUoN6qGKPRIIssl9t4vRHaCyIaCNh8VQFK8VPVENhUCtjUb7TR1EA0yrnGnudnEBO1ypn6CL3Oz2W4YbPPg3tBLgc0l9o3uw5yGFuh7ih6bItfpkeSLAN846MF+Pl7+j4Zb67GxpMTJ+qLV2AI6YBckS+rE7Ljiuqi8U3k9JAkCgkCDEJhNMjObbTUInqaZmSss0G4iW/lU3bSx1WN4rvCop6911mEYxVynRvehyR/65hqu9mqfoRe9CCl4ycKUbIwwi5c2X06oVZgjcVSmrPIIZxISWxv4VhRMbZVFWxAQBAQBQUAQCECgJYhsCj4u+VobcJWqRfQE5uGVffmyTi9GFnF34ZVEoyEInNU9jvWOsQpNQ6zNLyOy/fT8ut4yWkFAEBAEZhOBliCynAPegh8ZZvM6RGqLnkB6BE/AyjV/tDirRoT9R8JtJkoFvDgwrOBMEFkugSbe2JmgKXUFAUFAEBAEBIHGItASRLay+ERjB9au1ugR5Fqc5y1JYfUI7LAhXtmmXmpuS3t6T0mtSJfUmDjA68JatqWtCzapJAgIAoKAIBABgdYgskLGIlyqigo9gsPwDJ7dW1bHY03ZMRAtSc1BgJO8MomyemXnmLcJgvDY+nCWZfXqw01qCQKCgCAgCIQj0BIsiDPBJUVHgHhxW983LU/LpK/osNWsOYqwgpN6Eurk7rIalbCCmvGTCoKAICAICAKCQLMRaAkim8OscC7BFddkxvfOBicnUkMgVn+yPKtO6MayXMBPUmMR4Da0WcD62uxB1YHjbE/ysu8j8x5r7Eibb01Ch5qPsbQgCAgCgsB8RaAliCxn4sc1seck4dx1i79uIKqXG2JZs0bGz7VYhUtduLKyPZ/Eyjb2DqI39uTepPrjXoZyNHfJLX2f8EjCyvuH99ECZHhPcQtn7ALe2AHOorUSQodGx0sYW7P+GmZxMNKUICAICAKCQEshMKcbInTgwba/nFLY3yOWkZ7cbvM+7Pb2ma3D6mR8gj62O6WOXZBVR2LNUZJMEhAuPUSiznAAkk/9KG8ELWGs7CsXJNQ3M2PqgTy2/2yE0Za6PeemM7xOXbh2F/YMY2IdruHEVZt5f8zrr0krmvK8vtxJbAzuy0HsIrYbu/c9niurp0pZtaWYVud0jqqzeopqBOVxuszcfG4cPT4o65LM/OYRC4KAICAICALTEJhTIsveFItFfCbHw7mj7NGFOD2ki3hAH4ulsLYM59XPdo6p7u4uEKAcPGmQYyLWCxd1qqMWdKrng2Eemip73jUSIxLbPBgNdzPjClomuZl2hQIEJFxwGqqLn7tI/XrTqCqVSt7WtQFVpCgCAlyd4Ny+ojoJYRsHCHIdSdfS97MmrdyuNY0rzs/t3GiBpLUfDW7NqwnSujVXUiPJDpUD+SsWuX5tQr2jT1usozNzXGW0GlvA1TYkCQKCgCAgCAgCjUSgJYgsntue52uS0jVyiM2zRUK6IpNUrz0kq/49X8SWsSV4XpNqJ9yv/aPj6scDcNfCF7U8k1KLQXKPz4yrUxZ3quN70mp1VimsoOV5bdlD02vLPGlLlOf+QXhlT+9LqvMPzapbto96xJb1JdWHQA7X7zkdJXXRwrx3TaJaMa+XSVqxQJpngnHMe4oJtX20rDYXM2o7XK+P47gLwbeDiQ54YieJagZXHoslqM5EUeVSaXVCJq/+IFNCf6LdE1H7PBt6xIL39oEUbni8aEkSBAQBQUAQEAQaicCcEtlUMqlyeMhVHuJRaFsjhz5zW6QefEi/dFmX+mL/iOcRTTNGlqbTfIRX0hDI0dDwmHoKvPa7+4a9GMiliH2k1/bo3ow6cUm3OrozibVK6bWt1AE/9by2tK8pjh9CJLPvODSpHtin1GNj/CyuW5ZjLQhwglexXFIX9o2qlbgWAz4bTpjXwySt2uPIkI89peQEaX28gHP8SFp3l6f+yWVwdfn5nTGxk4lXmq1UrvhaEFlOOBudVIjFmTcCDO4gSLzEcMfikkknBQFBQBCIHQJTn6pz1P1nR/IqhdjSuCXSDBLxU3sT6vmLutSD+90eUZIQJn3k+V58sr67kFB3Hyyo9M4DqhObGxzS2aFOWgAPHMIVtNd2eXWyT1CsLV8ElkDv0lXd6h8eZ4hBWUIMCHKNiRO8zkYc6rkLuSpEpbJNWkk6O/Gpn6SV5IwTwUhanxwuqa3jKbWl1OGRVoYK5BOpKZO0SFqnEla2wZtDt1JpU/+fUQ1LyjlvVzHGzsYx4bb0Xvb4QsaYcUmCgCAgCAgCgkAjEZhzIsstQAcwo5kpjo85j2zgaf2ni5MgstEvDUktYx91KuKz69Oe13ZM3Q5hL1y7Pfi+bMba0mu7Cp+9OZOdDjyiRoJDDA+iIy/FxK+/Xp5UN+0oenU5eUhSNATAQxFSgHjjJQVvgh55LEkYr5N+AeGEvQMgrY8jPGBjoUPR0/o7HPcirIShA4x5ZUripYQbKTB1VY88r/V6jIMIn4zNGLir2KCPd5h2WzkxtOIAPNGMJ5ckCAgCgoAgIAg0GoE5J7Ic0E7MfKpsY+n2TDV60I20xx6P4FPyny7vVJ/bUfDiYxkrW2tKgnRy3dLOKvmkt28v7P58PKF+PgoWs2NY9XYk1RoQ2RWYGPeC3pR6HiaSHYFKh+Eq9sBFSAwvW9WltpUK6nt7CgpzlSRFQIAvI4sRI3D10lG1KpNQfK9KAc+DOD6L1QOeyCfVYyCsXD2AE7H2I9aVpJWElSnNc4TJdE94VhGkMMOXCBK/dLno7SrGNnifxZUK5kDIJQkCgoAgIAgIAs1AoEWIbMnzgjVjgM22SXLB8IIjQSjPXZpW/759ZEp8bL3tkwh1VoMuwZG8ND4+rjbAC7gBlOYHB7Au57M51QPP7arUuFrTl1XPSxc8cvu2Q9Jq8xBicvMVglVvH+ZLPXpe39wHzydI7PcHE2pzHoQVYQJbSxn1LGZYjWJlAZ0yuC6TpLX6wuJ51hv7EsZwkT/sGFcn4m2k2evY6rE167gTLwOSBAFBQBAQBASBZiDQEkR2MD/b+yY1Hko4T9VrDutW//fZMTWeSMKbVrtXNqxXFQJV0ap4/MqK5PaxcZDbkTH1PXgIs8+OqGVYJYFL6yeMz9phtudzOfir+sEYrl1/ZZ1WLr/FlMWqAfSUdyUnSarGvaLR3P+/umsUHnp8mkczk1S6uW020rru816FmA1J8oFE7gFBQBAQBJqAwJwTWa6ruWs0D69XZVejmIYCKq4ccFJ3Qq1b0qH+a1cOMa6z8znV89ziw3MCYQdMZXzm3oOYTcpJfCWFI8A1fbflKncevbP8MVVIa+V8Nv8/Dm/sKnC/M7GrWNw2QLBx4koQDMmQpG4EBvxJEgQEAUFAEGggAi3xhNk1WlAHwCMW4lM6NwmIY2Kv6ZX9qyN61V37Ck3zyoZhQ/I1VwQsrG+tXK7Jayv0kdvR/ll3DnG75dhO8iKOfJXjSwK3p53vCX+Tj1YxICxxfV+f75dRxi8ICAItiMCcu+y4Te3OsaLahwk03Is9njS28ul3FEx2Lbxo9MrmChIY2IL3e8t3qeKNLat1PePeihQt3+GADvLl4CDii7k9Lf+2JXkICImVG0EQEAQEgQYiMOdElpsicOmp3ZhUE/d1JhnpS6/s3x3Z64UWMFZWkiBQCwIVb+yYWpYqKR2rW0v9VtPdjT+KgWTGW3e31fom/REEBAFBQBCIPwItEVpQwKfU3w3m1MsXcj5EfD03DK1krOwLsaHBa1f0qS9uHZi1WNn434oyAh0be05vwYuNjTMi/Ctm/DtfUBn/3mWsmdwC4xpCH8QzGnwhGALxqlQq1WmpdRaLxfsg22zJJRsBgdWrV3du27btHIdqZyaT+eno6Gi/o6zZojNxnVeikZzRUCfmWPyuUCg8bMjkVBBoSQRag8giLvbXB4veElzVeTYtCVbUTtGT9s7DUupHuzLeurLgtZIEgUAEuG4sNgNTb+sdVouwSsJ+0Ky4/y2k8VL6TDkTOG4pbE0E+vr6Fg0NDX0BpHWZo4fvhuwmh1xEIQjs2LHjSGD6dahNe/bm8/nXQc79cGY1gcReiz6dYTeKtcxvhewiWy55QaDVEJj2xzRXHeQSXPws3w4zIeiBWoNduP7+yG515e8HlMrI8kNzdV/FpV2uG/tHXSX1sp6Stz1u3Eks+1/GxMNnixJe47gHU11dXYdRnk6nTS+YQ9UtwrJ7nawLsrnXrdEQ6ZjLCojPKIiPq0hkIQiMjY1x8gQWG1cLbFVgWte9YNupNR/QLvspSRBoeQRagsjyE+RTB/N4gJe9bVvjunKBebUHMVP7TcvT6o5dXepXQ+P4tGqWyrkgMIkAvbFdiZK6sGfYW/prFEVxJ7J8IeULnSy9NXmdjbPj8Qn5XiNf7ymd+JpsbsSn4N9jdYSfg5hsgJw/SYKAICAItD0CrUFk8Qly81BOPYOF/f8gU/KiZOP+IC/Au7wIT/MPrOlRf/2bA4r5jrgPqu3/HOZmgPTG/iXiYk9CiPgB7JfbDrcJVywYwooFu7HFcmXFgnYYVUPvD9sjx7mi+t/jKOd2Z1aUSqV1EF6M3zi8pveD0H4N5/+Gn7hPAYIkQUAQaE8EWsJPyJULhuDBfDxXjv3KBfo24WObpOT0voR628o+hVNJgsA0BLjhwaqOsnrLgrzKMbamDRJHwbldsmJBTRdTk1hWinIeZDwNEsuYxxvhpX0IIQhnBylLmSAgCAgCcUagJYgsAcwUC+rRfSNYpqe9PDdcxeBdhybVC/vS3qfWON8s0vfGIsCQggy+P7ytF9sKt8lyW0SIf8H8O+aLqbdjX5v9TTf2LmiuNXhpT0Q87V3w0F7U3JbEuiAgCAgCc4NAyxDZfKpDPY442Tw+s7YTleV4FsK/whCDHuxcxhADSYIAEWBIwVndBbWutyozMQkAAEAASURBVKSG2+zjL2519VQpKxe6RRCAh/ZzILOvbZHuSDcEAUFAEGgYAuYnrIYZrccQJ3z9Zt8wtqpd5K05SQLYLqkSYpBU71nRoa59Oi+xsu1yYWcwDh1S8M5FeS/shEGR7fICJxO96r8xEAqwHl7Up3wsdKH8cJSZbwjdmOB1NIjqGshX+NTzxLD7iWXLlv1wz549XEdXkiAgCAgCbYFA6xBZfGLlVrWbsADJi3oqU3Hb5cHOO4WrGFz4nE51774xdfdBzFJvGV94W9zHsRoENz7oxovbJX0HEVJQVoNtsGasvgB8/eREr1349PBEuVNlsBpD+1B0PcrmHUE2b4N13xUHUB7U+JkguhdC50KXEtYFPQok9h0o+5SrXGSCgCAgCMQRgZahU3rC16MDo20z4cu8IRhSwLjBq49dpA7F8gWMHZQ0/xCobHyQUH/VPazW9uIFp81CCnhFs/hXZTMWhRorltou5n0W7li8xted7gGJvQi1uWGBMyG84DxngQgFAUFAEIgpAi1DZDV+3OGLqZ28sXo8nPh1TGdCXfM8hk9UYiS9wcr/5g0CjIt9SXZMvXER42LbJ3xGX0D9d/vweCfWfNI5XSrHWUKAu27d5WoLIQhrIV/jKhOZICAICAJxRKCliCzjZH/+7AG1t1DyPk/GEdCwPh/A2F7VV1Jvf07Wi40slduPzIRhMF/LdVzse5cWQPHKbTnxj/Gx+XJCNkKY45scntev+nQBq3Gln+tTJmJBQBAQBGKHQMvEyBK5jmqc7O9yCS9Oljt9tZtPh/5meuIuPqJTPTkyrr67r4jVDGJ330iHa0SAztfedFJ9aPGgt9RWO8XFmlAwPnanxMeakMzJOTyvj/s1jFjZQ/3KZlu+evXqzi1bthze0dGxGP3i71D0Hft6qyHIhguFwqM4n9UAHEyI60Ms8Wq0uwgvBMtxVOjT7mp/9iP7NEWUz9dkYwR8uL0uJxFux2/W8cGWzyuwzNyhuF96zGuGvgz09fU90+StnNGMpLlEoKWILONksRe1+vm+HDYS6FKJNvz0yovNzRE6EmX1waP61GP5UWzPO+YtzTWXN4K03TwE9G383r4hdVy21JZxsUSP3xYYH7sxn1IjGHQXd0WQNCcIVEmXs22QjsXOgtkTHgey8cfoxytAYteh2R4QkA4cpzyPIONiHiS1j+B3J8jKV7G1bz/OG56A18lo71z06xUgsS9AA9hnT3FjiYm2qv0pQLAPv3vwuxe/u/HznZyHstlKH0ZDx2GyH3e4nkiIme5iBuP7JPr/8ERBHScghEtHRkbOg83zgNGLYWIRflMwQp7te/gAyx92d3d/u0kkku6fV2G8Z+N4Nu6LY3D07iHzmkE2jvZHoLcZ59/D8ccgvD/CeU2JYx8eHv4Ixr7UhTHG+h20+5WajFaV+VKwb9++62zbvHZoa29PT89VTcKwnu62ZJ0p/3C0Qg+5nuyvBnIqv7ITW1u272svJ3sdgR2drntup/r734xiO88kSIA8+FvhHmxkH0hi8/iu8O6FOS+k5CAfzW2a9N37wBifJ5IEgWkInImlwv4RXtdX4KHvEaxpGlMFfD4tw28dfyArV+LB/qVGPtirBPYykLzz2bRFgigyE/vDH5c5o75XB2O6A2O6Dvn78Zv1BExuBOnh1sQKx2nto3z9TEksjF4MMvVBHDn2oMTr6uEDLM9HnY8iT2z+Db/JtwJk6kn04G/btu0C4H0Jxnqia7yWXV6vBdTFkfqX43r9Aphcj/7dbun6ZkkkUecAFC52tQlb56DsPvxImGtKeCm4FBX8rt96IbHhcMJ/0lqpS5XUPXtzqj9fVoyZbeekt7D94Gq+/Mvkr3a71prE/lXPiHrTwoI6CFf8jP8lb2GQGFYwWEqo38G5lvL8sy3c2TbvGoiL7+oH8B7tmM3hc4tctEkP5t0gIK/BMQqJdXWRhISE6lHYa8TmDh8GTg+hIY+QuhqMIquO6T4Qnc/zE3eUOo3SQZufJiYB9q5C+fsCyoOKsPYIJl4nEt/G4Ub86hkb67DuD+jVxHEm6bitW7f+FKTxcxgTiWldCdfrVNj4FsdVy/VCmx/GfXevT6MLIL/Wp8xXnM1m6Un+gEsB1/bRI4888gpXmcimIsC3lZZK+EdPDebG1H378+qCwzuxTFX7xcmagHPy1xsPy3rE/bPbx0B2HBPdyq73DX7InUwpbqU0LU3V4cffFPCdSHaxg3zgj2lC3XWStNudZtOuNamQTsH2ZLaiaEx+m9a2rWub5vimwGBVSBljZ12r2DY3k+2SiUsJy0+9tmdU/d2SohcX3c4kllBiVTlsS6vU3gSJrKS5RAAP3OV4WDu7gL+rLX5lzgr1C9egrSvxKffC+k04a64gEcEY34xjPZ9zEcWW/D8gJg3tF+3Ba/xnICenI0Ruk7PnDRRiDB9Dm+/1M4nya1H+Ub/yKHLYIFHmy8dM0zp8mv8RiOOr6wwPocfzCyCh9NA3JPEFJJfL/SGMvQW/KN70IvB4D+65B6BvPUy8Lp0P/nJLLaEL+Xz+k6jpfLED7v+A0Bv8iyopDAHXxQir0/TyAsjr3QMFj+BN4SVNb3n2G+CjhpO/3rEiq1ZkEmoARBafu2a/I9UW0x0ZNV7Iq8njXN4i7gexHzgdqTD6NLvf9bvL2H62D6sT4Gsf46LbPWXxx3r/aMpbtUA2/Jjbq42H9Mv9eoCH7U54Iv2KGyl/HR7GDSWLZudAKG7Bv5W/q/WzOcjIZ5vVL3j5njr88MOfBgExu9qM83/EGC73M4wxcoe4GXnzUP+tsN8w4gh7J4I4/its1rqW8ZmoQ69wwx9G+Ds5Cna/g99L8NuIX2Cq3mvXQOkjLkWM8dOQn4Jf6MOLXxVwDztfEqrX7x5XGyKbjkDDb4zpTdQu0ctwPXtUr1oIz1Y7bVfrQoMkhxSMnlk/LyD+4FxVJ2TTI6Mmimo8oSXeFuaxRhNzpJ4o+//b0Th8og+uhNjYUXTJ+z4XvVosNXnHjGDZrYfzmVj2v506zU+4+Pz+RteY+Gm0To+Yy1ygDPGMN+JT8Ovxb9epPorjeGD/FmX3ggBsRN/248G+DUQ7gzqr8DsZvz/Bj2TDlbpALK5HwStchT4yxjgGfYpntX70679BSu/Fbys8bMPo23PRt8WQH4fyM0jKHPbH0fd3zoIX7R/RNj15zlQlQfWGE5g2nSSW9xCw+CEUf4nfEH4FyJ6D63QucHkl8ivwcybokLgRf651HJr46R/361ehGMhVHH2i7T5gcTraXIef3z1IvWW4zretWrXqpRGv3ceg/2qXzep9wZjXwN3zOMFr7969n2DjdkKfvZCCWXgZspuObT7w5pirUXUiNvaJ4YJ6YBivbpgXOQYWMh88swOe2y6YsM7VNZF260GgvcNiNCK8YzOIEnkin1Dbk10KLASSdv+L1aNvvSNI7I3olZOEQP6/Z6vHVVLwHrRHz5L5rBnEw5oTlL6G3wbdH5Aj7xTEUYs+jxO+45MYXIefaQNZL60DiaFn63YtCDiuQZkvAUTZIH6Xg4B/ziY0sO99ekZ/tfm1GMNbkL8IAu/TMPKfqNU7rI3VcCQJ9B0D+kBPbCNIrKtLd0F4pcbCVICM2durM/A/gD74eouh90HofRGTnEiCA1PVg+tLjFHZt080jH58H4cr8IJxNvp4rYt8Uo/yp59++mM4jYJdEfq8r+9jXUe6ErJv4bfZUeaJsErBB2DD+YKGa/g++/7zsyPyCgJ4/LRu+u9nD3oeyvnySOQ45ddeGLTuX1fjesZ7lvGxdw8nva2X/b4qNK7FtraE1/e601rUpKfsfJcFeJHuwMO8nphSl7mosvtJ8LQyzm+Cl+14EIwrIJsgsbrccSRD+hTI6jscZZ4IhOBcvzJTToKAvDMeEfJ+hCmcheNNEUnE/RgDtwI+jd5AYPvkkiVLPo580xLauQDG+ZLiTBhf00gsbF+LRun5DowlJTnltUVf/8bZyYpwxf79+18fUK6L1uLaOj+9U4H3Eg6hfaIu41bpccXp15h3JfT7b2uY/MX7mpi40gII/cqofwLaer+rIq9hLTG2LhvzUeZ6w20JHHR4Qf88CS9oCdClE4JAHQjQZcbVCiSsoA7wpld5CUQ98CD1TC+aKsEDLwsJJ1QFfe72KoFo/aK3t/cieGunGpmFHAkePFAL0c//5EMan4prbhUE/PMgRxfieIZdGaTgldWNFYImxqyB3l/Zdat5hgS8rU5v6oaVK1e+YufOnUujeBh92g8VY+z0On/BT5EECOOL4k30M+Err9rmi0fkxOuFekehT36e2QthjB5334T6b0d9v3J68/kiETlVX1DehAr8WrHOUXEBJum9C/JIY8WKAtcgdMYvbCFo4td6tDGNe1Vfhq7GfeTomoiCEJgGZpDybJYxvGDr6Lj66V7sS4/Y0bzv/TybvZK2BAFBwESAQQRdiGN/EH7Ep1SnymCjDwkrMBGq+dzzuIHwRa4Y8LD3bIAQ3Aoy+Z5mEq2gzlbbfXdYP4NsVMtuxXEakYVsBeINSfx9iSyI4FkgV/SUTUvA54aZeMGqBKl/muHGCc5B378Mc87nNfp/E7BtConlCxBsO72HYcOrEr03uj6hYzynVGO597rsVMte5yqDrB/l7673pQxe17/Gy9RjsDPtfkBf34iXomuieOWrOq7QGa/bwO3TsLXWtIX78AKMfZ1rXGj7krn6G3X1J06ylg4t4OoF391V+9t7nC6A9FUQiDMCiChQSaxjdl8+i2m6Cd/JinEeY0z7zglL/PT6AjxQL2qHByTGwx2+nAmk5jnOgqoQJMFFgFk6CHx8P9cH2ZylsjPRzjfxc4ZEVElsTZ7JWvoN+9dDn+EdNScSOOD+bz4Vu3DNTvMpU9WyaUSzqn8zyp0E2M+eKedkR4zrS6ZMn6O/R6Hfa3Q+wnFK6Iypj/vqRNiauDYk55B91NTR57yOOGc8r6Q6EGhpItuN3v3PrmH1JKZ9czkf+nokCQKCQOsgwCW39hST6kHs5iWbILTOdUFPNsKb9jCOB1uqVzPoDD7970d1TshypcBQDBAUhmy4EsnDZldBC8jWog/fxc+PxN4KYjRBlJrQ336ETcyUXN2Jfvl9Xvgjvz6D2J3uU0bP1jd8yiKLgRs93H7p5X4FLjk9z+jvo64yyK7UcbdYR/dyEmVbjyEF3K3Olks+OgItTWSxarXC3s7q2ztz+HyZlHnQ0a+raAoCTUeAL5ZZ/Avy8GhC7VAZazOKpjcvDQQjsA6fMD8HlU34/ZCztoPV27eURAIEYrnPCO/1kc+pGBPPTkYH6Il1eiVBnEhiL2pyJ++hV3UmbeDT+uMgaltdNjCGhS45Zbhez3eVwdYzkG90ldUig3f0ceg7w0HQr1NqsUWMUMcvtINxtx/k9cT1usRlF2O9ZCYeZpfN+SZraSLLi1HGAv3f2j6ouANWps23rJ1vN5+MN94IMGCvADb7/VzFYdTy/5jEA256HKP8osZc8TKtQwzoXXjYfh7EojMeMEzvJQhpfro0XIJPyUug1eHSBMH/nUs+x7Lj4H2+A31Y4eoHriNjYptNYrkqQN2f73W/SfJA1Pw83ou1nn1EnW5bVs3/1kdek5jEEfGqzn6h7aU1GYMyY6yB13pXPV6r6vXk3+KUxGsJwUy93lNszscMgZ3xzdpM4Djp6/H9B9WPDh7S1mvKcuY3J83gP0ltggD+QVQjmKTYrrt6VdaOTapNxUx1klebXLg5HAYerhd2d3f/FA/GQMIJcpZBNw/l6ga4z1bB+3oE8oyn5CdZ56doPFAv3LZt29FYw/OcuYyZrU7kOR79fAEe5Dq29XD0z9lv6JFUjWJNURIMP4JDNb+E1cidmIzDw8dwhVZJQ8Tm4MGD38E1dZJY3B/cjKCZ4QQTWOB67JrIzOxkj6t6wPXGCn6JBfz3006QP+GS23pR8mh/n0sP9uu5xxRCDK7AWrRnw+6Jll3e167r2c+QApBqS12ytSIw7Q2hVgOzoT+K6STffHoARHaRN22zrsjz2ehonW2kQV6HsHzR+s0jvhY6sp2qMJZT5tFXeQ4L0thedxzbX9pH3SXKZzPhQc+3ZcXjXKTX9eTUUjTdjmSW8bF3jmSwxTLWi+KbmKQZIwDCtqWGz4ybeW+biZ/RuYQQHqYkO9M+S4MEnYEZ/l9G2XlmvVk45x3yKhCRd2B8L8O51zf0M1LTUfVcxkD+lmPcriI4yry4W1fZXMheABL7KRCpo/waxzhegDLGzgau5+pXfy7kfAmp5frhq0EHlrVyekVh50CjxoB7ca+LFFdJNO9X503j1z69z3jOvA99vMtPx5TjvpSQAhOQGZzPzdO9xg7rSV+PjCxSJ3Ql1FCxvXZMSicSahj/nn9t9zhIwfS30HSKl0l/SbSP/mCmEFcclFJ1kLtk0p+xJL32+LfPdu2j7snUfxvS1T6OF0tKn2tN8xjUrqlnn6cSfFCiPyFY2PV0PpUIxlDr+R3P6kyowzrK3if4dnK2k8TuGMeyW5jkRc+spMYgAGJFT2vdiTOyUfkK/L6GB/J/ukgRZK/BQ5TLAH2l7oZqq3gc2ruZJNpFHGoz1VDtAsMVgFlDjc7AGHeemvbyYdlbAGL4b1hO7cy59KpbfWpoFmS+Azj4fZFo5Bdkp+cIfzfZeu9THWIAMvveIFBwDW/F38PtQTpSFh2BWBBZTvoaGCuoO54dUacc1aMSDrIXfcitqdmBNRl6QQiw4hg411RmYGW9AeCPbcpA7DwLbRnzpswyMaVMGzf1KzZ1SeU4tRwvGLbRqerTyifU05Uxm/XNc65ZMTVvGUbWLp+aL4WU+9mb+mIx1eb0OlqC1rzTSlz3VBtaJ85HTvL6ycEOxUlelbVj4zyatuz7BjyML8TI7vYZ3Tshnw0ieyba+S4e2mEEzaeb80ocCSOQpBOxwcRngcxF8wodDBYvRKO4l1p62JjY9e/4KnIJOunHr8YxDm7R3NLjiFPnKuwhJj3+z6f3q/58WTFuVpIgIAjMDQIMheFOXj8ZSXtLbsXqH5G5gWyuWr0HL16cNDQtgQycAuGaaQWNFdA+vU6RCFpjm25vayBBF4IMvba9RxnP0eGrygfQcz8Sy0GloXNZPEfXmr0OAruletwHjx13+vrKjpy6bFWXytF1KUkQEARmFQH+1THU578PJtXjmD8j3thZhb/mxvAJ89sgra9xVOwCEXohyjY7yhoiAon+F3iFl4UY64eeXgbp2SBd2OIknJfhF5vnVtB4IpR9DdfvKZDWy126uHY3IDTigWo4iUul7WQYs++EwBYZ7Dl8yYjQl/Px9/cdjGc2vopE6E68VWL3DwKX4vrr53Rig4QEtq0VMhvv2096HzcEOuCNzZUTsuRWTC4cHpSP+XUVZYf7lc1UjkkvZyNe0EWgtemv4eRfMUv/saiT26qrHXC5rDByrNvwjhhnbopgMtMB0hG4kcKk6uye0ZMO4v4W9K8IwvMSjOEMRw9WYCWHf4V8tifuObrSOFFvb28BExK5bJfLqHMSmEuxXhnaxRZMtSesBtKHft/g0+9pBnFNP4F7+s6o9/80AyKYQCBWXwW70im18cCo+sazo6pX1qmauIhyIgjMBgLaG3v3cFL9ejwr3tjZAH2GbWSz2X0BJppGCkDA/iKg3atQ9ib87qnlIQ5dhijUMxluyKcvHYhlXOJTNmdikthVq1a9ER3wgkFBeN6Fc+eMNJAmTty7aM46G6Fh3As1eVEx+78ADA66TMNDvdAlr0eGfjnvf2A6CHs1B+Iibvlq1HWtOEF7ruu3Art9faSevkudqQjEisiy66mOrPri00NqN1Zilw0Spl5MyQkCzUSAn2/y4o1tJsQNt40H/zCMTl2jq9pKI0mB1fEUHugvsmReFqTrXpx81FXWLBkm3/hhAMdxuqU8sprEciknA48NOP+wkZ9yCqL7GQiOmyJsrYzTg477z0Xu2PMicHC+fIB86nWHZzxC3ItHuIygbedqBi5dQ3Ym+vZeIz9xinYuxFj5BWJaQp2LIeSESEkzQCB2RLYTL0rilZ3BFZeqgkAdCNAby7Vi7z9YVr8dj/1KBc6HZB2wtHyV6sYJfv00yZKfTs1yfC5dBCLrWgBegXQ5H+g1N1JDhepasQVXFYQ/vNAlnyPZXfTEWiRWd+VT1ZcAnTePC1B2syloxDnIV7YBdri5ASf9udJ+l5AyEDznlwTYcr4g+dnxkzMMAG04Q2tw79ZKZLHQUPJ/+bR1F+7529HWNSinZ3Zawpg+BaH/upbTaojARiB2RFYPgF7ZZ/FPk3hlNSJyFASah4COjb19rBevkglvpeDmtSaWG4hAL2w550Lg4epLJGbSPshhJ+r3+dh4yEceRUy79ey6tBlk4RlXA5C3kjfsMz4k1ut6UIgByhhD6+u1dY09TAZC9/wwnQjlx8CO04uK+2+HX31cl9+4ymBrOeR+xNhVxSk7cODA0bDlCgOgfq336BUYy4mOhsbxNeCfqvLNOH7aoaPQj1Mh59rPkupEIJZEtqcj7Xllv/SMxMrWed2lmiBQEwJcqUBiY2uCrCWU4ak72q8jKHN6vfz0GyHHLPttM7BDAuMk5WE2QRYedOlA/jLuhuYqa0FZYIgB+nslfg0j5sSGE+xmiMPLUd8vRvYBP9sgsn5kknHS5/jViyoH8X+dny7I54/9yhzyEyD7gEPObZVvwNeAh3XZ6tWrP4FxPanz1pE2aEtSHQjEkshynIyV/dJTe2Vd2TouulQRBGpBQK8b+62DlS+Nsf1Ho5ZBt4kuyMi5fkPBQ3WrX1mz5PBc1R2TCmLwlzPoF2NzXWkBt/R1FbSojJ+h7/LpW5qfuEGY6LluRFqACXaM4aw74R57q0/lPein8+WC+plMhiTXGUMLm5cyNMDHbqiY5Bz34dt9FPtXrFjxmE+ZS7weQhdR7+/p6bnWrEBvO66Pn9ecNmhLUh0IxPaZxFhZrit787YR1S0rGNRx6aWKIBANAe44933s4iXrxkbDq4W01uKB/Vc+/dkDT+QjPmUzEmMCFWNvh1xGEHZQ7+dqTqbxG4urqSkyrN7wQwicxAh2L0XZ2ikVas+sQRvH1F6trhqcVOQ3lhOffvppkt1GJXoK6/XyXowXKX42d6W7gsIouDYuCCuv2bQEm0dhhYDrphVEFICc3whVvwloXw/ql9UESf46S+Zl8bXjw64VOeAJ/goU/F5E1qHeRS57IgtGILZElsPiDl+f3zqoHhrG9q4gs5yQIkkQEAQah0A2odSO8YT6zkhWdvFqHKxNt8R1XNHIN/Hz+xT/iOtB24iOLV26dBiepz0uW3iQv9MlD5JVx3I7dPzGElTdK4PXdRNOvu2jSG/YN/FJ+WSf8kAxyMcFUHgEn5H/A8fZmLTDEIPL/DoFYn4x+vRav/Ia5cTmu7Xaq16zT/q1hfJb/Mq0HITVl5BzjNDz825qE9OOuC8/DeH50woqglHYDe0XVasvLVM8rtomsLoX9/nndd5xvNIh80Sod32MQl38hjHr8lgTWdwwajA3pj79xICiU7buf+VmHXZpUBCIBwKd+MP66lBWbS91KE74ktRcBECm8jNoYU2VcHwVnk96fXxjP0EkPj6DdgKrVj1aE7GBlvI6kokon7/5CRi6H6uOxelBs2yHZT8boLACRPQnKL84St+oQ6zxuwfk4/+i3gKQIE74oXd3NtJNaMTPs8fVIW5oQHyrHscC2PsWMl+N4nUGJhfhmvHFgyTYle5C+Y9cBZbMd4vlqt5HcPwqfmuseq4s409/iGtEb7Yz4V77Ggo2OgstYT6fJ0lfYIm9LLDyfcmo6t+Ptm511YVsGV66rvEpE7EPArHnftwk4Uc7BtWda5aocxaU1d5CCXOqJQkCgsBMEeBXjsdyCfXDQg9WB5HvHTPFM0p9kKnr8ZDbhgeuHwmYYgafXzmL/zB4r0hal+AhGloPde6ISCSmtFVLBv2nN/hCVx2SCZDdN6LsZvxIHveAIBWpi7Je/J6H8ayDx/jPIGoEgaVpJhKI9Wy/kp32fxKTG7du3Xop9L4NnB4Cnt7kNBD/DPp0KPKLIX8l+v9i6Lr6diXGckfVAzytgQYLLoG9h/BzXfMV1U/o3HiiUel8jOscYPMtYPBdYPEMxroPsizwOQT31Ashfz3kfuEEuh++HkmtoI/A/EM4fxl+TtIIOb2rnPz1fRBobvnK66W/BiyD7Ghc7/Nghzq+fAf9fhJjuRIhDVALTrB5Adp5jUsL2NyK9u53lZmyalvO+xv1+XfDv5/vm3Xk3B8B3wvrX6W1SpKJhBrGVrXrH3tWnX7KcpWVrWtb6wJJb2KJAL+PjoO7fulAhxotIYxH3g5n6zquw4Msclt4QEfWpSIetI9iEspFIDk11atDmQ9hegzX+dQl8f5I9TcKMlSo6pGY+z2XyDKo50dqqib8D8D2/SAip4KInOGnBUyPwm8K2QVJm1APwZyTx+gt/RP8PHI+UbHxJ/Qe8vO63yf88zHWH2KsQZ+5g3o1iEIba3qeSbT4UxgrdTqAj0emQ7BhFXorQ4keFatpA8ZwIcbwLS1wHNnH86GjQwY0G+2CzKE+TTSOfl/IuNxpJZaAn/2h9wlLrLN8IYtEhqttXY+KzmsHYn0DQnTu2bNnT9P/UHXn43yMdWiBBp7Lcf18z4i6+Zkx2bpWgyJHQWAGCPRiqYIf4BF1f6lXtqKdAY6tVJUkFiTkL5oVG+sYK8kgiU5YIgkiGeHPj8TSxmUgNb/myQxSETPizwdR+MUMbARWBc7L8Vl/UaBS4woZR8oXBmcCkfsMCo5zFoYLL4eKr+1qdV4zj8SGmQMuJPjsb00JY7gd1/1vUGnybSLYAvsTqU/QG4TtN+J4T7DJSimI+zU440uYK10dhQwbFT/Dv0kjP3EKYs0JbVdPCOQkEIG2ILIcYV86qW7cPKg24F2Mn0QlCQKCQO0I0L/HCV7cbOTro70ywat2CFuyBknEkiVLzkTnNs9iBzkp6Vz8opDZwG6h/5xYcxOIeCZQMUIhyQa8XetAZu+IoF6Lyjj6uf7II49cO4svC5x4xIlPfhiTaN5QyyC0LgjeDhDy8/3IltaLeLwK1+7dEXWnqYHM0qv8coYATCusU1Ad1xkkylFMAI/XVr3R09SrL0Yk6rUkbsX7Ub8KaOu9KFvrVy7ySQTahsjiJlMDI6Pquk2VzWq49qUkQUAQqA0BusOy+FdBJnjVhluLau/Bw/pW9O2PSSLq+ExZWTh4ZoO7B0TrRTAR5tnza6Uf/7a/Dv2/oqqw1E+xFjmxgNfrPNh+cwOI2iBs3IRx/iH6+b6g5Zug04F+MnyiYQlewk0wRu+pX2J4B0MQnAkYdDoLEFFEQo5QlLOr95GPmr8Ytu9F6avx8yVs/rWnldyDF5AXQnoVfnumlUYXMITgMr5w4MiXrdDEiXMgvL4vBBhnEP6+9kmig16oUPbZKJMPfRuYJwVBn3FiBwEnfn2v/4C6ZUlWvWtlt9qHiV9xSQVMURsuJxCPWFbpstXvsut9o6xSqSRmp1Z0U04vNP1rZkKdtHHJ7WLHAmb4B8w0MO08abc7zaZdZVIhjf5Pa9KI+ZvW9mRV22g1j/FVX2CK0E0ljAopjNvIskIKG60WbawNy9gk3MhNnibZ74BU8q5JWVEvj+sZp9SD4Ni7EZX1vbFu1YVzSU1BgJ9I+SAea4R1POxy+B2kLZCzrfjxM+kDiOd7qsZPnVO6A5tPwRZlZj/7kM9NUQzJVInWK6BGj/C7qsdDcTT+MUJuMg2i7d+h7S+CQHzN8G6mINsMteX44S6dTFztARPlJgURz0AkuK7n10FEzsP563HOPgb1jZZH0b9n0JcHUe+HCFW4kzhjnCwLTNAp4N+134Lw8vO0WYETpsbMWNxAQ9MLb0KfXok+vdiyS80syt6Ksm/gfCMFZsK4tyNPj66J6RLkvetcxf8i5G9G39+Cvv85zoMwIlHkPfgl2G7ohKXqy9hHcV/chH6djzbYF4ZOEM+gxHVpH0L/v93d3f1tjgkvHEH6U8qgT683MeHYzJSFze/guv3IFNZyjuv+Edy7p7jq4Jo9b9u2ba9FGe9TST4I8EnNC3SjT/k0cWdnJwjUzJ5wCZCjVAhBmtYwBKzHyV1BqYR/eBd1dao7XrRMrcZHqCEwmuAaQdZmp4yfcveUkurT/QWVz0V7RmRwHajLI5Pf+eyMoNIKJwTl8NzzO1KrswvOiNwITqpHyLw6prxiblJP52N4/NtFebUiXVZjMeCzvA+H8NL0nt09aofK4DrW3mk8LOb0KkVpHw+HO37605+eN5cdpYcH3rl8I/qAhzv+oBo/sci1exKIWAYP9YGZtEcPU39///EgRKthx4wlJSHfCVL6Oz8CHtCnvbDViJRC+yeCWByG5xz7NsVbCWL2LGTb8HsMvyJ+NaeAMcwIV3QkBdtOby+vG9f3dXmLa+0P9Q8cOHA0/o4W40dC62FUxWYfru8jrnZqBipiBfYHfwN/CPUl1jXLoU/EdB90flslwRGtTlXj3yslrr/ZRvz9ua4B2+N1Y5sz6TvttHviU6etiCwvWA6+tj85pFPddsIilYNHjLOvWz3x1SADR5/LC0gvY8XDWBkFz+ciaW+nq+2wPukxuOoGlbn04ySL0/3XhQtxw/6sumMMy22BxAb7nd1XIQqRdNdsjDRK+61AZBszWrEiCAgCgoAg4PdpJ7bI0GvbhW/IP9iVU7f0j8YmxICv9lzmaNr3b30lDE8Xvq/V5wrQtuo+glHjPxABRcLgHSnAf6Gp8okyVE0U5gaBBQgq/39DSS+koF4SOzc9l1YFAUFAEBAE5jMC9ThdWhqvcnUNxk5QvU9uHva2r13YDjO/SASrv7q+ZzXkqlX64PFWklnP5mS/dP+cx4a0L0YajQCd+134V+DpQkJ94WDlq2Tb/aPQaNDEniAgCAgCgkDLINC2zyzG8R4YG1f/tGGXGkBsQSc2SpAkCAgCUxHgtrN8JblpX4cXFyvb0E7FR3KCgCAgCAgCrY1A2xJZws4Z2A8PldT1/UXVjfi/mU1Ra+0LKb0TBOpBoBf/Anx9ICkbH9QDntQRBAQBQUAQmHME2prIEl2GGNzy+B71lR05tbCj7Yc75zeUdCA+CDDk5r7hhPrK2ALZ+CA+l016KggIAoKAIGAg0PbMTi8V9tEnhtonXta4gHIqCNSKAONiufvddsTF3jDUi8Usk0pCCmpFUfQFAUFAEBAEWgGBtieyBJkhBrtylXjZ3eMJb3JLK4A/230ggZHfVAxm+xq0QnveOr9Ylu6TA91qe6lDZZW1AUcrdFL6IAgIAoKAICAIRECg7Zbf8huzjpd972P71eeevxBrtiZit+uS39jC5IwN5hqhHLOduIRWo1Ic6RDHP4xlIOZuJYhGoR/NDu+FTtwLn9mXVb/KZ1R3snHXP1oPREsQEAQEAUFAEGgcAvOGyBKyLjy0ub7sx7dk1EeO6lEH4JVqdwJD4lLEmq+f3ZZTu8tptSDdWk74dEdH4+7mOixhe0D1pr4x1YsNANr9XiA8jBP/8kBa/edot7cBRx2QSRVBQBAQBAQBQaBlEJhXRJbb25LM/q+nBtWx3Sl1weGdal8hjn7E6PeP3kfhO9io7+nRMZXJZlRxnFu9YxcxkLiwlEySCvunZKp2YpxGnfFiSfFY+dAfYD+kff+a3CXNKE25x7oYw3t9X0KlSWTb3Dm5AGP98YGS+sIIdu4C9Gkv0MTASE4FAUFAEBAEBIGYIeB+usdsELV0l2SW6YO/P6AO686oly9MtjWZZeQAScvCRFGlQBy7QNhUR4WcapKr8XNt75mgvpFsnbByo6p3WqkPmx7LrOwQZuqY9id0qwpmmVlHn9vlU/MlbzcyrctjEeunLs2kVB9ebtrdG0sSu3EsqT5zoFONwSsvcbHmnSDngoAgIAgIAnFFoHZ3WlxHavSb8bJ5cKn3PDbQ9isZkKBlwN2X9HQaCMgpERjHbP1eUFji08BQ4ZYCl68hXKGgfzyp/nl/j9qX7BQS21JXSDojCAgCgoAgMBME5iWRJWAkL/0Hx9TFj+xST47BY4k1Naf6HmcCa+vU5Zi4tNLRWfxP0hQEiuWSWpqsENl29ch24y/8AAanVyiQyV1TbgHJCAKCgCAgCMQcgXlLZHnd+jDxZdNISb0LZPbZAvJTgipjfmWN7jMK+LkpDFDSNARWpYvwy7bfKwxHxHeX0XJCfQSeWFmhYNqlF4EgIAgIAoJAGyAwr4ksrx/JLLexvWzjgBrCbJ+uNkQkj9UZjl2QVT2IjWzkcltxvv8ZH0uid1K2iFVU28sbTxLLtWLLCIL+7H5ZZivO96n0XRAQBAQBQSAYgTakbcEDdpWSzHJZrn947IDnwSKZbRcfHQMKChjM0dmyWpUaVzn4HyVVEFiKqY5HgfHlQPSJU7skklguGfxJrBV711g3Jvi198oc7XLdZByCgCAgCAgCtSMgrKaKGSeAkcy++7cD2ChBYaH42sFs1RrjILI9CJs4bUlXq3Zx1vs1BkxO7iqp5emyIj7tkuhlJom9aaDTI7GdXJvBXp6iXQYr4xAEBAFBQBCY9wi0EV2b2bVMJpNemAHJ7DvhmSWZbZcwA/I0rpH6p4sry2/N9/ACHVbwys6xtlk7lteYJJaklSRWb3ggJHZm/y5IbUFAEBAEBIHWRkCIrHV9tGdWk1kuXRT3xBGMgsmeAIfsSX2peR9eQG/scViN7MTuCi5xv74ksQwnIGn914GsR2LpiU1hVQZJgoAgIAgIAoJAOyMgRNa6urZnlksXtQOZ5fJSnJ3/tmWVSz7fvbKv7hpV3djsobLHmXUTxChLEtuFWAJO7LoeMbH0xEo4QYwuoHRVEBAEBAFBYEYICJH1gW9RZ4cXM3vRxmG1G2yH68zGPQ2DzZ6B7Vj/eEFSDY/PT2/dCJajOgme6XV9ZXUQEMT9qjKWOwc2+9HdGYmJjfsfqPRfEBAEBAFBoGYEhMj6QEaP5cJsWv1s55B628OTmyb4qMdCrL2PlxyWUr3YpraYmF+XX8fGvrlnxJvMx9Uc4pz4peBAKak+vK9H/Wy8Rzyxcb6Y0ndBQBAQBASBuhBIplKp0bpqzpNK9Mz+BnvUv/WhXeqREWz1iqW64profTyIWNlTehLqLYtLamQsH9eh1NVvxsa+oq/keaXpnY6zN5ZfCPqxz/IVuzu9zQ64xJZM7Ip2WxQKhX3RNEVLEBAEBAFBoNURSMHz+CuQ2cfR0ZPwWxLW4XQ6rRhHOpPEB24Sv1oT60V5WEfRC7NjlnOL171Yo+m/9+bVYb2d6uSeJFY1KMd2rdkSvM0vWNChNuaTajO+S3N8TOaYK5LpMlsnLK/t6GOYvllunrO+ndc29dEuN/OjiBD+g66UunJpzhtvXL2xWCVOLcT/HhnFjl0DfeqpUjZ0nVgTB42VfYyiY9dx5Rtlx2U7iiyo/fHx8cGxsbGrn3jiiY+OjIzMr7e4KOCJjiAgCAgCMUSAz0Xu9rRh2bJlt+ZyOZyW/wiiDr+xzEciSyzSmFAzWCiqH+8eVT3ZjDptQQpENhHL5Zs48YufpY/tTqm79+XVfnyeJpl1kQBbVmvevo9qqR+mG9V2AS8dXamkumbpiHpupqyGYxoezDDtXvzvzoMp9bGDi9TeUiqUxBIjG0cbt6g6rnq2LEpbdp1G5v3az+fzt8ET+9Zf/OIX3xYS20jExZYgIAgIAnOLgEdk2QX+4w4S+2Oc3oGHwQocj6XcTvOVyBIHktlRfJ7+yd6c4qfp0xd1eDPG8YU3dol9XplRag28lD8+gDADkLsMV9K3kk0Mas1b5qaRqiB7QWW2XeZd+iSxTP+4ZEyd1VtWXIUibokj4PJaWVyfL+9PqpsO9qoixpWN+GHExsU1/ig6rnq2rFF2bLtR83b7+Dftl6Ojoxfdf//9n+7v798b1Y7oCQKCgCAgCMQDgQkia3R3F86/hnCDDTjSOzsl3GA+E1liRM8lf/cPFtRvBvPqtKVd6hD4r8di6OVjn4/rSqhDsyl178C4GkukMbaprNwmBrXmiZmZaqkfpmva5bmtr3fs+oflZfWXi0qID47n1sMMJeBqC9xy9pu5Pm8ZtQ7HS4eNh87buGi5eYyiY+r7nTfKjp/9MLluX4cRgLy+47e//e3vw+pJuSAgCAgCgkA8EXARWW8k8GRsXL169c0DAwMFCE7BL8uC+U5kiQEflmkcH8+V1F3PHlR/sLBbHY91kAqIPY0bny2gwyd1J9RhnVih4cA4NktITSGzmhhw3Ey15iu1Jv9fS/0w3UmrlTNT3ySxb1pYUAchiJszln+cJLGPYbLhNXu71C/Gu7yVCVI1kFgiY+JSQWr6/6PoTK81XdIoO9MtR5OwfYYRIEzqDQ8++OD38O+XXqwjmgHREgQEAUFAEIgVAr5ElqOoPgR+itOv43cofs8XIlshBnxgduC3u5hQ/w/b2nIxg1MXdihuBKZJFPBq+UT/K8nsCzGB7Rh4Z+8/WFYDGIAOM7CJSa15G4Ba6ofp+tnO4bM7Nzt437JCxRMbMxKrQwm6q/Gw1+/rVNtAYetdmcDG0caN+Sg6rnq2rFF2bLsR8wwj+EuEEdy4Y8eOAxHriJogIAgIAoJAjBEIJLLGuAZw/i2Q2HsxYeJ5HR0djKGtO/FhF6dVC+yBmg9rktliEZPA4PjZDA/tqYuyahliD+IUakDiNArydyyILAnt7/Ip1Z8reqtT2Dv0mmMnLmH5IOzC6tdqm/YY63tEV1pdtTyv1i3AcmMxI7EcQx9AH0Uowf/GdrOfP9iNkI+UyoCY23hQN0qKUi+KTqPaimKnFh38/fWXSqX33XPPPe9EKMH2WuqKriAgCAgCgkC8EYhKZL1R4mGxefXq1V/evXv3s93d3acjjx3ra098aLYLkeXouRwZQw1+Mzyu/udg0ptAxVADfsrGsq2xSSTfqzAB7OXY+Ws/3LQbcwyXoOd5cgg24QnLT9asnIXpm+XmOWvbedM214jlBLZXLkyoq0Fij+ssq8EYxcTyNiHOXB9241jCCyX4aa5DpfG3wtUKmILGX9Fw/z9KvSg6butTpY2yM9WqO8e28GK9/te//vWbsaTWz9xaIhUEBAFBQBBoZwRqIrIEohpu8CDI25cQh7YY3tkX1goQH0DtRGQ5fo4pm0qpHSNj6s49eUVidXJvSi0AC4mTd5b9hlNWrVuUVCsxVf6JQkrtyo1746N31iYqYXn73gjTN8vNc42xbY+7dcERrg5JFtX7lhfV3y0ZR//jt8QWvbBAV/3HYIf6+IEe1T+eVD2QmeGwNh42Fn75KPWi6PjZN+WNsmPa9Dn/CcII3owwgs8hJpZrwvJdQJIgIAgIAoLAPEOg6uuZ0ajXYoWDT3Z2dp4R1UoCHsxUHZsqsF4UAhxFL2xTh6Byv4e1rjOOrV9zhYJ60eIu9YE1Per0voS3o9YYPt83AvCoOM9Ej284XLN093hC3bYvqb4Dcr4X51zVQMfP0r6NhZ23+2CXB+WDykhgiSfJ3p/1FdWbsFPZER1lL5SAs3vigLP2wsJ5r57KJ9QNgz3ql6NJlQEn41JvQeO3cQ3K23ZculF0XPVsWaPs2HaZp22sRtAPAnvpQw899A2XjsgEAUFAEBAE5hcCNXtkHfBsxwoHtyLMYBscI8+Hh3bKcl0Ofe+BFIWQ2nX5IIvyoIyiF2YnqNyvTMuTICIZkO4t2Dzozn1YCYDbwvZVvLPj8B7iv5YnWiRZ9CRz0tRL+8rqJQg34BYQ2+D7OoAJbnSApRzXQ2NgXzudt8uD8q4yHULQCaJ31oKEumJ5Qf35wpLKokvDwJn9jgOJJR70wrKv3xjKqPVYWoveb64V6xdKYONBG1FSlHpRdBrVVhQ7tg77h39f1v/+979//ZNPPvkru1zygoAgIAgIAvMTgUY+81N9fX2LhoeHL+/u6XlvuUS65k7t7pE1R03vLFcxeGFfWl26qlu9FOSL29uO+sNjVm+Z8y54DemJfXJMqR9iZ6m7Borq9zmQ8mJpwktLshFGiOzyoDzL8JKkCsBQxxqvSRXUaXgpePWCkjoecbCUH9SFLYNWcEdIujtBYh/LJdS/D3VP8cKaNYOwMfXCzm07Lv0oOq56tqxRdiy7d8AL+2HsyvWoJZesICAICAKCwDxHoJFEdgJKeGVPxifAqzAh7DUTQuNkPhFZDpvjJXElGbwAuye8fWW3WpHBlrdwzxZAxJpyEQy8G3GqPZ0cA72h+zGR6pHhsvr5UFndM5pWe8bGvd3OktgKNo1fplRZtdUmNmF59nU8mVIFrATB1I22FiLm9US8CLyse1y9qKuklmBmnX4Z0P3ylFv8f/z80YP/7YdH+z8OpNTtuR7Pi0wvLL3ddoqClV3Hlbft1KvjqmfLorRl1/HLYzWCjSCwV0kYgR9CIhcEBAFBQBBoKodC7OwFCDn4KAjtUSbU85HIcvwkrfTOHorp6X9/ZLd60/K0R265RFSc4jp50/DzNwktHIsK0RNqE7yzj4yl1O+HxtS2YlptRwgCrr0axT5UQYmkV6dsuaRwz3jE9dh0Xh3bl1UnZYvqKEw6W55G2AC8s1xeixiS9jX15tWdmuFR97OXQCHdhVUtvoAltbYWEhOxsH5N2KTQzvvVs+VR6kXRse268jO1w/rclQurEVy3c+fOf9myZQvuLEmCgCAgCAgCgoAbgaZzgWXLlvXt27fvAwsWLry84E0urngo23mylw01ibuZNKE1ww30J3JNfEz9Vj3XfTVJrTcOkM09ILe7sSfcThx3FFNqf67geaBzrFRN4KdY1SGpFnd2YNmppHpOIq+WZ5LqMJBW7mhF7kd73OAgTuSVw9PY6JCMR0awqwhiYe8fy6g8KDgneIUlmxTa+bD6ujxKvSg62l7QsQF2GEZwGcIINgW1I2WCgCAgCAgCggARaDqRNWA+Ducf7unpOX++emQNLLxTHW5w9qKU+rsje7FVbIW4MeZTEyG7Tqvmzf6S2HJNVE4G48Q3JhIcelRNosO8mUq4HYuMiYWYxJWJh9m8Sb1GG/A/xsF2g4lvwey0rx9IqzvHurxNDvzCCFxNmlix3M676rhkUepF0XHZtmX12GEdeGE3YjLXpSCwd9o2JS8ICAKCgCAgCPghMBcc4RwsU3UtJoad6NcpPzkJcJTVDqLo6aWy/NoKKvd7WPvVsT2yuk2OpQTiRkLbC4/kaw7tUn97WFodA1flKCZRxW1CmB4XjyZFjXKT1apvttVK53oi13aEDnx3MKl+MJKBVzrpTe7iklq1JPs+s/NRbUWpF0UnSnu12kEcrBdG8MADD3wS9iuB0VEaEh1BQBAQBAQBQQAIcP7JbKfHV61adRvi3w5g7dnT0Hjk3cH4kIzyoIyiF2YnqNyvrB4563A1ABLaXw0W1A+wXusz2B52VU9GHZHl9+f4fVbnDUXKpn/MhyWtWxvVC7Pa/HLtMSaB5bq7ezCR68sDKXXD/qy6L59F7DM3yqhsbOB3f/j10ta38371bHmUelF0bLuufFQ71EMc7G3YVOUNDz744Pdgy3yXcZkWmSAgCAgCgoAgMA2BueYNa+DFvBLe2Qun9cwhiOJpZbUoen7eU91sULnfw9qvTpBHVrenj9pDywlh5y5Nq798Ts/EMlOjCDmIy6QwPZ52PWoCyxhYktht8LraHtjq/K4JCPzumwkF68TWt/OWum82Sr0oOr4NGAUR7fwScbCXIIzgPqOqnAoCgoAgIAgIAjUjMNdE1utwOp0+G/GSV/f29p4RNIIoBJX1o+j5kU7dflC538Par04tRFbbLnLGP0IOFmY71KuXZdR5ILUv6qlMgOLC/zqGVPdXjrOHAD9jcBktxvT+fiyh7kT4wE+Hk14IQQYbSLh25WLv9LWN2lNb387Xa8dVr17bti0/O5RzVy7+nf/sZz+7xa4neUFAEBAEBAFBoB4EWoLIVjtOfvD3Cxcu/BiOC12DiUJQWS+Knh/p1O0Glfs9rP3q1ENkdT9IaAuJNCYOKfWiJZ3qjcs71NrukjerP45rqepxxemova/0vDLaI1dOqEexCsG3hzPqwXxGDeOtQhNYPS7XPeKSaX3X0da38646LlmUelF0XLZtmcsOZdyVa8OGDdcODQ3ttetIXhAQBAQBQUAQqBeBViKy3hi6urpWjI2NfRDhBhfbg4pCUFknip4f6dRtBpW7Htas51dnJkRW2+WarLkytonFuqvHZ0vqTxcn1brlXeqobKXH2kurSVdFKv+vFwGNo7m02LNYTuwnIx34pT1PbB6E1iawuj3XPeKSaX3X0da38646LlmUelF0XLZtmcPOTxBGcIWEEdhISV4QEAQEAUGgEQi0HJE1BrUWi+N/0gw3iEJQWT+Knh/p1O0HlTse1l41vzqNILK6XzyOVOd2L00W1enLu9WfLM14XtolYF300sZx3VVzfHN1rskrPw1gOVsv9nWk6n3971xWPTxaCR/g7mUZzE3SS4u5+uu6R1wyV10ts/XtvNYLO0apF0UnrB2WazvclQthBOsljCAKaqIjCAgCgoAgUC8CrUxkvTGBzF60dOnSf4aX9vAoBJWVouj5kU4NZFC5flhrXX30q9NoIsv22Ad+4i5imS7tpT1tSZc6a2FSnYj1aDkJydxMQPdRjlMRcJFX4vpkPqHuRtzrwwgdYBwsva9pRMVmjJ3IplqamnPdIy7Z1FpTc7a+nZ+q7Z+LUi+Kjn8LkyX8G2AYwaZNm67es2fP0GSJnAkCgoAgIAgIAo1HoOWJLIeMMIOlw8PD7128ZMnlZXxiD0vzhchqHLixwBj8gyS1PfDKPjdTVi/B1lgvRkzt8zvL3rJQJLV5/uCx1eRN159vRz1+M2yAE+s2g7z+ciSh7h3LqsfHlBqGLJWA9xUTuPQKBFEJn0vPJQvC3ta380F1zbIo9aLomDZd57DBXbk+jDCCR13lIhMEBAFBQBAQBBqNQCyIrB50R0fHyZj5fNXixYtfo2Wu43wjssRAExGSWnoUmeiVXdNRUvTUvrgvoY7HvqhLUmVv1y2GH+gdtEjsmGJ1M1S6HPp/c2wkrtxxjOv2Mu3DWmabcko9MpbyPK8meaX3tcOxgYHGOaxhl55LFmTH1rfzQXXNsij1ouiYNvU56zGMAAT2qoceeugbWi5HQUAQEAQEAUFgNhCIJXdBuMEFCDf4FEjt4S6Q5jORtfHQu4N1wqu4tCOpTlqQVid0KXVyX1qtwUSxXpBdkjuS2gLILZf1YgiuJoC0F5ebRPeZ/WWcKziW6gQZpTeVBH8EHtathaR6PFdW949l1MZ8Su3HBgajGDc9rySvJLs6ucidS6b1zaNLzyUz69jntr6dt/X98lHqRdGx7WMCorcr15NPPnmThBHY6EheEBAEBAFBYDYQMB7bs9Fc49pYtmxZHx6el2K5rveC2E5ZrkuIbAVnk5yQyOWTaa+gOD6uejtS6rCeTnVsOu8R2+N70mo1iO1iMEBvQzFoMhyBxJYE19w71CSMjbui0Sy52iZpTYGwZnA36wlYXON1H0hqP+IpNhY61K9zCbW1lFE7xopeyABb43Ja3CZY17F7YOKny1wyXWYeXXoumVnHPrf17byt75ePUi+Kjmkf+gwjuAxhBJtMuZwLAoKAICAICAKziUBsiawGKZvNHrN8+fJPj4yMnKtlQmQrSNjkhHkt80IQQOHMtBxT9f8AGwYfivCD4/oy6phMST2no4w1axOqF2xRx4mS4BZBjMFvK97b6pG2NNE07fI86EYLq6O9qzzya3+qSj71WLj02P5SUu2BW3lrHuEC8LQ+XsyoXQgd2AXiOo6+qlRapUtFTIxLwVtbaVHXt/uq867tu8A3AAAUB0lEQVRyl0zrm0eXnktm1rHPbX07b+v75aPUi6JD+/DCbsRkrktBYO/0a0/kgoAgIAgIAoLAbCEQxC9mqw+NauecI4444joQ2hcIka1AapMT5k2Zec4aRXxeLyC+tgTCl0ymEHJQVlnM0l8J1+XK1Lg6BKEJh6ZLakV3BmS3pJYhJqEbOozFJTnUsaeaHnNaHgkzEz2kOpEEk4zqpD2i7I9Zl+UTk9RgZqiUUINwDe/Ol9Qz5YzaPlZS+8optXN4VG0pZVUBbYxBj3VIutOwZ8a52uO187o/+ugqd8m0vnl06blkZh373Na387a+Xz5KvTAdHUawc+fOf9myZQsiiyUJAoKAICAICAJzj8Akm5j7vsy4B9Vwg3cg3OBDmUxmSriBbdxvqSytF1Tu99D3q0Ni7Ur8rG0nl22XXVvPztOuLWPelJnnLn2SUJJbJhfBzYKe9mY6QGZLakGiqBYmy6oTQ1rSlVV9cJ+S5C5Mks4iVhWEuLNsBih4YpVLpFQOqy0wHYBXleu2DkFtFGEQo2Cke0sptW9kFPJKP3KgugehQ7KqkyatzAfFuIaNV9vTR1ufcpdM65tHl55LZtaxz219O2/r++Wj1AvSQSz6bVj+jpO5nvZrQ+SCgCAgCAgCgsBcIDCdSc1FLxrf5pqVK1dencvl3upn2kUOTd2gcr+Hvl+duBJZ4mGPlXntZeUEMZ2K8OA2IqWtdVrpGdYhDfSw6qTDA3SeR1dfayk3dV32/GR2PT89u3+ueqbM1rfzpm7QeZR6Lh3Ifok42EtkV64gdKVMEBAEBAFBYC4RmGQGc9mL5rV9JsINboQ36QV2E36kU+sFlbse+qznV6fdiKzGiEcbCztv6kbRN+ub5666M7Fdj70odXSf7L7XUtfPhsum1g06Rqln6iCMoB8vK1fLrlxBqEqZICAICAKCQCsg4P7m3Qo9a0wf7tm+ffvJu3fvfjce1DsaY1KsCALtiwDCCNbDC/tiIbHte41lZIKAICAItBMC7e6RnbhWXV1dKxBDe60ON/DznuoKQeWm90rr8+hXRzyykyjZ2AXlg8omLU6ehemHlU9aqpzZ+pS6ZHY9P72odbU9W9/Oa72wY5R6uHd/AgJ7hYQRhKEp5YKAICAICAKthMC8IbIG6GvXrFnzGaxusNaQTTv1I6VU9CMGfnWEyE7Ca2MXlA8qm7Q4eRamH1Y+aalyZutT6pLZ9fz0otbV9mx9O6/1wo5B9RBCIGEEYQBKuSAgCAgCgkDLIjAfiax3MfTuYHjIO3cH8yOlrOxHDPzqCJGdvP9t7ILyQWWTFifPwvTDyictVc5sfUpdMruen17UutqerW/ntV7Y0VWPMoYRbNq06WrZlSsMQSkXBAQBQUAQaFUE2j1G1hd37A//FXxKPaGnp+ezfgTUt7IUCAIxRgD3+08QYnPSz3/+8/cJiY3xhZSuCwKCgCAgCBir1M9vME7A6gbXFgqFid3Bgsity8NF+PzqiEd28uaysQvKB5VNWpw8C9MPK5+0VDmz9Sl1yex6fnpR62p7tr6d13phR10PYQQb8fLG9WC/EVZHygUBQUAQEAQEgTggMG9DC1wXB+EGr12xYsW/YLmulX6klPU0MbBt+NURIjuJlI1dUD6obNLi5FmYflj5pKXKma1PqUtm1/PTi1pX27P17bzWCzqyDgjsIF7SrpNduYKQkjJBQBAQBASBOCIwb0MLXBcL4Qa3g4wegxUOrkp3dLhURCYIxAoB3M935PP5Fz3wwAMfl61lY3XppLOCgCAgCAgCERAQj+x0kLhFVTGbzR6zfPnyT4PcToQbaFU/z5h4ZMM9ljZ2QfmgMn0tzGOYfli5aYvntr6fzK7np+ey56qrZba+ndd6PseNILCXYjmtO33KRSwICAKCgCAgCMQeASGyIZcwnU6ffdhhh60HoZ3YHcyPUAiRdZM/E2Ibu6B8UJlpU5+H6YeVazv6aOtT7pJpffPo0nPJzDr2ua1v5239al7CCHyAEbEgIAgIAoJA+yFA76OkAASwXefTg4OD/47NFIogEqcin/EjFI2Qu2xEkUXVMfXMc0Jg510yWycsb0Mbpm+Wm+euvszEdj32otTRfbL7XktdPxsum1qXR9ybt2E1gjc8+OCD3xsYGBg3y+RcEBAEBAFBQBBoRwTEI1vDVdW7g8E7+1ZXNfHIusmwiZVNxoLyQWWmTX0eph9Wru3oo61PuUum9c2jS88lM+vY57a+ndf6mKT4S6xG8CEJI9CIyFEQEAQEAUFgviAgRLa+K30mluu6ER6wiXADmhEiG070bDIWlA8qc122MP2wctumrc9yl8yu56cXta62Z+vbeejpXbluxXlR15OjICAICAKCgCAwXxAQIlv/lYYjLPW2pUuX/jPiaL3dwYTIhhM9m4wF5YPKXJctTD+s3LZp67PcJbPr+elFravt2fo6zyO+CqzfsGHDtUNDQ3u1vhwFAUFAEBAEBIH5hoAsv1X/FQeXKH6Bu4N1dnbK7mD14yg1a0AAL08/wTrH3q5cQmJrAE5UBQFBQBAQBNoSAfHINuiydnR0nHzooYd+BOamL9eVdL8vJOFZs5P2uplyl6fX1rPzrG/LmDdl5rlL3yULq2OX04aZ7PKgfFCZaVOfh+mHlWs7+mjrU+6SaX3z6NJzycw69rmpj/N+vDRdKrty2ShJXhAQBAQBQWA+IzCdSc1nNGY2dm/9WXjMLsDuYB9H/OxKbU529tJITCeCJlmjlpk3z+2ySYuTZ2H6YeWTlipntj6lLpldz08val1tj/q4n9T4+Pj6TZs2Xb1nz54hXSZHQUAQEAQEAUFAEFBKlt9q3F1QpilsB7oB3tlbEG6Qw/mpENW0XJeL7ESRRdUx9cxz9t3Ou2S2TlieNswUpm+Wm+e0YedNu65yWz8sH2bP1YZdR+fttmqpq23gProDy2m95v777//qyMhIXsvlKAgIAoKAICAICAIVBMQj28Q7Qe8OBo/stHADNiuhBdPJqUkAzXPiZecpM5NdXmvetMVzu76fzK7np+ey56qLUBLZlcsFjMgEAUFAEBAEBAELASGyFiDNyOrdwUBopy7XJTGy08iiSfbMc14XO29fK7u81nyYvSh90DbstqPUBYGVXbk0gHIUBAQBQUAQEAQiIOCehRShoqhERwAxjj8CmT3tmf7+vxnL5XZEryma8wiB27gCxgMPPPDxLVu25ObRuGWogoAgIAgIAoJA3QiIR7Zu6OqqmDrllFNW7Nq16xq4F98qoQXTvaymJ9M8J9p23r4Cdnmt+TB7Ufqgbdht+9XFpMD/we9y7Mp1n64rR0FAEBAEBAFBQBCIhoAQ2Wg4NUNr7Zo1az4DErPWNO4iQLL8VgUhFzZB2Nn6YXnTFs9tfT+ZXc9Pz7SHa6p35brFVV9kgoAgIAgIAoKAIBCOgBDZcIyaqnHCCSe8/cCBAx8CyfGW6zLJjm5YiGwFCRc2GiMe7fJa86Ytlz0/mV3PT4/94bXEy4vsyuUCTWSCgCAgCAgCgkCNCMjyWzUC1mh1hBk8BGLzxd7e3ix2CjsBRCdjt2ETMpbbMjvvp2PqmecufZcsrI5dThtmssuD8kFlpk19HqYfVq7t6KOtT7lLpvXNo0svk8lwV66/wHJaX8zn86OmvpwLAoKAICAICAKCQO0IiEe2dsyaWeOEI4444lpMDJuyXJd4ZCuQu8iheTHs8lrzpi2e2/X9ZHY9Ww+bGmzERK6rZFcuF1IiEwQEAUFAEBAE6kdAVi2oH7tm1Nywffv2P1u6dOkbsNLBr5vRgNicPQRAYAfhbf8grunJQmJnD3dpSRAQBAQBQWD+ICAe2Ra91qtXr+5E196PcIP3Y4enHrubtrfQzlPfljFvysxzl75LFlbHLqcNM9nlQfmgMtOmPg/TDyvXdvTR1qfcJdP65hFe9NsQRkAv7NOmXM4FAUFAEBAEBAFBoHEICJFtHJbNsrRm5cqVV4PMvtVswCZUdp66tox5U2aeu/RdsrA6djltmMkuD8oHlZk29XmYfli5tqOPtj7lLpnWx5bEClsT/xJhBJfIcloaFTkKAoKAICAICALNQ0CIbPOwbajlU0899VW7d+++GkTKW67LJlR2no3bMuZNmXnu0nfJwurY5bRhJrs8KB9UZtrU52H6YeXajj7a+pS7ZJQjrtlcTouTKIuUSxIEBAFBQBAQBASB5iEgRLZ52DbDcgrLdf0Nl+uCh9Zbrks34iJYtox5U2ae046dd8lsnbC87p8+humb5ea5qy/apj6G6YeVazv6aOtTbsuYx0+W09KgyVEQEAQEAUFAEJhFBGT5rVkEuwFNlbFc1yOYQPSF7u7uLOIwJzZTsAkW27JlVdI10Q1X+URh9SRMJ6x8JvaaaZv9su2H9dVRh7ty/bksp2UjJ3lBQBAQBAQBQWB2EBCP7Ozg3JRWEG7wx88888zl2Wz2XBcps2XMmzLznB208y6ZrROWtwcepm+Wm+euvszEdj32dB2GESAO9lJZicC+ApIXBAQBQUAQEARmFwEhsrOLd1NaO+WUU14/PDy8Hkt2HWE24CKCpsw8Zz0775LZOmF5sz+12mumbVdfwvqKTQwGurq6Po+Xhyu2bNmSs/UlLwgIAoKAICAICAKzi4CEFswu3s1oLbVjx47fwPAt8BTmsHvUWfjc7bXjIoKmzDxnBTvvktk6YXmvI8b/wvTNcvPc1RfDrHcaph9WHmQPqxHcAVzfgDCCrw4MDIzbupIXBAQBQUAQEAQEgdlHQDyys495U1tEmMExhxxyyBU4vtVF3EyZec5O2XmXzNYJy9uDDdM3y81zV19mYjuKPergxWAjPLGXYjmtO+32JC8ICAKCgCAgCAgCc4uAENm5xb9ZracQP7uOy3XBSztlQphJDs1zdsTOu2S2TljeHmCYvllunrv6MhPbQfa4HixeBAaxOsRlGzZs+Bx0ZSktG2zJCwKCgCAgCAgCLYCAhBa0wEVoQhfK/f39T+IT+G1HH330KI7HgtAuJDE0yaF5zj7YeZfM1gnL22ML0zfLzXNXX2ZiO8gelja7LZfLveGRRx75MfTKdjuSFwQEAUFAEBAEBIHWQEA8sq1xHZraC0wGOxLLdl2DiUpTwg2iEMUwnbBye2Bh+ma5eU47dn4mtl32sJwZl9O6XHblspGVvCAgCAgCgoAg0JoICJFtzevSlF5xua6RkZFPFAqFM9iATQztfBQdu46dtwdilwflg8psuzPpK+JgzV25XKZFJggIAoKAICAICAItiIAQ2Ra8KM3uEnYHezvI7JVoJ3C5LvYjjEyGldtjCdM3y81zV19mYpt1EW7B8a3ftGnT1Xv27Bmy7UleEBAEBAFBQBAQBFobAYmRbe3r05TeIczgIRi+BZ/Sc5jUdBYnNzHZxNEls3XC8p5h439h+ma5ee7qi2HWOw3TN8uxEsF/YfzncTkteKnzti3JCwKCgCAgCAgCgkDrIyAe2da/Rs3qofcSAyJ71POe97zrx8bG/twkerpRW1ZrXtvRx1rqh+lqm/oYRR/rwW7ErlxXya5cGjU5CgKCgCAgCAgC8UVAiGx8r11De87dwRBu8HH8nmsaDiOHYeWmLZ6H6Zvl5rmrbi22i8XiAGJhr9+5c+e/yK5cNnKSFwQEAUFAEBAE4omAhBbE87o1vNfYHewxrGpw89KlS4dBIP8I2912spEwMhlWbnc0TN8sN89dfYlqGwT2NqxG8MYHH3zwe7Irl42a5AUBQUAQEAQEgfgiIB7Z+F67ZvZ8zcqVK6/u7e2dslwXGwwjl3a53Um7PCgfVGbbdfUN4RL3dnd3v1+W03KhJTJBQBAQBAQBQSD+CAiRjf81bNoIsFzXqzAR6kPwZnrLdbGhMHJpl9uds8uD8kFltl3dN9bBRK6nMIHteuzKdbNLT2SCgCAgCAgCgoAg0B4ICJFtj+vY1FHo5bowy/+IMHJpl9sds8uD8kFltl3mU6mUwq5c60Fgrx0aGtrr0hGZICAICAKCgCAgCLQPAhIj2z7Xsmkj4XJd+Ez/RaxwwLRWL9fFBmslm2H6Zrl57mpLD5h6mMz1X1gX9nwsp/VFeGRHdZkcBQFBQBAQBAQBQaB9ERCPbPte26aMTO8OBjIbeXcwsyNh5NQsN89pw85ThhhYWU6LQEgSBAQBQUAQEATmIQJCZOfhRW/EkPVyXYifDVyuy27LJqNB+aAyEGlZTssGV/KCgCAgCAgCgsA8Q0CI7Dy74I0c7urVq7lE1/sXL178Eaw/65m2yafdnl0elPcrw6YGt2F5sOuwGsEm2Gd4TNFuR/KCgCAgCAgCgoAg0P4ICJFt/2vc9BEi3OAYxNBejzhV5+5gZgf8yKnWMcvtc8S+cjmtfwaBvVPry1EQEAQEAUFAEBAE5i8CQmTn77Vv+Mi5XNfu3bu5/uxaP+MmOaVOUN4oG4AH9p+wGsHnUEW8r37gilwQEAQEAUFAEJhnCAiRnWcXfBaGmzrttNMug/f0n0A+F9ntGeTUKwrKY7kvxTACENh/lOW0bCQlLwgIAoKAICAICAJCZOUeaAoCfX19S5cvX35lT0/Pe8wGgogr9XQ5COz/YCLZ5bIrl4menAsCgoAgIAgIAoKAiYAQWRMNOW84Anq5LhDUSMt1YTWCp0CCr/vZz352S8M7IwYFAUFAEBAEBAFBoK0QECLbVpezdQdz+umn/y3CAz6IHjqX68JmBgqbLazftGnT1Xv27Blq3ZFIzwQBQUAQEAQEAUGgVRCQnb1a5Uq0eT+2bdv2cFdX182LFi0aHhkZeR62k13AIWNLWQX5bVjx4DyEEXwDZfk2h0KGJwgIAoKAICAICAINQuD/A+nd97s8iGh+AAAAAElFTkSuQmCC;" vertex="1" parent="GSvg4yBgsBsZJvJtah6M-67">
          <mxGeometry x="575" y="306.08000000000004" width="181.45" height="97.83" as="geometry" />
        </mxCell>
        <mxCell id="GSvg4yBgsBsZJvJtah6M-46" value="" style="strokeColor=#dddddd;shadow=1;strokeWidth=1;rounded=1;absoluteArcSize=1;arcSize=2;" vertex="1" parent="GSvg4yBgsBsZJvJtah6M-67">
          <mxGeometry x="1090" y="380" width="200" height="60" as="geometry" />
        </mxCell>
        <mxCell id="GSvg4yBgsBsZJvJtah6M-47" value="&lt;font style=&quot;font-size: 14px;&quot;&gt;&lt;font style=&quot;font-size: 14px;&quot; color=&quot;#000000&quot;&gt;Monitoring VM&lt;/font&gt;&lt;br&gt;Compute Engine&lt;/font&gt;" style="editableCssRules=.*;html=1;fontColor=#999999;shape=image;verticalLabelPosition=middle;verticalAlign=middle;labelPosition=right;align=left;spacingLeft=20;part=1;points=[];imageAspect=0;image=data:image/svg+xml,PHN2ZyB4bWxucz0iaHR0cDovL3d3dy53My5vcmcvMjAwMC9zdmciIHhtbG5zOnY9Imh0dHBzOi8vdmVjdGEuaW8vbmFubyIgd2lkdGg9IjIwIiBoZWlnaHQ9IjIwIiB2aWV3Qm94PSIwIDAgMjAgMjAiPiYjeGE7CTxzdHlsZSB0eXBlPSJ0ZXh0L2NzcyI+JiN4YTsJLnN0MHtmaWxsOiM0Mjg1ZjQ7fSYjeGE7CS5zdDF7ZmlsbDojNjY5ZGY2O30mI3hhOwkuc3Qye2ZpbGw6I2FlY2JmYTt9JiN4YTsJPC9zdHlsZT4mI3hhOwk8cGF0aCBjbGFzcz0ic3QyIiBkPSJNNyA3aDZ2Nkg3eiIvPiYjeGE7CTxwYXRoIGNsYXNzPSJzdDEiIGQ9Ik05IDBoMnY0SDl6TTUgMGgydjRINXptOCAwaDJ2NGgtMnoiLz4mI3hhOwk8cGF0aCBjbGFzcz0ic3QwIiBkPSJNOSAxNmgydjRIOXptLTQgMGgydjRINXptOCAwaDJ2NGgtMnptMy01VjloNHYyem0wIDR2LTJoNHYyem0wLThWNWg0djJ6Ii8+JiN4YTsJPHBhdGggY2xhc3M9InN0MSIgZD0iTTAgMTFWOWg0djJ6bTAgNHYtMmg0djJ6bTAtOFY1aDR2MnoiLz4mI3hhOwk8cGF0aCBjbGFzcz0ic3QyIiBkPSJNMyAzdjE0aDE0VjN6bTEyIDEySDVWNWgxMHoiLz4mI3hhOwk8cGF0aCBjbGFzcz0ic3QxIiBkPSJNMTAgMTBsLTMgM2g2eiIvPiYjeGE7CTxwYXRoIGNsYXNzPSJzdDAiIGQ9Ik0xMyA3bC0zIDMgMyAzeiIvPiYjeGE7PC9zdmc+;" vertex="1" parent="GSvg4yBgsBsZJvJtah6M-46">
          <mxGeometry width="40" height="40" relative="1" as="geometry">
            <mxPoint x="15" y="15" as="offset" />
          </mxGeometry>
        </mxCell>
        <mxCell id="GSvg4yBgsBsZJvJtah6M-48" value="" style="rounded=0;whiteSpace=wrap;html=1;fillColor=#fff2cc;strokeColor=#d6b656;gradientColor=#ffd966;" vertex="1" parent="GSvg4yBgsBsZJvJtah6M-67">
          <mxGeometry width="410" height="340" as="geometry" />
        </mxCell>
        <mxCell id="GSvg4yBgsBsZJvJtah6M-51" value="" style="strokeColor=#dddddd;shadow=1;strokeWidth=1;rounded=1;absoluteArcSize=1;arcSize=2;" vertex="1" parent="GSvg4yBgsBsZJvJtah6M-67">
          <mxGeometry x="230" y="270" width="170" height="60" as="geometry" />
        </mxCell>
        <mxCell id="GSvg4yBgsBsZJvJtah6M-52" value="&lt;font color=&quot;#000000&quot;&gt;NodeExporter VM&lt;/font&gt;&lt;br&gt;Compute Engine" style="editableCssRules=.*;html=1;fontColor=#999999;shape=image;verticalLabelPosition=middle;verticalAlign=middle;labelPosition=right;align=left;spacingLeft=20;part=1;points=[];imageAspect=0;image=data:image/svg+xml,PHN2ZyB4bWxucz0iaHR0cDovL3d3dy53My5vcmcvMjAwMC9zdmciIHhtbG5zOnY9Imh0dHBzOi8vdmVjdGEuaW8vbmFubyIgd2lkdGg9IjIwIiBoZWlnaHQ9IjIwIiB2aWV3Qm94PSIwIDAgMjAgMjAiPiYjeGE7CTxzdHlsZSB0eXBlPSJ0ZXh0L2NzcyI+JiN4YTsJLnN0MHtmaWxsOiM0Mjg1ZjQ7fSYjeGE7CS5zdDF7ZmlsbDojNjY5ZGY2O30mI3hhOwkuc3Qye2ZpbGw6I2FlY2JmYTt9JiN4YTsJPC9zdHlsZT4mI3hhOwk8cGF0aCBjbGFzcz0ic3QyIiBkPSJNNyA3aDZ2Nkg3eiIvPiYjeGE7CTxwYXRoIGNsYXNzPSJzdDEiIGQ9Ik05IDBoMnY0SDl6TTUgMGgydjRINXptOCAwaDJ2NGgtMnoiLz4mI3hhOwk8cGF0aCBjbGFzcz0ic3QwIiBkPSJNOSAxNmgydjRIOXptLTQgMGgydjRINXptOCAwaDJ2NGgtMnptMy01VjloNHYyem0wIDR2LTJoNHYyem0wLThWNWg0djJ6Ii8+JiN4YTsJPHBhdGggY2xhc3M9InN0MSIgZD0iTTAgMTFWOWg0djJ6bTAgNHYtMmg0djJ6bTAtOFY1aDR2MnoiLz4mI3hhOwk8cGF0aCBjbGFzcz0ic3QyIiBkPSJNMyAzdjE0aDE0VjN6bTEyIDEySDVWNWgxMHoiLz4mI3hhOwk8cGF0aCBjbGFzcz0ic3QxIiBkPSJNMTAgMTBsLTMgM2g2eiIvPiYjeGE7CTxwYXRoIGNsYXNzPSJzdDAiIGQ9Ik0xMyA3bC0zIDMgMyAzeiIvPiYjeGE7PC9zdmc+;" vertex="1" parent="GSvg4yBgsBsZJvJtah6M-51">
          <mxGeometry width="30" height="30" relative="1" as="geometry">
            <mxPoint x="15" y="15" as="offset" />
          </mxGeometry>
        </mxCell>
        <mxCell id="GSvg4yBgsBsZJvJtah6M-53" value="" style="rounded=0;whiteSpace=wrap;html=1;fillColor=#000000;" vertex="1" parent="GSvg4yBgsBsZJvJtah6M-67">
          <mxGeometry x="15" y="20" width="375" height="110" as="geometry" />
        </mxCell>
        <mxCell id="GSvg4yBgsBsZJvJtah6M-54" value="Node Exporter" style="text;html=1;align=center;verticalAlign=middle;whiteSpace=wrap;rounded=0;fontColor=#FFFFFF;fontStyle=1;fontSize=26;" vertex="1" parent="GSvg4yBgsBsZJvJtah6M-67">
          <mxGeometry x="130" y="60" width="150" height="30" as="geometry" />
        </mxCell>
        <mxCell id="GSvg4yBgsBsZJvJtah6M-55" value="" style="rounded=0;whiteSpace=wrap;html=1;fillColor=#000000;" vertex="1" parent="GSvg4yBgsBsZJvJtah6M-67">
          <mxGeometry x="15" y="150" width="185" height="110" as="geometry" />
        </mxCell>
        <mxCell id="GSvg4yBgsBsZJvJtah6M-57" value="" style="endArrow=classic;html=1;rounded=0;strokeWidth=3;entryX=0.014;entryY=0.324;entryDx=0;entryDy=0;entryPerimeter=0;" edge="1" parent="GSvg4yBgsBsZJvJtah6M-67" target="GSvg4yBgsBsZJvJtah6M-2">
          <mxGeometry width="50" height="50" relative="1" as="geometry">
            <mxPoint x="390" y="85" as="sourcePoint" />
            <mxPoint x="520" y="85.29000000000002" as="targetPoint" />
          </mxGeometry>
        </mxCell>
        <mxCell id="GSvg4yBgsBsZJvJtah6M-58" value="" style="endArrow=classic;html=1;rounded=0;strokeWidth=3;" edge="1" parent="GSvg4yBgsBsZJvJtah6M-67">
          <mxGeometry width="50" height="50" relative="1" as="geometry">
            <mxPoint x="110" y="380" as="sourcePoint" />
            <mxPoint x="107.33000000000004" y="260" as="targetPoint" />
          </mxGeometry>
        </mxCell>
        <mxCell id="GSvg4yBgsBsZJvJtah6M-59" value="" style="endArrow=none;html=1;rounded=0;strokeWidth=3;entryX=0;entryY=0.75;entryDx=0;entryDy=0;" edge="1" parent="GSvg4yBgsBsZJvJtah6M-67" target="GSvg4yBgsBsZJvJtah6M-28">
          <mxGeometry width="50" height="50" relative="1" as="geometry">
            <mxPoint x="110" y="380" as="sourcePoint" />
            <mxPoint x="370" y="380" as="targetPoint" />
          </mxGeometry>
        </mxCell>
        <mxCell id="GSvg4yBgsBsZJvJtah6M-61" value="Project/ Website/ App" style="text;html=1;align=center;verticalAlign=middle;whiteSpace=wrap;rounded=0;fontSize=22;fontColor=#FFFFFF;fontStyle=1" vertex="1" parent="GSvg4yBgsBsZJvJtah6M-67">
          <mxGeometry x="51.25" y="162.5" width="112.5" height="85" as="geometry" />
        </mxCell>
        <mxCell id="GSvg4yBgsBsZJvJtah6M-68" value="" style="shape=image;aspect=fixed;image=data:image/svg+xml,PHN2ZyBoZWlnaHQ9IjIwNiIgcHJlc2VydmVBc3BlY3RSYXRpbz0ieE1pZFlNaWQiIHZpZXdCb3g9IjAgMCAyNTYgMjA2IiB3aWR0aD0iMjU2IiB4bWxucz0iaHR0cDovL3d3dy53My5vcmcvMjAwMC9zdmciPjxwYXRoIGQ9Im0xNzAuMjUxNyA1Ni44MTg2IDIyLjI1My0yMi4yNTMgMS40ODMtOS4zN2MtNDAuNTUxLTM2Ljg3My0xMDUuMDEyLTMyLjY5Mi0xNDEuNTY3IDguNzI0LTEwLjE1NCAxMS41MDMtMTcuNjg3IDI1Ljg0NC0yMS43MDQgNDAuNjUzbDcuOTctMS4xMjMgNDQuNTA1LTcuMzM5IDMuNDM2LTMuNTE0YzE5Ljc5Ny0yMS43NDIgNTMuMjctMjQuNjY3IDc2LjEyOC02LjE2OHoiIGZpbGw9IiNlYTQzMzUiLz48cGF0aCBkPSJtMjI0LjIwNDggNzMuOTE4MmMtNS4xMTUtMTguODM2LTE1LjYxNi0zNS43NjktMzAuMjE3LTQ4LjcyMmwtMzEuMjMyIDMxLjIzMmMxMy4xODggMTAuNzc2IDIwLjcwMSAyNy4wMSAyMC4zNzkgNDQuMDM3djUuNTQ0YzE1LjM1MSAwIDI3Ljc5NyAxMi40NDUgMjcuNzk3IDI3Ljc5NiAwIDE1LjM1Mi0xMi40NDYgMjcuNDg1LTI3Ljc5NyAyNy40ODVoLTU1LjY3MWwtNS40NjYgNS45MzR2MzMuMzRsNS40NjYgNS4yMzFoNTUuNjcxYzM5LjkzLjMxMSA3Mi41NTItMzEuNDk0IDcyLjg2My03MS40MjQuMTg4LTI0LjIwMy0xMS43NDUtNDYuODkzLTMxLjc5My02MC40NTMiIGZpbGw9IiM0Mjg1ZjQiLz48cGF0aCBkPSJtNzEuODcwNCAyMDUuNzk1N2g1NS41OTN2LTQ0LjUwNmgtNTUuNTkzYy0zLjk2MS0uMDAxLTcuNzk3LS44NTItMTEuMzk5LTIuNDk4bC03Ljg4NyAyLjQyLTIyLjQwOSAyMi4yNTMtMS45NTIgNy41NzRjMTIuNTY3IDkuNDg5IDI3LjkgMTQuODI1IDQzLjY0NyAxNC43NTciIGZpbGw9IiMzNGE4NTMiLz48cGF0aCBkPSJtNzEuODcwNCA2MS40MjU1Yy0zOS45MzEuMjM4LTcyLjEwNyAzMi44MDItNzEuODY5IDcyLjczMi4xMzMgMjIuMjk4IDEwLjU0NyA0My4yODggMjguMjIyIDU2Ljg4MWwzMi4yNDgtMzIuMjQ3Yy0xMy45OTEtNi4zMjEtMjAuMjA4LTIyLjc4Ni0xMy44ODctMzYuNzc2IDYuMzItMTMuOTkgMjIuNzg2LTIwLjIwNyAzNi43NzUtMTMuODg3IDYuMTY1IDIuNzg1IDExLjEwMiA3LjcyMyAxMy44ODcgMTMuODg3bDMyLjI0OC0zMi4yNDdjLTEzLjcyMS0xNy45MzctMzUuMDQxLTI4LjQyNC01Ny42MjQtMjguMzQzIiBmaWxsPSIjZmJiYzA1Ii8+PC9zdmc+;" vertex="1" parent="1">
          <mxGeometry x="-400" y="250" width="51.15" height="41.16" as="geometry" />
        </mxCell>
        <mxCell id="GSvg4yBgsBsZJvJtah6M-69" value="Google Cloud Platform" style="text;html=1;align=center;verticalAlign=middle;whiteSpace=wrap;rounded=0;fontSize=20;fontStyle=1;fontFamily=Courier New;fontColor=#FFFFFF;" vertex="1" parent="1">
          <mxGeometry x="-340" y="255.57999999999998" width="260" height="30" as="geometry" />
        </mxCell>
        <mxCell id="GSvg4yBgsBsZJvJtah6M-71" value="" style="shape=image;aspect=fixed;image=data:image/svg+xml,PHN2ZyB4bWxucz0iaHR0cDovL3d3dy53My5vcmcvMjAwMC9zdmciIHZpZXdCb3g9IjAgMCAxMjggMTI4Ij48ZyBmaWxsLXJ1bGU9ImV2ZW5vZGQiPjxwYXRoIGQ9Ik03Ny45NDEgNDQuNXYzNi44MzZMNDYuMzI0IDYyLjkxOFYyNi4wODJ6bTAgMCIgZmlsbD0iIzVjNGVlNSIvPjxwYXRoIGQ9Ik04MS40MSA4MS4zMzZsMzEuNjMzLTE4LjQxOFYyNi4wODJMODEuNDEgNDQuNXptMCAwIiBmaWxsPSIjNDA0MGIyIi8+PHBhdGggZD0iTTExLjI0MiA0Mi4zNkw0Mi44NiA2MC43NzZWMjMuOTQxTDExLjI0MiA1LjUyM3ptMCAwTTc3Ljk0MSA4NS4zNzVMNDYuMzI0IDY2Ljk1N3YzNi44MmwzMS42MTcgMTguNDE4em0wIDAiIGZpbGw9IiM1YzRlZTUiLz48L2c+PC9zdmc+Cg==;" vertex="1" parent="1">
          <mxGeometry x="-418.85" y="160" width="70" height="70" as="geometry" />
        </mxCell>
      </root>
    </mxGraphModel>
  </diagram>
</mxfile>
